<?xml version="1.0" encoding="utf-8"?>
<!-- Generator: Adobe Illustrator 23.1.1, SVG Export Plug-In . SVG Version: 6.00 Build 0)  -->
<svg version="1.1" id="Layer_1" xmlns="http://www.w3.org/2000/svg" xmlns:xlink="http://www.w3.org/1999/xlink" x="0px" y="0px"
	 viewBox="0 0 871 253" style="enable-background:new 0 0 871 253;" xml:space="preserve">
<style type="text/css">
	.st0{fill:none;}
	.st1{fill:#9CBBFF;}
	.st2{font-family:'OpenSans-Bold';}
	.st3{font-size:130px;}
	.st4{letter-spacing:5;}
	.st5{fill:#517CF4;}
	.st6{font-size:120px;}
	.st7{letter-spacing:6;}
	.st8{fill:none;stroke:#000000;stroke-miterlimit:10;}
</style>
<rect x="20" y="14.7" class="st0" width="341" height="141.3"/>
<text transform="matrix(1 0 0 1 20 113.4966)" class="st1 st2 st3 st4">CSS</text>
<rect x="15" y="144.2" class="st0" width="874" height="121.8"/>
<text transform="matrix(1 0 0 1 15 235.4092)" class="st5 st2 st6 st7">ANIMATIONS</text>
<rect x="32.3" y="20.9" class="st0" width="341" height="141.3"/>
<text transform="matrix(1 0 0 1 32.3462 119.6799)" class="st8 st2 st3 st4">CSS</text>
<rect x="22.5" y="149.4" class="st0" width="874" height="121.8"/>
<text transform="matrix(1 0 0 1 22.5125 240.5527)" class="st8 st2 st6 st7">ANIMATIONS</text>
<g>
	<path d="M354.4,52c-11.7,0-22.7,6-28.9,15.9h-7.3c-2.1,0-4.1,0.9-5.5,2.4l-7.2,7.8c-0.3,0.3-0.3,0.7-0.1,1c0.2,0.3,0.6,0.5,0.9,0.4
		l8.4-2.3c0.2-0.1,0.5,0,0.7,0.1l2.8,2l-2,3.1c-0.2,0.3-0.2,0.8,0.1,1l0.9,0.9l-5.6,2.8l-0.1,0.1l0,0c-3.9,2.8-6.2,7.3-6.2,12v2
		c0,0.5,0.4,0.8,0.8,0.8h2c4.8,0,9.3-2.3,12-6.2l0,0l0.1-0.1l2.8-5.6l0.8,0.9c0.3,0.3,0.7,0.3,1,0.1l3.2-1.9l1.9,2.7
		c0.1,0.2,0.2,0.5,0.1,0.7l-2.3,8.4c-0.1,0.4,0.1,0.7,0.4,0.9c0.3,0.2,0.7,0.2,1-0.1l7.8-7.2c1.5-1.4,2.4-3.4,2.4-5.5v-6.6
		c9.9-6.3,15.8-17.2,15.9-28.9v-0.8C355.2,52.4,354.9,52,354.4,52z M316.3,76c-0.6-0.4-1.4-0.6-2.1-0.4l-5.6,1.5l5.2-5.7
		c1.1-1.2,2.7-1.9,4.3-1.9h6.3l-5.4,8.4L316.3,76z M308,100.4h-1.2v-1.2c0-4,1.8-7.8,4.9-10.2l1.2,1.2c-1.2,1.1-2,2.8-2,4.5v0.8
		c0,0.5,0.4,0.8,0.8,0.8h0.8c1.7,0,3.3-0.7,4.5-2l1.2,1.2C315.8,98.6,312,100.4,308,100.4z M314.2,91.4l1.7,1.7
		c-0.8,0.9-2,1.4-3.2,1.5C312.7,93.3,313.2,92.2,314.2,91.4z M319.1,94l-5.9-5.9l1.8-0.9l5,5L319.1,94z M320.8,90.6l-4.2-4.2
		l1.8-0.9l3.3,3.3L320.8,90.6z M337.7,89.1c0,1.6-0.7,3.2-1.9,4.3l-5.7,5.2l1.5-5.6c0.2-0.7,0.1-1.5-0.4-2.1l-1.8-2.5l8.3-4.8V89.1z
		 M338.1,81.4L338.1,81.4l-0.1,0.1c-0.2,0.1-0.4,0.3-0.6,0.4l-9.5,5.6l-3.3,1.9l-5.4-5.4l-1.2-1.2l5-7.8l3.7-5.8l0.2-0.4
		c3.5-5.6,8.7-9.9,14.8-12.5l9.6,9.6C348.6,72.2,344,77.7,338.1,81.4z M351.8,64.1l-8.5-8.5c3.3-1.2,6.7-1.8,10.2-1.9
		C353.6,57.2,353,60.7,351.8,64.1z"/>
	<path d="M328.3,69.6l-0.7,1.1l1.4,0.9l0.7-1.1c0.1-0.2,0.3-0.4,0.4-0.6l-1.4-0.9C328.5,69.2,328.4,69.4,328.3,69.6z"/>
	<path d="M321.2,80.8l5.3-8.4l1.4,0.9l-5.3,8.4L321.2,80.8z"/>
	<path d="M331.9,68.7c0,3.7,3,6.7,6.7,6.7s6.7-3,6.7-6.7s-3-6.7-6.7-6.7C334.9,62,331.9,65,331.9,68.7z M343.6,68.7c0,2.8-2.2,5-5,5
		s-5-2.2-5-5s2.2-5,5-5C341.3,63.7,343.6,65.9,343.6,68.7z"/>
	<path d="M335.2,68.7h1.7c0-0.9,0.7-1.7,1.7-1.7v-1.7C336.7,65.3,335.2,66.8,335.2,68.7z"/>
	<path d="M327.7,57v-1.7h1.7v-1.7h-1.7V52H326v1.7h-1.7v1.7h1.7V57H327.7z"/>
	<path d="M314.4,59.5h1.7v1.7h-1.7V59.5z"/>
	<path d="M353.6,78.7h-1.7v1.7h-1.7V82h1.7v1.7h1.7V82h1.7v-1.7h-1.7V78.7z"/>
	<path d="M342.7,94.6v1.7H341V98h1.7v1.7h1.7V98h1.7v-1.7h-1.7v-1.7H342.7z"/>
	<path d="M345.2,85.4h1.7V87h-1.7V85.4z"/>
	<path d="M308.5,64.5h1.7v1.7h-1.7V64.5z"/>
</g>
</svg>
