<?xml version="1.0" encoding="utf-8"?>
<!-- Generator: Adobe Illustrator 23.1.1, SVG Export Plug-In . SVG Version: 6.00 Build 0)  -->
<svg version="1.1" id="Layer_1" xmlns="http://www.w3.org/2000/svg" xmlns:xlink="http://www.w3.org/1999/xlink" x="0px" y="0px"
	 viewBox="0 0 907 348" style="enable-background:new 0 0 907 348;" xml:space="preserve">
<style type="text/css">
	.st0{fill:none;}
	.st1{fill:#FFD0AE;}
	.st2{font-family:'OpenSans-Bold';}
	.st3{font-size:170px;}
	.st4{font-size:160px;}
	.st5{letter-spacing:8;}
	.st6{fill-opacity:0.65;}
	.st7{fill:none;stroke:#000000;stroke-miterlimit:10;}
</style>
<rect x="27" y="-53" class="st0" width="223.5" height="395.4"/>
<text transform="matrix(4.489659e-11 -1 1 4.489659e-11 156.2416 342.4473)" class="st1 st2 st3">THE</text>
<rect x="187" y="24.7" class="st0" width="709.8" height="215"/>
<text transform="matrix(1 0 0 1 187 146.2964)" class="st1 st2 st4 st5">FLOWER</text>
<rect x="410" y="190.2" class="st0" width="486.5" height="157.8"/>
<text transform="matrix(1 0 0 1 410 311.8086)" class="st1 st2 st4 st5">SHOP</text>
<path id="path4186" class="st6" d="M442.7,115.7c0,0-0.2-0.1-0.5-0.2c-0.7-0.2-2.3-0.8-2.9-1.1c-1.3-0.7-3.6-1.2-4.6-1.1
	c-0.3,0-0.7,0.1-0.9,0.2c-0.6,0.2-1.3,0.1-1.4-0.2c-0.1-0.2-0.1-0.2,0.1-0.2c0.6,0,1.3-0.2,1.9-0.6c0.3-0.2,0.8-0.4,0.9-0.5l0.3-0.1
	l-0.8-0.3c-0.5-0.2-1.2-0.5-1.6-0.7c-1.6-0.7-2.6-1.1-3.1-1c-0.4,0.1-0.9,0.4-1.4,0.8c-0.2,0.2-0.3,0.3-0.4,0.3
	c-0.1,0-0.1,0.4-0.2,1.2c0,0.7,0,0.8-0.4,1.5c-0.4,0.7-1.2,1.8-1.8,2.5c-0.4,0.4-0.9,0.6-2.3,1.1c-1.4,0.5-1.6,0.5-1.5-0.1
	c0-0.2,0-0.4,0-0.6s0-0.2,0-0.3c0,0,0-0.1,0-0.2s0-0.2,0-0.3s0.1-0.3,0.1-0.4c-0.1-0.2,0.3-1.4,0.4-1.5c0.1,0,0.1-0.1,0.1-0.2
	c0-0.1,0.4-0.8,0.9-1.4c0.2-0.2,0.3-0.5,0.3-0.5c0-0.1,0.4-0.5,0.9-0.8c0.6-0.3,1.8-0.6,2.5-0.6l0.5,0l0.4-0.3
	c0.2-0.2,0.6-0.5,0.8-0.6c0.3-0.1,0.5-0.3,0.4-0.3c0-0.1-2.9-1.5-3.4-1.7c-0.3-0.1-0.6-0.2-0.7-0.3c-0.6-0.3-1.1-0.3-2.2,0.2
	c-0.6,0.3-0.6,0.3-0.5,0.5c0.1,0.7-0.2,2.1-0.5,2.2c-0.1,0-0.3,0.2-0.4,0.4c-0.1,0.2-0.3,0.4-0.5,0.5c-0.1,0-0.5,0.3-0.8,0.6
	c-0.5,0.5-0.6,0.5-0.8,0.5c-0.2,0-0.3,0-0.6,0.2c-0.2,0.1-0.7,0.4-1.1,0.5c-0.4,0.1-0.9,0.3-1.1,0.4c-0.4,0.2-0.4,0.2-0.3-0.4
	c0-0.2,0-0.5,0-0.5c-0.1-0.1-0.1-0.2,0-0.3c0-0.1,0.1-0.3,0-0.4c-0.1-0.3,0.3-1.4,0.8-2c0.1-0.2,0.4-0.6,0.6-0.9
	c0.4-0.7,0.6-0.9,1.3-1.3c1-0.6,2.1-0.7,2.8-0.4c0.3,0.1,0.3,0.1,0.9-0.2l0.6-0.3l-0.3-0.1c-0.2,0-0.5-0.2-0.8-0.3l-0.5-0.2
	l-0.3,0.3c-0.4,0.4-1.3,0.7-1.9,0.6c-0.2,0-0.4-0.1-0.5-0.1c0,0-0.2,0-0.3,0c-0.2,0.1-0.4,0-0.8-0.3c-0.3-0.2-0.6-0.4-0.6-0.4
	c0-0.1-1.2-1.1-1.3-1.1c-0.2,0.1-0.8-0.3-1-0.7c-0.4-0.6-0.8-1.8-0.8-2.3c0-0.5,0-0.7,0.4-1.2c0.1-0.2,0.3-0.5,0.5-0.8
	c0.4-0.7,0.3-1.1-0.2-1.7c-0.2-0.2-0.6-0.5-0.9-0.7c-0.7-0.4-1.2-0.9-1.6-1.6c-0.4-0.7-0.4-0.9-0.4-2.1c0-1,0.1-1.6,0.3-2
	c0.1-0.2,0.1-0.3,0.1-0.4c-0.1-0.2-0.1-0.8,0.1-1.5c0.1-0.4,0.2-0.7,0.2-0.9c0-0.1,0.1-0.4,0.1-0.5c0-0.1,0.1-0.5,0.2-0.7
	c0.2-0.6,0.8-1.9,1-1.9c0.1,0,0.2-0.1,0.1-0.1c-0.1-0.2,0.2-0.6,0.6-0.9c0.4-0.3,0.5-0.3,1.1-0.4c0.4-0.1,0.8-0.1,0.9,0
	c0.1,0,0.4,0.3,0.6,0.5c0.4,0.4,1.1,1.6,1.4,2.2c0.1,0.2,0.1,0.2,0.2-0.2c0.2-1.2,0.7-2.7,1.2-3.2c0.3-0.4,0.3-0.5-0.3-1.1
	c-0.2-0.2-0.4-0.5-0.4-0.5s-0.1-0.1-0.2-0.1c-0.3,0.1-0.9-0.3-1.5-0.9c-0.1-0.1-0.3-0.4-0.5-0.5c-0.1-0.1-0.3-0.4-0.4-0.6
	c-0.1-0.2-0.2-0.4-0.3-0.4c-0.1,0-0.1-0.2-0.2-0.4c-0.1-0.4-0.4-0.7-1-1.2c-0.2-0.2-0.3-0.2-0.5-0.1c-0.5,0.3-1.2,0-1.4-0.5
	c0-0.2-0.1-0.2-0.5-0.2c-0.6,0-1-0.1-1.4-0.4c-0.5-0.4-0.7-0.8-1.1-2c-0.2-0.6-0.4-1.2-0.5-1.3c-0.2-0.2-0.1-0.5,0.2-0.5
	c0.1,0,0.4,0,0.7,0.1c0.3,0.1,0.6,0.2,0.7,0.2c0.2,0,0.3,0,1.2,0.3l0.5,0.1l-0.1-0.4c-0.1-0.6-0.1-1,0-1.8c0.1-0.4,0.1-0.9,0.1-1
	c0-0.7,0.4-0.9,1-0.5c0.2,0.2,0.8,0.6,1.2,0.8c0.9,0.6,1.3,1.1,1.5,1.7c0.2,0.5,0.1,0.8-0.1,1.2c-0.2,0.3-0.2,0.4,0,0.4
	c0.1,0,0.4,0.6,0.4,0.9c0,0.2,0,0.4-0.1,0.6c-0.1,0.2-0.1,0.4-0.1,0.4s0.3,0,0.6,0c0.3,0,0.6,0,0.7,0.1c0.2,0.1,0.2,0,0.2-0.5
	c0-0.3,0-0.7,0-0.9c0-0.2,0-0.4-0.1-0.4c-0.4-0.2-0.6-1.4-0.4-1.8c0.1-0.2,0.1-0.2-0.2-0.4c-0.3-0.2-0.7-0.7-0.8-1.2
	c-0.1-0.4,0-1.3,0.2-1.7c0.1-0.2,0.4-0.7,0.7-1s0.6-0.7,0.6-0.8c0.4-0.8,0.4-0.8,0.5-0.7c0.1,0.1,0.2,0.2,0.2,0.5
	c0.1,0.5,0.6,1.4,0.9,1.8c0.2,0.2,0.3,0.4,0.5,1c0.2,0.7,0.2,0.8,0.1,1.2c-0.1,0.2-0.1,0.4,0,0.3c0.1-0.1,0.9,0,0.9,0.1
	c0,0,0.3,0.2,0.6,0.4s0.6,0.4,0.6,0.4c0,0,0.3,0.3,0.6,0.5s0.7,0.6,0.8,0.8s0.3,0.5,0.5,0.7c0.3,0.5,0.8,1.9,0.7,2
	c-0.1,0.1,0,0.5,0.3,0.7c0.1,0.1,0.3,0.2,0.3,0.2c0.1,0,0.4-1.3,0.5-1.7c0-0.2,0.1-0.4,0.1-0.5c0-0.1,0.1-0.6,0.2-1.2
	s0.2-1.1,0.2-1.2c0.1-0.3,0.1-0.8,0.1-1.3c0-0.4-0.1-0.6-0.6-1.2c-0.2-0.2-0.3-0.3-0.4-0.2c-0.1,0.1-0.2,0.2-0.2,0.2
	c-0.1,0.1-0.9,0.4-1.4,0.4c-0.6,0-1.8-0.4-1.8-0.7c0-0.1-0.1-0.2-0.3-0.4c-0.2-0.1-0.4-0.3-0.5-0.4c-0.1-0.1-0.3-0.3-0.5-0.4
	c-0.2-0.1-0.5-0.3-0.5-0.5s-0.2-0.3-0.3-0.4c-0.3-0.3-0.5-0.6-0.6-1.3c-0.1-0.3-0.3-0.9-0.6-1.4c-0.2-0.4-0.4-0.8-0.4-0.9
	c0-0.1,0.6-0.2,0.8-0.1c0.1,0,0.2,0,0.2,0c0,0,0.1,0,0.2,0c0.1,0.1,0.2,0.1,0.2,0c0.1-0.1,0.6-0.2,0.9-0.1c0.1,0,0.5,0,0.8,0
	c0.4,0,0.7,0,1,0.2c0.8,0.3,1.7,0.8,1.7,0.8c0,0,0.3,0.3,0.7,0.7c0.6,0.5,0.7,0.7,0.9,1.2c0.1,0.3,0.3,0.7,0.3,0.7
	c0.1,0.5,0.1,0.6,0,1.1l-0.2,0.5l0.4,0.4c0.2,0.2,0.4,0.4,0.5,0.4c0,0,0.1-0.2,0.2-0.5c0.1-0.3,0.3-0.9,0.5-1.4
	c0.2-0.5,0.4-1,0.4-1.2c0-0.1,0.1-0.4,0.2-0.7c0.2-0.6,0.2-0.7-0.4-1.7c-0.5-0.9-0.8-1.9-0.6-2.5c0.1-0.4,0.4-0.9,0.5-0.9
	c0,0,0.1-0.1,0.1-0.2c0-0.3,1.3-2.7,1.4-2.8c0.1,0,0.3-0.3,0.6-0.5c0.2-0.3,0.6-0.6,0.9-0.7c0.5-0.3,1.1-0.7,1.2-0.9
	c0.1-0.2,0.2-0.1,0.2,0.2c0,0.1,0.1,0.6,0.2,1.1c0.4,1.1,0.5,2.2,0.5,2.8c0,0.3-0.1,0.8-0.1,1.3c0,0.9-0.1,1.3-0.7,2.1
	c-0.6,0.9-1.3,1.6-2.1,1.9c-0.4,0.2-0.8,0.4-0.9,0.5c-0.2,0.2-0.2,0.2-0.7,1.8c-0.2,0.6-0.4,1.4-0.5,1.7c-0.2,0.7-0.2,0.8,0.3,0.7
	c0.3-0.1,0.6-0.5,0.9-1.1c0.2-0.6,0.7-1.4,0.9-1.4c0.1,0,0.3-0.2,0.5-0.4c0.4-0.3,0.5-0.4,1.7-0.8c0.9-0.3,1.5-0.5,1.9-0.5
	c0.3,0,0.8-0.1,1.2-0.2c0.8-0.2,1.8,0,2.5,0.3c0.3,0.1,0.5,0.3,0.6,0.2c0.1,0,0.2,0.1,0.4,0.2c0.2,0.1,0.3,0.3,0.4,0.3
	c0.2,0.1,0.2,0.3-0.2,0.5c-0.2,0.1-0.4,0.4-0.7,0.9c-0.4,0.7-0.5,0.9-1.6,1.5c-0.3,0.2-0.8,0.5-1,0.6c-0.8,0.5-3.3,1.1-4.3,1.1
	c-0.3,0-0.6,0-0.6-0.1c0,0-0.3-0.2-0.6-0.3c-0.3-0.1-0.8-0.3-0.9-0.4c-0.3-0.2-0.4-0.2-0.7,0c-0.8,0.4-1.2,1.1-1.5,2.6
	c-0.1,0.4-0.3,1.3-0.4,2.1s-0.3,1.5-0.3,1.5c0,0,0.3,0,0.7-0.1l0.6-0.1l0.1-0.4c0.1-0.7,0.8-1.5,1.6-2.1c0.4-0.2,0.7-0.4,1.5-0.6
	c1.2-0.4,3.8-0.9,4-0.9c0.1,0,0.3,0,0.5,0c0.6,0,1.2,0.1,1.4,0.3c0.1,0.1,0.2,0.1,0.3,0.1s0.2,0,0.3,0.1c0.1,0.1,0.5,0.2,0.9,0.4
	c0.3,0.2,0.6,0.3,0.7,0.4c0,0.1-0.1,0.2-0.3,0.3c-0.2,0.1-0.5,0.4-0.7,0.6c-0.6,0.7-0.6,0.8-0.8,0.9c-0.1,0.1-0.2,0.2-0.3,0.3
	c-0.1,0.1-0.3,0.2-0.4,0.4c-1.9,1.1-1.7,1-3.1,1.4c-0.7,0.2-1.5,0.4-1.8,0.4c-0.7,0.2-2,0.1-2.6-0.2c-0.2-0.1-0.5-0.4-0.7-0.6
	l-0.3-0.4l-0.4,0.2c-0.9,0.4-1,0.5-1.3,1.2c-0.3,0.7-0.3,1-0.2,1.1c0,0,0.3,0,0.7,0c0.4,0,0.7-0.1,1.1-0.2c0.7-0.3,1.1-0.3,1.7-0.1
	c0.8,0.3,1.2,0.5,1.3,0.9l0.1,0.2l0.4-0.3c0.3-0.2,0.5-0.3,1.1-0.4c1-0.1,1.6,0,2.7,0.5c0.9,0.4,1.7,1.1,1.8,1.5
	c0.1,0.2,0.4,0.4,0.6,0.3c0.2,0,0.9,0,1.1,0.1c0.1,0,0.4,0.1,0.6,0.2c0.4,0.2,0.5,0.3,0.4,0.8c-0.1,0.3,0.3,1.6,0.7,2.4
	c0.2,0.4,0.3,0.5,0.7,0.7c0.3,0.1,0.5,0.3,0.5,0.3c0,0,0.2,0.2,0.3,0.3c0.5,0.3,0.6,0.4,0.6,0.4c0,0,0.1,0.1,0.2,0.2
	c0.2,0.1,0.6,1,0.6,1.6c0,0.3,0,0.7-0.1,0.9c-0.1,0.3-0.1,0.5,0,0.6c0.2,0.3,0.3,0.1,0.4-0.5c0-0.3,0.1-0.7,0.2-0.9
	c0.1-0.7,0.4-2,0.4-2.1c0-0.1,0-0.3,0.1-0.5c0-0.4,0-0.4-0.3-0.7c-0.8-0.9-1-1.3-1.2-2.2c-0.1-0.6-0.2-0.9-0.1-1
	c0-0.1,0.1-0.2,0.1-0.2c0-0.1,0-0.3,0.1-0.4c0.1-0.2,0.2-0.4,0.2-0.6c0-0.2,0.1-0.4,0.2-0.6c0.1-0.2,0.2-0.5,0.3-0.7
	c0.1-0.2,0.2-0.4,0.2-0.4c0.1,0,0.2-0.4,0.4-0.9c0-0.1,0.1-0.1,0.1-0.1c0.1,0.1,0.1,0,0.2-0.2c0.1-0.2,0.2-0.3,0.3-0.4
	c0.1,0,0.2-0.2,0.3-0.4s0.2-0.3,0.3-0.3c0.1,0,0.2-0.1,0.2-0.3c0.1-0.2,0.2-0.3,0.2-0.3s0.1,0.1,0.2,0.3c0.1,0.2,0.3,0.4,0.4,0.5
	c0.1,0.1,0.3,0.4,0.5,0.7c0.1,0.3,0.4,0.7,0.5,0.9c0.3,0.5,0.7,2.1,0.6,2.6c0,0.2,0,0.5,0,0.7c0.1,0.7-0.4,1.9-1.1,2.5
	c-0.2,0.2-0.7,0.6-1,0.7c-0.6,0.4-1,0.6-1,0.7c0,0-0.1,0.8-0.2,1.6c-0.3,1.8-0.3,2.5-0.2,2.5c0.2,0,0.4-0.4,0.5-0.7
	c0.1-0.4,0.5-1.1,1-1.6l0.4-0.4l1.3-0.4c0.7-0.2,1.4-0.4,1.6-0.4s0.3,0,0.5-0.1c0.2-0.1,1.8,0.1,1.9,0.2c0,0,0.1,0.1,0.3,0.1
	c0.4,0.1,1.1,0.4,1.1,0.5c0,0.1-0.1,0.2-0.3,0.3c-0.2,0.1-0.3,0.3-0.3,0.4c0,0.2-0.4,0.7-1,1.3c-0.3,0.2-1.1,0.6-2.6,1.2
	c-0.9,0.3-0.9,0.3-1.4,0.2c-0.3-0.1-0.6-0.1-0.8,0c-0.3,0.1-0.4,0.1-1-0.2c-0.4-0.2-0.7-0.3-0.8-0.3c-0.6,0.2-1,1.2-1.2,2.8
	c0,0.4-0.2,1.5-0.3,2.4c-0.2,1.5-0.2,1.6,0,1.5c0.1-0.1,0.3-0.2,0.4-0.2c0.1-0.1,0.2-0.3,0.3-0.7c0.1-0.3,0.2-0.8,0.4-1.1
	c0.3-0.5,1-1.3,1.2-1.2c0,0,0.2,0,0.4-0.2c0.2-0.1,0.3-0.2,0.4-0.1c0,0,0.3,0,0.6-0.1c0.5-0.2,1.7-0.4,2.4-0.5
	c0.2,0,0.5-0.1,0.8-0.1c0.5-0.1,1.3,0.1,1.6,0.3c0.1,0.1,0.3,0.2,0.5,0.2c0.1,0,0.4,0.1,0.5,0.2c0.2,0.1,0.4,0.2,0.6,0.2
	c0.3,0.1,0.4,0.2,0.2,0.3c-0.1,0-0.3,0.3-0.5,0.7c-0.2,0.4-0.5,0.7-0.6,0.8c-0.1,0.1-0.4,0.3-0.6,0.5s-0.5,0.4-0.6,0.4
	c-0.1,0-0.4,0.2-0.5,0.4c-0.6,0.5-1.4,0.9-2.2,1.1c-0.4,0.1-1,0.2-1.3,0.3c-0.8,0.2-1.1,0.1-2.2-0.5l-0.9-0.5l-0.3,0.3
	c-0.6,0.5-1.1,1.7-1.1,2.8c0,0.4-0.1,1.1-0.2,1.5c-0.1,0.4-0.1,0.8-0.1,0.8c0,0,0.1-0.2,0.3-0.4c0.1-0.2,0.3-0.4,0.3-0.4
	c0.1,0,0.1-0.1,0.1-0.1c0-0.1,0.9-1.1,0.9-1.2c0.1,0,0.1,0.2-0.1,0.8c-0.5,1.4-0.6,1.7-0.6,1.8c0,0-0.1,0.7-0.2,1.4
	c-0.1,0.7-0.2,1.5-0.1,1.7s0,0.7,0,1.1c0,0.4,0.1,0.9,0.2,1.1s0.1,0.7,0.1,0.9c0,0.6,0.1,1.5,0.2,2.8c0.1,1.1,0.1,1.5-0.1,1.4
	c-0.1,0-0.5-0.8-0.8-1.8c-0.2-0.4-0.4-1.1-0.6-1.5c-0.2-0.4-0.4-0.9-0.5-1.1c-0.2-0.5-0.3-0.5-0.4-0.3c-0.1,0.2,0.4,1.2,0.5,1.3
	c0.1,0,0.1,0,0.1,0.1c0,0.1,0,0.4,0.1,0.8c0.1,0.4,0.1,0.6,0,0.5c-0.1-0.1-0.2-0.2-0.3-0.3s-0.3-0.5-0.6-0.9
	c-0.3-0.4-0.6-1.1-0.9-1.4c-0.2-0.3-0.4-0.7-0.5-0.8c-0.1-0.4-0.7-1.2-0.9-1.1c-0.3,0.2-0.8-0.2-1.3-1.3c-0.3-0.6-0.3-0.7-0.1-0.8
	c0.1,0,0.1-0.1,0-0.2c-0.1-0.1-0.3-0.5-0.7-1c-0.3-0.5-0.6-0.9-0.6-0.9c0,0,0,0.2,0.2,0.5c0.2,0.5,0.2,0.5,0.1,0.6
	c-0.1,0.1-0.2,0.1-0.3,0.1c-0.1,0-0.1,0.1,0.3,0.8c0.2,0.3,0.5,0.7,0.5,0.8s0.4,0.6,0.7,1.1s0.7,1.1,0.9,1.4s0.7,0.9,1,1.4
	c0.6,0.8,0.8,1.1,1.2,2c0.1,0.3,0.5,0.9,1.2,1.8c0.2,0.3,0.3,0.6,0.1,0.6c0,0,0,0.1,0,0.1c0,0,0.1,0.1,0,0.2c0,0.2,0,0.2,0,0
	c0-0.1-0.1-0.2-0.2-0.2c-0.1,0-0.4-0.2-0.7-0.3c-0.2-0.2-0.5-0.3-0.5-0.2c-0.1,0-0.2,0-0.2-0.1s-0.2-0.1-0.4-0.1
	c-0.4,0-0.5-0.2-0.2-0.2c0.1,0,0-0.1-0.5-0.4c-0.7-0.3-0.8-0.4-1-0.3c-0.2,0.1-0.3,0.1-0.3,0.2c0,0.1,2.9,1.3,3.7,1.5
	c0.2,0.1,0.3,0.1,0.2,0.2C442.8,115.7,442.7,115.8,442.7,115.7L442.7,115.7z M442.9,114.9c-0.1-0.2-2.2-1.4-3.6-1.9
	c-0.2-0.1-0.6-0.3-1.1-0.5c-2-1-2.6-1.3-3.9-1.8c-0.8-0.3-1.9-0.8-2.5-1.1c-1.1-0.5-1.1-0.5-1.6-1.2c-0.5-0.7-0.7-0.8-0.2-0.1
	c0.2,0.2,0.3,0.4,0.3,0.5c0,0.1-0.3,0.1-0.6,0c-0.2-0.1-0.8-0.4-1.5-0.6c-0.7-0.3-1.3-0.5-1.3-0.5c0,0-0.4-0.2-0.9-0.4
	c-0.5-0.2-1-0.5-1.3-0.6c-0.2-0.2-0.5-0.3-0.6-0.3c-0.1,0-0.6-0.1-1.1-0.3c-0.8-0.3-1.6-0.5-1.6-0.4c0,0.1,1.9,0.8,2.2,0.8
	c0.4,0,0.3,0.2-0.3,0.4c-0.3,0.1-0.6,0.3-0.6,0.3c-0.1,0.1,0.2,0,0.6-0.2c0.6-0.2,0.8-0.3,1.1-0.2c0.3,0.1,2.1,0.8,2.6,1.1
	c0.1,0.1,0.6,0.3,1,0.5c0.4,0.2,0.9,0.4,1,0.4c0.1,0.1,0.4,0.2,0.7,0.3l0.5,0.2l-0.6,0.2c-0.5,0.2-1.2,0.7-1.5,1
	c-0.2,0.2-0.1,0.1,0.7-0.4c1-0.7,1.5-0.9,2.2-0.5c0.2,0.1,0.7,0.3,1.3,0.5c0.5,0.2,1.2,0.5,1.6,0.6c0.4,0.1,0.9,0.4,1.2,0.5
	c0.5,0.2,3.2,1.5,5.7,2.8c1.6,0.8,2,1,2,1.1c0,0,0.1,0.1,0.1,0C442.9,115,442.9,115,442.9,114.9L442.9,114.9z M442.4,114.1
	c-0.5-0.5-1.3-1.1-1.3-1c-0.1,0.1,0.3,0.6,0.8,0.8C442.4,114.2,442.6,114.3,442.4,114.1z M443.9,112.4c0-0.5-0.1-0.9-0.2-1l-0.1-0.2
	l-0.1,0.3c-0.1,0.2-0.1,0.4,0.2,1.1C444,113.5,444,113.5,443.9,112.4L443.9,112.4z M441,113.3c-0.1-0.4-0.6-0.7-0.8-0.5
	c-0.1,0.1-0.3,0-0.4-0.3c0-0.1-0.1-0.2-0.1-0.2c0,0-0.1,0-0.2,0c-0.2-0.1-0.3,0.1-0.2,0.3c0.1,0.2,0.3,0.3,0.9,0.6
	c0.5,0.2,0.9,0.4,0.9,0.4C441.2,113.6,441.1,113.5,441,113.3L441,113.3z M441.6,112.7c-0.1-0.2-0.3-0.3-0.3-0.3c0,0-0.1-0.2-0.2-0.4
	c-0.1-0.3-0.3-0.7-0.8-1.2c-0.4-0.4-0.8-1.1-1.1-1.4c-0.2-0.4-0.6-1-0.9-1.3c-0.2-0.4-0.6-1-0.9-1.4c-0.2-0.4-0.6-0.9-0.7-1.1
	c-0.3-0.5-0.4-0.4-0.2,0.5c0.2,0.9,0.1,1.1-0.2,0.6c-0.3-0.3-0.8-1.7-0.8-2.4c0-0.5,0-0.5-0.4-1c-0.4-0.5-0.5-0.5-0.7-0.5
	c-0.5,0.1-0.9,0.2-1.3,0.5c-0.4,0.4-1.1,0.7-1.6,0.6c-0.2,0-0.5,0-0.7,0l-0.3,0.1l0.2,0.7c0.2,0.5,0.2,0.8,0.2,1
	c-0.1,0.4-0.5,1.3-0.9,1.6c-0.1,0.1-0.2,0.2-0.2,0.2c0,0.1,0.8,1.3,0.9,1.4c0.3,0.2,2.2,1,2.9,1.3c0.2,0.1,0.7,0.3,1.1,0.5l0.7,0.3
	l-0.2-0.4c-0.2-0.5-0.9-1.2-1.3-1.4c-0.6-0.2-0.5-0.4,0.2-0.3c0.5,0.1,0.6,0.1,1.3,0.7c0.5,0.4,1,0.8,2.4,1.5c1,0.5,1.8,0.9,1.8,0.9
	s0.2,0.1,0.3,0.2c0.1,0.1,0.5,0.3,0.8,0.5c0.3,0.2,0.6,0.4,0.8,0.5C441.9,113.4,441.9,113.2,441.6,112.7L441.6,112.7z M439.3,113.4
	c-1.8-0.9-2-0.9-2.4-0.5c-0.2,0.2-0.3,0.1-0.2,0c0.1-0.1,0-0.1-0.5-0.1c-0.2,0-0.4,0-0.4-0.1c-0.1-0.1-0.1-0.1,0-0.1
	c0.2,0,0.6,0,1.3-0.1l0.3,0l-0.7-0.3c-0.6-0.3-0.7-0.3-0.9-0.2c-0.3,0.1-1.3,0.7-1.9,1l-0.4,0.2l0.4-0.1c0.8-0.2,1.7-0.2,3,0.2
	c0.3,0.1,0.8,0.2,1.2,0.3l0.6,0.1l-0.1-0.2c-0.1-0.2-0.1-0.2,0.1-0.1c0.1,0.1,0.2,0.2,0.2,0.2c0,0,0.1,0,0.1,0
	C439.1,113.4,439.2,113.4,439.3,113.4c-0.1,0.1,0,0.1,0.1,0.1C439.4,113.5,439.4,113.5,439.3,113.4z M438.9,112.2
	c-0.1-0.2-0.4-0.4-0.6-0.5c-0.2-0.1-0.3-0.2-0.4-0.3c0-0.1-0.4-0.3-0.9-0.6c-0.5-0.3-1.1-0.6-1.3-0.8l-0.4-0.3l0.2,0.4
	c0.2,0.5,0.6,1,1.1,1.2c0.2,0.1,0.3,0.1,0.2,0c-0.1-0.1-0.1-0.2-0.1-0.2c0,0-0.2-0.2-0.4-0.4c-0.2-0.2-0.4-0.3-0.4-0.3
	c0.1,0,0.8,0.3,0.8,0.5c0,0.1,0.1,0.1,0.1,0c0.1,0,0.1,0,0.1,0c0,0.1,0,0.1-0.1,0.1c-0.2,0.1,0.4,0.5,1.2,1c0.5,0.3,0.9,0.5,0.9,0.5
	C439.2,112.6,439.1,112.4,438.9,112.2L438.9,112.2z M443.4,110.9c-0.1-0.2-0.1-0.2-0.1-0.1c0,0.1,0,0.2,0,0.2
	C443.5,111.2,443.5,111.2,443.4,110.9z M443.8,110.7c0,0-0.1-0.3-0.1-0.5s-0.1-0.7-0.2-1c-0.1-0.3-0.2-0.6-0.1-0.7s0-0.4,0-0.8
	c-0.1-0.4-0.1-0.9,0-1.2c0.1-0.4,0-0.5,0-0.4c-0.3,0.3-0.4,0.6-0.4,1c0,0.3-0.1,0.6-0.1,0.7c0,0.3,0,1,0.2,1.2
	c0.1,0.1,0.1,0.2,0,0.3c-0.1,0.1,0,0.3,0.4,1c0.3,0.6,0.5,0.8,0.5,0.7C443.9,110.8,443.8,110.8,443.8,110.7L443.8,110.7z
	 M423.8,116.9c0.7-0.2,1.2-0.4,1.1-0.5c0,0,0-0.2,0-0.3s0.1-0.5,0-0.7c0-0.2,0-0.6,0-0.8c0-0.3,0-0.3-0.1-0.2
	c-0.1,0.1-0.2,0.2-0.3,0.4c-0.1,0.1-0.3,0.3-0.3,0.4c-0.1,0.1-0.1,0.2-0.1,0.2c0,0.1,0,0.1,0,0.2c0,0-0.1,0.3-0.1,0.6
	c0,0.3,0,0.6,0,0.7c-0.1,0.2-0.2,0.1-0.2-0.2c0-0.2,0-0.5,0-0.7c0-0.4,0-0.4-0.4,0.2c-0.1,0.2-0.4,0.5-0.6,0.7
	c-0.4,0.4-0.5,0.6-0.2,0.5c0.1,0,0.2,0,0.2,0c0,0.1,0.1,0,0.2,0C423,117.2,423.4,117,423.8,116.9L423.8,116.9z M439.1,112
	c-0.1-0.1-0.2-0.1-0.2-0.1c0,0.1,0.3,0.3,0.4,0.3C439.3,112.1,439.2,112,439.1,112L439.1,112z M442.6,109.4
	c-0.1-0.2-0.1-0.4-0.1-0.4c0-0.1,0-0.3,0-0.5c-0.1-0.4-0.1-2.9,0-3.1c0-0.1,0-0.3,0-0.5c0-0.2,0.1-0.9,0.2-1.5s0.1-1.2,0.1-1.2
	c0,0,0-0.1,0-0.2c0.1-0.2,0.1-0.6,0.2-1.3c0-0.7,0.2-1.2,0.4-1.4c0.4-0.4,0.9-1.1,0.8-1.1c-0.1,0-0.6,0.5-0.6,0.5c0,0,0,0.1-0.1,0.1
	c-0.2,0.1-0.2-0.1,0-2.1c0.2-1.7,0.3-2.4,0.4-3c0-0.6,0.5-2.2,0.6-2.3c0,0,0.1-0.3,0.1-0.6s0.1-1.1,0.2-1.7c0.2-1.4,0.2-1.4,0.1-1.4
	c0,0-0.2,0.7-0.3,1.6c-0.2,1.3-0.4,1.9-0.5,1.9c0,0-0.1,0-0.2-0.1c-0.2-0.1-0.2,0,0,0.4c0.1,0.4,0.1,0.7,0,1.4
	c-0.1,0.5-0.1,1.1-0.2,1.2s-0.1,0.5-0.1,0.7s-0.1,0.5-0.1,0.6c0,0.1-0.1,0.7-0.1,1.3c-0.1,1.5-0.2,2.4-0.3,2.4c0,0,0,0.2,0,0.3
	c0,0.2,0,0.4-0.1,0.5c-0.1,0.1-0.1,0.3-0.1,0.4c0,0.1,0,0.5-0.1,0.8c-0.2,0.8-0.2,0.8-0.2,1.3c0,0.2-0.1,0.7-0.1,0.9s-0.1,0.7,0,0.9
	s0,0.9,0,1.5c-0.1,2.4,0,3.7,0.3,4.4l0.2,0.5l-0.1-0.6C442.8,110,442.7,109.6,442.6,109.4z M425.9,115.8c0.7-0.7,1.1-1.3,1.5-2.1
	c0.4-0.8,0.4-0.9,0.5-2.1l0-0.6l-0.2,0.1c-0.4,0.2-0.7,0.6-0.8,0.9c0,0.1,0,0.4,0.1,0.6c0.2,0.7,0.2,1.2-0.1,1.6
	c-0.3,0.5-0.4,0.5-0.2,0c0.2-0.4,0.2-0.9,0-1.7l-0.1-0.5l-0.3,0.3c-0.7,0.8-1.1,1.5-1.2,1.9c0,0.1,0,0.6,0,0.9c0,0.4,0,0.8-0.1,0.9
	s-0.1,0.2-0.1,0.2C425,116.5,425.5,116.2,425.9,115.8z M422.8,116.3c0.5-0.6,0.5-0.8,0-0.6c-0.4,0.2-0.6,0.5-0.6,0.8
	c0,0.1,0,0.3,0,0.4c0,0.2,0,0.4,0,0.2C422.3,116.9,422.6,116.6,422.8,116.3L422.8,116.3z M423.1,115.5c0.4-0.1,0.5-0.2,0.8-0.5
	c0.1-0.2,0.4-0.5,0.6-0.7c0.2-0.2,0.3-0.3,0.3-0.4c0-0.1-1.7,0.5-1.9,0.6c-0.2,0.1-0.2,0.1-0.1-0.1c0.1-0.2,0.5-0.4,2.1-0.9
	c0.2-0.1,0.4-0.2,0.6-0.5c0.1-0.2,0.4-0.6,0.6-0.8l0.4-0.4l-0.3,0.1c-0.2,0-0.8,0.2-1.3,0.4c-0.5,0.2-1,0.3-1,0.3
	c0-0.1,0.5-0.3,1.6-0.7c1.1-0.3,1.7-0.7,1.9-1c0.1-0.1,0-0.2-0.4-0.2c-0.8-0.1-2.5,0.5-2.7,1c-0.1,0.1-0.3,0.3-0.4,0.5
	c-0.3,0.3-1,1.3-0.9,1.5c0,0-0.1,0.3-0.2,0.6c-0.2,0.5-0.4,1.3-0.3,1.5c0,0,0.1,0,0.2-0.1C422.5,115.7,422.8,115.6,423.1,115.5
	L423.1,115.5z M441.6,109.7c0-0.1,0-0.4,0-0.6c0-0.3,0-0.8,0-1.2c0-0.4,0-0.8-0.1-0.9c-0.1-0.2,0-0.2,0.1-0.1
	c0.1,0.1,0.2,0.4,0.3,2.6c0,0.2,0,0.2,0.1,0c0-0.1,0.1-0.2,0.1-0.2s0.1-0.1,0-0.3c0-0.2-0.1-0.8-0.1-1.4c-0.1-1.3-0.3-2-0.6-2.3
	c-0.2-0.2-0.2-0.2-0.1-0.4c0.1-0.1,0.1-0.3,0-0.5c-0.1-0.2-0.1-0.3,0-0.1c0.1,0.1,0.1,0.1,0.2,0.1c0.1-0.1,0.1,0,0.1,0.1
	c0,0.3,0.3,1.3,0.5,1.4c0,0,0.1-0.1,0.1-0.2c0-0.1-0.1-0.3-0.1-0.3c0,0-0.1-0.1-0.1-0.3c0-0.4-0.2-1.5-0.4-1.5
	c-0.1,0-0.1-0.1-0.2-0.2c0-0.1-0.1-0.2-0.2-0.2c-0.2-0.1-0.5-0.3-0.6-0.5c-0.1-0.2-0.1,0,0.1,0.6c0.1,0.4,0.3,0.9,0.3,1
	c0,0.1,0.1,0.6,0.2,1.1c0.2,1.1,0.4,2.5,0.3,3.4c0,0.5,0,0.6,0.1,0.7c0.1,0,0.1,0.1,0,0.1c-0.1,0-0.1,0.1-0.1,0.1
	C441.4,109.9,441.6,109.8,441.6,109.7z M441.2,107.9c0-0.1,0-0.2-0.1-0.2c-0.1,0-0.3-0.1-0.4-0.2c-0.4-0.3-0.7-0.4-0.9-0.3
	c-0.1,0.1-0.1,0.4,0.1,0.4c0,0,0.2,0.2,0.3,0.5c0.1,0.3,0.4,0.7,0.6,0.9l0.3,0.4l0-0.7C441.2,108.4,441.2,108,441.2,107.9z
	 M441,105.9c0-0.3-0.3-1.2-0.6-2.1c-0.7-2.1-0.6-2.3,0.2-1.5c0.2,0.2,0.5,0.5,0.5,0.5c0.2,0.1,0.6,0.6,0.9,1.1
	c0.2,0.5,0.2,0.5,0.2,0.3c0-0.2,0-0.5,0.1-0.8s0.1-0.6,0-0.6c0,0,0-0.4,0.1-0.8s0.1-0.7,0.1-0.7c0,0,0-0.3,0.1-0.6
	c0.1-0.6,0.1-1,0-1.6c0-0.3-0.1-0.3-0.1-0.2c-0.1,0.2-0.2,0.2-0.2,0.1c0-0.1-0.1,0-0.4,0c-0.6,0.2-1.1,0.1-1.4-0.2
	c-0.1-0.1-0.2-0.3-0.3-0.2c-0.3,0.1-0.9,0.5-1.3,1l-0.6,0.6l-0.8,0c-0.4,0-0.9,0-1,0c-0.1,0-0.1,0.1-0.1,0.2c0.1,0.3,0,0.7-0.3,1
	l-0.2,0.3l0.3,0.4c0.2,0.2,0.4,0.6,0.6,0.8c0.8,1.3,1.3,2.1,1.7,2.6c0.2,0.3,0.4,0.5,0.5,0.6c0,0.1,0.2,0.2,0.4,0.2
	c0.6,0,1,0.3,1.4,0.7l0.4,0.4l0-0.5C441.1,106.7,441.1,106.2,441,105.9L441,105.9z M439.4,107.7c-0.3-0.1-0.7-0.9-0.6-1.2
	c0-0.1,0-0.2,0-0.2s-0.1,0-0.2,0c-0.1,0-0.1,0,0,0.4c0.3,0.7,0.9,1.4,1,1.2C439.6,107.8,439.5,107.7,439.4,107.7L439.4,107.7z
	 M443,105.4c0.1-0.3,0.1-0.6,0.1-0.6c0-0.1,0-0.1,0.1,0c0.1,0.1,0.1,0,0.2-0.3c0.1-0.4,0.2-0.5,0.3-0.3c0,0,0,0.1-0.1,0.2
	c-0.1,0-0.1,0.1-0.1,0.2c0,0.1,0,0.2-0.1,0.3s-0.1,0.2-0.1,0.3c0,0,0,0.2,0,0.3c0,0.1-0.1,0.3-0.2,0.5l-0.1,0.4l0.2-0.2
	c0.2-0.2,0.2-0.3,0.3-0.6c0-0.2,0.1-0.6,0.1-0.8c0.1-0.3,0.2-0.9,0.3-1.3l0.2-0.8l-0.2,0.2c-0.1,0.1-0.2,0.3-0.3,0.5
	c0,0.1-0.1,0.2-0.1,0.3c0,0-0.2,0.2-0.3,0.3c-0.3,0.3-0.3,0.4-0.4,1.4c0,0.4-0.1,1.5-0.1,1.6c0,0,0.1-0.2,0.1-0.5
	C442.9,106.1,443,105.7,443,105.4L443,105.4z M439.9,106.9l0.2,0l-0.3-0.2c-0.3-0.1-0.8-0.2-0.9-0.1c0,0,0.1,0.2,0.2,0.4
	c0.2,0.3,0.2,0.3,0.4,0.1C439.6,107,439.8,106.9,439.9,106.9L439.9,106.9z M417.6,112.7c0-0.1-0.1-0.2,0-0.4c0.1-0.6,0-0.5-0.4,0.2
	l-0.3,0.6l0.4-0.1C417.6,112.8,417.7,112.8,417.6,112.7L417.6,112.7z M419.6,111.9c0.3-0.1,0.6-0.3,0.8-0.6c0.2-0.2,0.5-0.4,0.6-0.5
	c0.1,0,0.3-0.2,0.4-0.4c0.1-0.2,0.3-0.5,0.5-0.7c0.2-0.4,0.4-1,0.3-1.6c0-0.3-0.1-0.3-0.2-0.2c-0.1,0.1-0.2,0.3-0.2,0.8
	c-0.1,0.7-0.5,1.8-0.8,2c-0.2,0.1-0.2,0.1,0-0.1c0.3-0.5,0.8-2,0.7-2.3c0,0-0.5,0.3-0.6,0.4c0,0-0.3,0.2-0.5,0.4
	c-0.3,0.2-0.7,0.5-0.9,0.7c-0.4,0.4-0.4,0.4-0.4,0.7c0.2,0.6-0.1,1.3-0.5,1.7c-0.1,0.1-0.1,0,0.1-0.4c0.2-0.4,0.3-0.6,0.3-0.9
	c-0.1-0.4-0.1-0.4-0.3-0.3c-0.3,0.3-0.9,1.1-0.9,1.2c0,0.1,0,0.3-0.1,0.4c-0.1,0.4,0,0.5,0.8,0.1C418.9,112.2,419.4,112,419.6,111.9
	z M417.2,111.7c-0.4,0.1-0.6,0.3-0.5,0.6l0.1,0.3l0.3-0.5C417.3,111.8,417.4,111.7,417.2,111.7z M429.7,108.4
	c-0.1-0.1-0.2-0.3-0.3-0.5c-0.1-0.3-0.2-0.4-0.4-0.4c-0.4,0-1.3-0.5-1.6-1c-0.3-0.4-0.6-1.1-0.6-1.7c0-0.2-0.1-0.6-0.1-1
	c0-0.3,0-0.6,0-0.7c0.1-0.1,0.1-0.2-0.1-0.3c-0.1-0.1-0.2-0.2-0.2-0.3c-0.1-0.3-0.5-0.7-0.9-0.9c-0.4-0.2-0.7-0.5-0.8-1
	c-0.1-0.3-0.1-0.3-0.3-0.2c-0.2,0.1-0.2,0.2-0.1,0.2c0.1,0,0.2,0.3,0.3,0.7c0.1,0.4,0.2,0.8,0.2,0.9c0.1,0.2,0.1,0.6,0,0.9
	c-0.1,0.6-0.2,0.9-0.7,1.3c-0.1,0.1-0.2,0.2-0.2,0.2c0.1,0.2,0.8,1.1,1.1,1.3c0.3,0.3,1.3,0.8,1.7,0.9c0.2,0.1,1.8,0.7,2.6,1.1
	c0.4,0.2,0.7,0.3,0.7,0.3C429.8,108.6,429.8,108.5,429.7,108.4L429.7,108.4z M436.2,104.8c0-0.2,0-0.4,0.1-0.5
	c0.1-0.1,0.1-0.2,0-0.4c-0.2-0.3-0.4-0.3-0.4,0.1c0,0.4,0.1,1.5,0.2,1.8c0.2,0.5,0.2,0.5,0.1,0C436.2,105.4,436.2,105,436.2,104.8
	L436.2,104.8z M418.3,110.8l0.5-0.5l-0.4,0c-0.3,0-0.6,0.1-0.9,0.2l-0.5,0.2l0.3-0.3c0.2-0.3,0.3-0.3,0.8-0.3c0.7,0,1.1-0.2,1.3-0.4
	c0.1-0.1,0.4-0.4,0.7-0.6c1.2-0.9,1.2-0.8,0-0.7c-0.6,0-1.2,0.1-1.3,0.2c-0.2,0.1-0.3,0.1-0.2,0c0-0.2,1-0.4,1.8-0.4
	c0.6,0,0.9-0.1,1.3-0.2c0.3-0.1,0.5-0.2,0.5-0.3s-0.1-0.1-0.3-0.2c-1-0.5-3.1,0.2-3.5,1.1c-0.1,0.2-0.3,0.5-0.5,0.7
	c-0.2,0.2-0.3,0.4-0.3,0.5c0,0.1-0.1,0.2-0.2,0.3c-0.1,0.1-0.2,0.2-0.1,0.3c0,0.1,0.1,0.1,0,0.1c-0.2,0.1-0.7,1.2-0.5,1.3
	c0,0,0.3-0.1,0.6-0.2C417.7,111.3,417.9,111.2,418.3,110.8L418.3,110.8z M437.1,104.7c-0.1-0.2-0.2-0.4-0.2-0.5l-0.1-0.2l0,0.3
	c0,0.4,0.2,0.8,0.4,0.7C437.1,104.9,437.1,104.8,437.1,104.7L437.1,104.7z M429,106.7c-0.1-0.1-0.4-0.3-0.6-0.5
	c-0.4-0.2-1.2-0.9-1.2-1.1c0-0.1-0.1-0.1-0.1-0.1c-0.1,0-0.1,0.1,0.4,1.1c0.1,0.1,0.2,0.3,0.2,0.4c0.2,0.3,1,0.7,1.3,0.7
	c0.3,0,0.3,0,0.3-0.1C429.2,107.1,429.1,106.9,429,106.7L429,106.7z M430.3,106.5c0.3-0.7,0.4-1.1,0.3-1.5c-0.1-0.2-0.1-0.2-0.1,0
	c0,0.1-0.2,0.4-0.3,0.6c-0.5,0.9-0.7,1.2-0.6,1.4C429.8,107.3,429.9,107.2,430.3,106.5L430.3,106.5z M430.1,105.3
	c0.2-0.3,0.3-0.6,0.3-0.7c0-0.3,0.1-0.3,0.2-0.1c0.1,0.1,0,0,0-0.2c-0.1-0.2-0.2-0.4-0.2-0.4c0,0-0.2,0-0.5,0.1
	c-0.4,0.1-0.4,0.1-0.6,0.5c-0.1,0.2-0.3,0.4-0.3,0.4c-0.1,0-0.1,0.1,0.1,0.6c0.1,0.3,0.3,0.7,0.3,0.8c0.1,0.2,0.1,0.2,0.3-0.2
	C429.7,106,429.9,105.6,430.1,105.3L430.1,105.3z M436.9,103.6C436.7,103.3,436.6,103.4,436.9,103.6c0,0.2,0.1,0.3,0.1,0.3
	S437,103.8,436.9,103.6z M428.6,105.6c-0.2-0.6-0.2-0.7-0.7-1c-0.3-0.2-0.5-0.5-0.7-0.7c-0.1-0.2-0.2-0.4-0.2-0.4
	c-0.2,0.1-0.2,0.3-0.1,0.7c0.1,0.4,0.1,0.5,0.2,0.6c0.1,0,0.2,0.1,0.2,0.2c0.1,0.2,1.3,1.2,1.5,1.2
	C428.8,106.2,428.7,105.9,428.6,105.6L428.6,105.6z M436.2,103.2c-0.2-0.2-0.3-0.3-0.3-0.1c0,0.1,0.4,0.3,0.4,0.3
	C436.4,103.4,436.3,103.3,436.2,103.2z M435.5,102.7c0-0.1,0-0.1,0-0.1c0.1,0,0.1,0,0.1,0.1c0,0,0.1,0.1,0.2,0c0.1,0,0.2,0,0.3,0.1
	c0.2,0.1,0.2,0.1,0-0.1c-0.1-0.1-0.3-0.3-0.4-0.3c-0.1,0-0.2,0-0.2-0.1s0-0.1,0.1-0.1c0.1,0,0.1,0,0.1-0.1c0-0.1,0-0.1-0.5,0.2
	c-0.3,0.2-0.3,0.2-0.3,0.3c0.1,0.1,0.2,0.3,0.3,0.5l0.2,0.3l0-0.3C435.6,102.9,435.6,102.7,435.5,102.7z M450.8,98.1
	c0.1-0.1,0.2-0.2,0.4-0.3l0.3-0.2l-0.6-0.1c-0.4-0.1-0.9-0.2-1.5-0.5c-0.5-0.2-1-0.4-1.2-0.5c-0.4,0-0.5,0-1.6,0.6l-0.6,0.3l0.3,0.1
	c0.2,0,0.6,0.2,1,0.4c0.8,0.4,1.3,0.6,1.8,0.6c0.3,0,0.3,0,0.2,0.1c-0.3,0.1-1.1,0-1.7-0.3c-1.4-0.7-1.9-0.8-2.4-0.4
	c-0.3,0.2-0.3,0.2,0,0.4c0.1,0.1,0.5,0.3,0.8,0.5c0.7,0.5,1.1,0.5,1.7,0.3c0.3-0.1,0.6-0.1,0.7-0.1
	C448.9,98.9,450.7,98.3,450.8,98.1L450.8,98.1z M429.1,104.5c0.2-0.3,0.2-0.4-0.1-0.3c-0.1,0-0.2,0-0.3,0c-0.1,0-0.2,0,0,0.4
	C428.8,104.9,428.8,104.9,429.1,104.5z M452.2,97.1c0.1-0.1,0.2-0.2,0.2-0.3c0.2-0.1,0.9-0.8,1.1-1.2l0.2-0.4l-0.3,0
	c-0.1,0-0.3,0-0.4,0c-0.5,0-2.1,0.2-2.1,0.3c0,0.1,0,0.1,0,0.1c0,0,0.2,0.1,0.2,0.1c0.2,0.2,1.4,0.4,1.6,0.3
	c0.1-0.1,0.2-0.1,0.3-0.1c0,0-0.1,0.1-0.3,0.2c-0.5,0.1-1.3,0-1.6-0.3c-0.4-0.3-0.6-0.3-1.7,0l-1.1,0.3l0.9,0.5
	c1,0.5,1.8,0.7,2.2,0.6c0.1,0,0.3,0,0.3,0C451.8,97.5,452.1,97.3,452.2,97.1L452.2,97.1z M433,103c0.1-0.2,0.3-0.3,0.4-0.3
	c0.1,0,0.1-0.1,0.1-0.2c-0.1-0.2,0.1-0.3,0.2-0.1c0.1,0.2,0.8,0.1,1.4-0.2c0.6-0.3,0.7-0.4,0.4-0.4c-0.1,0-0.5-0.1-0.7-0.1
	c-0.4-0.1-0.6-0.1-1.2,0l-0.7,0.2l-0.2,0.5c-0.4,0.8-0.6,1.2-0.8,1.3c-0.1,0-0.1,0.1,0,0.1c0.1,0,0.4,0,0.6-0.1
	C432.7,103.3,432.9,103.2,433,103L433,103z M428.3,104.3c-0.1-0.3-0.2-0.3-0.5-0.5c-0.2-0.1-0.4-0.2-0.5-0.1c-0.1,0.1,0.9,1,1.1,1
	C428.4,104.6,428.4,104.5,428.3,104.3L428.3,104.3z M423.4,105.5c-0.3-0.4-0.4-0.5-0.7-0.5c-0.4-0.1-0.8-0.3-1-0.6
	c-0.1-0.2-0.2-0.2-0.2-0.1c-0.1,0.1-0.1,0.3,0.1,0.6l0.2,0.4l0.9,0.3c0.7,0.2,1,0.3,1.2,0.3C423.8,106,423.6,105.8,423.4,105.5
	L423.4,105.5z M431.3,103.3c0.5-0.2,0.7-0.4,0.8-0.8c0.3-0.8,0.4-0.9,1.2-1.1c0.7-0.2,0.8-0.2,1.2-0.1c0.6,0.2,1.1,0.1,1.5-0.3
	l0.3-0.3l-0.2-0.7c-0.2-0.4-0.4-0.8-0.5-1c-0.2-0.2-0.3-0.4-0.4-0.6c-0.1-0.4-0.7-1.5-0.9-1.7c-0.1-0.1-0.3-0.2-0.4-0.2
	c-0.2,0-0.5-0.2-0.8-0.4s-0.5-0.2-0.5-0.2c0,0.2-0.1,0.2-0.2,0.1c-0.1-0.1-0.1-0.1,0-0.2c0.1-0.1,0.1-0.1,0-0.2
	c-0.2-0.1-0.3-0.3-0.1-0.6c0.1-0.3,0.1-0.3,0.3,0c0.1,0.1,0.1,0.3,0,0.3c-0.1,0,0,0.1,0.1,0.2c0.4,0.3,0.6,0.4,1.2,0.6
	c0.7,0.2,0.9,0.5,1.3,1.5c0.2,0.4,0.4,0.8,0.5,0.9c0.1,0.1,0.3,0.4,0.4,0.7c0.2,0.3,0.3,0.6,0.4,0.6c0.2,0.1,0.9-0.2,1.3-0.6
	c0.2-0.2,0.4-0.5,0.6-0.9c0.3-0.9,0.6-1.1,1.8-1.5c0.8-0.2,0.9-0.3,0.9-0.4c-0.1-0.2,0-0.2,0.2-0.1c0.2,0.1,0.3,0,0.7-0.7
	c0.4-0.7,0.4-0.7,0.3-1.7l-0.1-1l-0.2,0c-0.1,0-0.2,0-0.2-0.1c0,0,0.1-0.1,0.2-0.1c0.2,0,0.2,0,0.1-0.8c-0.1-0.7-0.1-0.8-0.3-0.9
	c-0.1-0.1-0.2-0.2-0.3-0.1c-0.2,0.1-0.9-0.5-1.1-0.8c-0.1-0.3-0.1-0.4,0-0.7c0.1-0.2,0.1-0.6,0.1-0.9c0-0.5,0-0.5-0.3-0.6
	c-0.2-0.1-0.5,0-1,0.1c-0.6,0.1-0.9,0.2-1.5,0.6c-0.4,0.2-0.9,0.6-1.1,0.7c-0.2,0.2-0.3,0.3-0.4,0.3c0,0-0.2,0.1-0.3,0.3
	c-0.2,0.2-0.2,0.3-0.1,0.3c0.1,0,0.1,0.1,0.1,0.3c0,0.1,0,0.2,0,0.2c0,0,0,0,0,0.1c0,0-0.1,0-0.2-0.1c-0.1-0.1-0.1-0.1-0.2,0
	c-0.1,0.2-0.3,0.1-0.4-0.1c-0.1-0.1-0.1-0.2-0.3-0.1c-0.2,0.1-0.2,0.1,0,0.1c0.2,0.1,0.2,0.3,0,0.3c-0.2,0.1-0.3,0.4-0.2,0.7
	c0.1,0.4-0.1,0.6-0.3,0.2c-0.1-0.3-0.4-0.3-0.3,0c0.1,0.3,0,0.6-0.2,0.6c-0.1,0-0.1,0-0.2,0.1c0,0.1-0.1,0.1-0.2,0.1
	c-0.1,0-0.1,0.1-0.1,0.2c0,0.1,0.1,0.2,0.1,0.1c0,0,0.1,0,0.1,0.1c0,0.1,0.1,0.2,0.2,0.3c0.1,0.1,0.1,0.2,0,0.2
	c-0.1,0-0.2-0.1-0.2-0.2c-0.1-0.1-0.1-0.2-0.2-0.1c-0.1,0.1-0.2,0-0.3-0.2c-0.1-0.2-0.2-0.3-0.2-0.2c0,0-0.1,0.1,0,0.1
	c0.1,0.1,0,0.5-0.1,0.5c0,0-0.1,0-0.2-0.1c-0.1-0.1-0.2-0.1-0.3-0.1c-0.2,0-0.2,0.1-0.2,0.2c0,0.1,0,0.2,0,0.2c0,0-0.1,0.1,0,0.2
	c0,0.1,0.1,0.1,0.1,0c0-0.1,0.1-0.1,0.2-0.1c0.1,0.1,0.1,0.1,0,0.2c-0.1,0.1-0.1,0.2,0,0.3s0,0.2,0,0.2c-0.1,0.1-0.1,0.2-0.1,0.3
	c0.1,0.3-0.1,0.5-0.2,0.4c-0.1-0.1-0.1-0.2,0-0.3c0.1-0.1,0-0.2-0.2-0.2c0,0,0,0.1,0,0.1c0.1,0.1,0.1,0.1,0,0.1
	c-0.2,0-0.3-0.4-0.2-0.5c0.1,0,0.2,0,0.2,0.1c0.2,0.2,0-0.3-0.2-0.5c-0.2-0.2-0.2-0.2-0.2,0c0,0.1-0.1,0.3-0.2,0.4
	c-0.1,0.1-0.1,0.4-0.2,0.6c-0.1,0.4-0.1,0.4-0.3,0.4c-0.2-0.1-0.2-0.3,0-0.4c0.2-0.1,0.2-0.2,0-0.3c-0.2-0.1-0.5,0.2-0.5,0.4
	c0.1,0.2,0.1,0.7,0,0.9c0,0.1,0,0.3,0,0.4c0.1,0.3-0.1,0.3-0.2,0c-0.2-0.4-0.2-0.5-0.3-0.4c0,0-0.1,0.1,0,0.2c0.1,0.2,0,0.2-0.1,0.2
	c-0.1,0-0.2,0.1-0.2,0.2c-0.1,0.2-0.3,0.3-0.4,0.2c-0.1-0.3,0-0.4,0.2-0.5c0.1,0,0.2-0.1,0.2-0.1c-0.1-0.2-0.3,0-0.5,0.3
	c-0.1,0.2-0.2,0.3-0.2,0.3c-0.1,0-0.2-0.2-0.1-0.3c0.1-0.1,0-0.1-0.1-0.1c-0.1,0-0.2,0.1-0.1,0.2c0.1,0.1,0,0.2-0.1,0.1
	c0,0-0.2,0-0.4,0c-0.3,0.1-0.4,0.1-0.6,0.4c-0.2,0.3-0.9,1.1-1.1,1.2c0,0-0.2,0.3-0.4,0.5c-0.2,0.3-0.5,0.6-0.6,0.7
	c-0.2,0.2-0.2,0.3-0.1,0.5c0.1,0.4,0.3,0.5,0.7,0.3c0.6-0.4,1-0.3,1.4,0.4c0.1,0.3,0.2,0.4,0.1,0.7c-0.1,0.3-0.1,0.4,0.1,0.4
	c0.1,0,0.2,0.1,0.2,0.4c0.1,0.6,0.7,1.2,1.3,1.3c0.6,0.1,1.1,0,1.1-0.2c0-0.1,0.1-0.2,0.2-0.2c0.1,0,0.2,0,0.2,0.1
	c0,0.1,0,0.2,0.1,0.2C430.2,103.7,430.4,103.7,431.3,103.3L431.3,103.3z M431.2,102.9c0-0.1,0.1-0.3,0.2-0.3c0.1,0,0,0.3,0,0.4
	C431.2,103.1,431.2,103,431.2,102.9z M429.5,102.8c0.1-0.1,0.3-0.3,0.3-0.4c0.1-0.2,0.2-0.3,0.2-0.1c0,0.1-0.5,0.7-0.7,0.8
	C429.3,103,429.4,102.9,429.5,102.8z M433.9,100.7c0-0.1,0-0.3,0-0.3c0,0,0.1,0.1,0.2,0.2c0,0.1,0,0.2,0,0.3
	C434,101,433.9,100.9,433.9,100.7z M428.2,101.7c0.1-0.2,0.2-0.3,0.1-0.4c0,0,0-0.1,0.1-0.1c0.2,0,0.1,0.1,0,0.4
	C428.1,102,428,102.1,428.2,101.7L428.2,101.7z M433,99.3C433,99.2,433,99.2,433,99.3C433.1,99.3,433.1,99.4,433,99.3
	C433.1,99.5,433.1,99.4,433,99.3z M431.1,99c0-0.2-0.1-0.9,0-1c0.1-0.1,0.1,0.1,0.1,0.5C431.3,98.9,431.2,99.2,431.1,99L431.1,99z
	 M437.5,96.3c-0.2-0.1-0.4-0.3-0.4-0.4c0-0.1,0.1-0.1,0.3,0.1c0.2,0.2,0.4,0.3,0.4,0.3c0,0,0.1,0,0.1,0.1
	C438.1,96.6,437.9,96.5,437.5,96.3L437.5,96.3z M428.2,99.3c0,0,0-0.1,0.1-0.1s0.1-0.1,0.2-0.1c0.1-0.1,0.1-0.1,0,0.1
	C428.4,99.4,428.3,99.4,428.2,99.3z M430,98.7c0-0.1,0-0.2,0.1-0.3c0-0.1,0.1,0,0.1,0.1c0,0.1,0,0.2,0,0.2c0,0,0,0.1-0.1,0.1
	S430,98.8,430,98.7z M432.4,97.6c-0.1-0.2-0.1-0.2-0.1-0.2c0.1,0,0.4,0.4,0.3,0.4C432.6,97.8,432.5,97.7,432.4,97.6L432.4,97.6z
	 M440.9,95c-0.2,0-0.4,0-0.4,0c-0.2-0.1,0-0.2,0.1-0.1c0.1,0,0.3,0,0.5,0c0.3,0,0.3,0,0.2,0C441.3,94.9,441.1,95,440.9,95z
	 M429.1,98.1c0-0.2,0.2-0.5,0.3-0.5c0.1,0-0.2,0.6-0.3,0.6C429.1,98.3,429.1,98.2,429.1,98.1L429.1,98.1z M437.2,95
	c-0.3,0-0.6-0.1-0.6-0.2c0-0.1,0.1-0.1,0.2,0c0.1,0,0.3,0.1,0.4,0c0.1,0,0.2,0,0.2,0.1C437.4,95,437.3,95,437.2,95z M431,96.5
	c-0.1-0.3-0.1-0.5,0.1-0.6c0.1,0,0.1-0.2,0.1-0.3c0-0.2,0-0.3,0.1-0.3c0.2-0.1,0.3,0.1,0.2,0.3c0,0.1,0,0.2,0,0.2
	c0.1,0,0.3,0.2,0.2,0.3c0,0-0.1,0-0.3-0.1c-0.2-0.1-0.3-0.1-0.3,0c0,0.1,0,0.2,0,0.3c0,0.1,0,0.2,0,0.3
	C431.1,96.7,431.1,96.7,431,96.5L431,96.5z M431.5,96.5c-0.1-0.1-0.1-0.2-0.1-0.2c0.1-0.1,0.2,0,0.2,0.2
	C431.6,96.6,431.6,96.6,431.5,96.5L431.5,96.5z M430.3,96.8c0-0.1,0-0.2,0-0.2c0,0,0-0.1,0-0.2c-0.1-0.2,0.1-0.6,0.2-0.5
	c0,0,0,0.1,0,0.2c-0.1,0.2-0.1,0.4,0.1,0.2c0.1-0.1,0.1-0.1,0.2-0.1c0.1,0.1-0.1,0.4-0.2,0.4c-0.1,0-0.1,0.1-0.1,0.2s0,0.1,0,0.2
	C430.3,96.9,430.3,96.8,430.3,96.8L430.3,96.8z M435.6,94.8c-0.2-0.2-0.3-0.2-0.2-0.3c0,0,0.2,0.1,0.3,0.2
	C436,94.9,435.9,95,435.6,94.8L435.6,94.8z M431.8,95.8c-0.1-0.2,0-0.3,0.2-0.2c0.1,0.1,0.1,0.4,0,0.4
	C431.9,96,431.9,95.9,431.8,95.8z M433.1,95.5c-0.2,0-0.2-0.1-0.1-0.2c0.1-0.2,0.4-0.2,0.4,0C433.4,95.5,433.3,95.6,433.1,95.5z
	 M433.6,95.1c-0.1,0-0.1-0.1-0.1-0.2c0-0.1,0-0.2-0.1-0.2c-0.2,0-0.2-0.4-0.1-0.4c0.1,0,0.2,0.1,0.2,0.2c0,0.1,0.1,0.2,0.2,0.2
	c0.1,0,0.1,0.1,0,0.1c-0.1,0.1,0,0.3,0.1,0.2c0,0,0.1,0,0.1,0C433.9,95.1,433.8,95.2,433.6,95.1L433.6,95.1z M432.7,95
	c-0.1-0.2-0.2-0.4-0.1-0.4c0,0,0.1,0.1,0.1,0.2c0,0.2,0.1,0.2,0.1,0c0-0.2,0.2-0.1,0.2,0.1C433,95.1,432.8,95.2,432.7,95z
	 M434.2,94.5c-0.1-0.1-0.2-0.1-0.2-0.2c-0.2,0-0.3-0.4-0.1-0.4c0.2-0.1,0.5,0.1,0.5,0.2c0,0.1,0,0.1,0.1,0.2c0.1,0,0.1,0.2,0,0.3
	C434.3,94.6,434.2,94.5,434.2,94.5z M436.8,93.3c-0.1,0-0.2,0-0.2-0.1c0-0.1,0.1-0.1,0.3-0.1C437.1,93.2,437.1,93.3,436.8,93.3
	L436.8,93.3z M437.2,93.2c0,0,0.1-0.1,0.1-0.1c0.1,0,0.2,0,0.1,0c0,0.1-0.1,0.1-0.1,0.1C437.3,93.3,437.2,93.3,437.2,93.2z
	 M434.7,93.7c0-0.1,0.2-0.3,0.3-0.3c0,0,0,0.1,0,0.2C435,93.7,434.8,93.8,434.7,93.7L434.7,93.7z M432.4,94.2c0-0.1,0-0.2,0-0.2
	c0.1,0,0.2,0.3,0.1,0.4C432.5,94.4,432.5,94.3,432.4,94.2z M434.2,93.7c-0.1-0.1-0.1-0.1-0.1-0.2c0.1-0.1,0.1-0.1,0.1,0
	c0.1,0.2,0.2,0.2,0.2,0c0-0.1,0-0.1,0.1-0.1c0.1,0.1,0.1,0.3-0.1,0.4C434.4,93.8,434.3,93.8,434.2,93.7z M435.2,93.3
	c-0.1,0-0.2-0.2-0.3-0.3c-0.1-0.2-0.1-0.3,0-0.4c0.2-0.1,0.2-0.2-0.1-0.4c-0.2-0.1-0.2-0.3,0-0.3c0.2,0,0.4-0.2,0.3-0.4
	c0-0.1,0-0.1,0-0.1c0,0,0.1,0,0.1,0.1c0,0,0.1,0.1,0.1,0.2s0.1,0.2,0,0.3c-0.1,0.2-0.1,0.2-0.2,0.1c-0.1-0.1-0.1,0,0,0.3
	c0.1,0.2,0.1,0.4,0.1,0.6c0,0.1-0.1,0.3,0,0.3c0,0,0,0,0.1-0.1c0-0.1,0.1-0.1,0.1-0.1c0,0,0,0.1,0,0.2
	C435.3,93.4,435.3,93.4,435.2,93.3L435.2,93.3z M432.8,94c0-0.1-0.1-0.1,0-0.1c0,0,0.1,0,0.1,0.1c0,0.1,0.1,0,0.1-0.1
	c0.1-0.2,0.2-0.1,0.2,0C433.2,94,432.9,94.1,432.8,94z M432.2,93.8C432.1,93.8,432.2,93.8,432.2,93.8c0.1-0.1,0.1-0.1,0.1,0
	s0,0.1,0,0.1C432.3,93.9,432.2,93.9,432.2,93.8z M432.7,93.7c0,0,0-0.1,0.1-0.1s0.1,0,0.2,0c0,0,0,0.1-0.1,0.1
	C432.8,93.7,432.8,93.7,432.7,93.7z M433.7,93.3c0,0-0.1-0.2-0.1-0.3c0-0.2,0-0.2,0.1-0.1C433.9,93,433.8,93.4,433.7,93.3z
	 M434.1,92.8c-0.1-0.1-0.2-0.5-0.1-0.4c0.1,0,0.1,0.1,0.2,0.2c0,0.1,0.1,0.1,0.1,0.1c0.1-0.1,0.1,0,0.1,0
	C434.4,92.7,434.2,92.9,434.1,92.8L434.1,92.8z M436,92.2c-0.1-0.1-0.1-0.1,0.3-0.2c0.2,0,0.3,0,0.2,0.1
	C436.3,92.2,436.1,92.3,436,92.2z M439.7,90.9c0-0.1,0.1-0.1,0.2-0.2c0.2,0,0.2,0,0.1,0.1C439.9,91,439.7,91,439.7,90.9z
	 M438.2,90.9c0,0,0.1-0.1,0.3-0.2c0.2-0.1,0.4-0.1,0.4,0s-0.1,0.1-0.3,0.2C438.3,91,438.2,91,438.2,90.9z M434.6,91.6
	c0-0.1,0-0.2,0.1-0.2c0.2-0.1,0.3,0,0.3,0.2C435,91.7,434.7,91.8,434.6,91.6z M435.4,91.3c0,0,0-0.1,0.1-0.1c0,0,0.1,0,0.1,0.1
	C435.5,91.4,435.5,91.4,435.4,91.3C435.4,91.4,435.4,91.4,435.4,91.3z M421.1,106.2c0.3-0.3,0.3-0.3,0-0.4c-0.2-0.1-1.1,0.2-1.6,0.6
	l-0.4,0.3l0.4,0C420,106.7,420.8,106.5,421.1,106.2L421.1,106.2z M419,105.9c0.1-0.3,0.1-0.6,0.1-0.7c0-0.1,0-0.3,0.1-0.5
	c0-0.1,0.1-0.6,0.2-1.1c0.1-1.1,0.4-2.1,0.7-2.6c0.2-0.3,0.2-0.4,0.1-0.4c-0.1-0.1-0.2-0.2-0.3-0.8c-0.1-0.6-0.2-0.7-0.4-0.9
	c-0.1-0.1-0.3-0.3-0.3-0.4l-0.1-0.2l0,0.2c0,0.3-0.2,0.6-0.3,0.6c-0.1,0-0.1,0.1-0.2,0.2c-0.1,0.3-0.2,0.3-0.5,0.2
	c-0.1-0.1-0.1-0.1,0-0.2c0.1-0.1,0.2-0.2,0.3-0.2c0.3-0.1,0.4-0.5,0.1-0.4c0,0-0.1,0-0.1-0.1c0.1-0.2-0.1-0.1-0.3,0.3
	c-0.1,0.2-0.3,0.4-0.4,0.3c-0.3,0-0.2-0.4,0.1-0.4c0.1,0,0.2-0.1,0.2-0.2c0-0.1,0.4-0.4,0.5-0.4c0.1,0,0.2,0,0.3-0.1
	c0.2-0.1,0.2-0.1,0-0.4c-0.2-0.4-0.3-0.5-0.5-0.2c-0.1,0.2-0.1,0.2,0,0.1c0.2-0.1,0.2,0,0.1,0.2c-0.1,0.2-0.1,0.2-0.2,0.2
	c0,0-0.2-0.1-0.3-0.1c-0.1,0-0.1,0,0-0.1c0.2-0.1,0.2-0.1,0.1-0.2c-0.1-0.1-0.1-0.2,0.1-0.3c0.2-0.1,0.2-0.3-0.1-0.2
	c-0.1,0-0.2,0.1-0.2,0.2c0,0.1-0.1,0.1-0.1,0.1c-0.1,0-0.1,0-0.1,0.1s0.1,0.1,0.1,0c0.1,0,0.1,0,0.1,0c0,0.1-0.1,0.1-0.2,0.1
	c-0.2,0-0.3,0.1-0.2,0.1c0,0,0,0.1-0.1,0.1s-0.1,0.1-0.1,0.1c0,0.1,0.2,0.1,0.3,0c0.1,0,0.2,0,0.2,0c0,0-0.1,0.1-0.2,0.1
	c-0.3,0.1-0.3,0.2-0.3,0.4c0,0.1,0,0.2-0.1,0.2c-0.2,0.1-0.3-0.2-0.1-0.3c0.2-0.2,0.2-0.4,0-0.4c-0.3,0-0.3-0.1-0.1-0.2
	c0.3-0.1,0.7-0.5,0.5-0.6c-0.2-0.1-0.5,0.1-0.6,0.3c0,0.1-0.1,0.2-0.1,0.2c0,0-0.3,0.1-0.5,0.2c-0.4,0.2-0.5,0.3-0.6,0.7
	c-0.1,0.6-0.5,1.3-0.7,1.3c-0.1,0-0.3,0.2-0.5,0.5c-0.4,0.5-0.4,0.8-0.1,1.9c0.2,0.7,0.2,0.9,0.6,1.3c0.2,0.3,0.5,0.5,0.7,0.6
	c0.4,0.1,1,0.6,1.8,1.3c0.6,0.5,0.8,0.6,1.1,0.5C418.8,106.4,418.9,106.3,419,105.9L419,105.9z M418.3,104.4c0-0.1,0-0.4,0.1-0.4
	c0.1,0,0.1,0.4,0,0.5C418.4,104.5,418.3,104.5,418.3,104.4z M415.9,103.7c0,0,0-0.1,0.1-0.1c0.1,0,0.2-0.2,0.3-0.4s0.2-0.3,0.2-0.3
	c0,0.1-0.3,0.8-0.5,0.8C416,103.7,415.9,103.7,415.9,103.7z M419.3,100c-0.1-0.2-0.2-0.3,0-0.3c0.1,0,0.1-0.1,0.1-0.2
	c0-0.1,0-0.2,0-0.2c0.1,0,0.1,0,0.1,0.2c0,0.1,0,0.3,0.1,0.4C419.7,100.1,419.5,100.2,419.3,100L419.3,100z M418.7,100
	c-0.2-0.2-0.2-0.2-0.1-0.3c0.1-0.1,0.1-0.1,0.2-0.1c0.1,0,0.1,0.1,0,0.2c-0.1,0.1-0.1,0.1,0,0.1c0.1,0.1,0.1,0,0.2-0.3
	c0.1-0.5,0.2-0.5,0.1,0C419.1,100.2,419,100.3,418.7,100L418.7,100z M420,105.8c0.7-0.5,1.2-1.3,1.9-2.9c0.2-0.4,0.4-1,0.5-1.2
	s0.2-0.4,0.1-0.4c-0.1,0-0.4,0-0.8-0.1c-0.9-0.2-1.3-0.1-1.5,0.5c-0.1,0.2-0.2,0.5-0.2,0.5c0,0-0.1,0.4-0.2,0.7
	c-0.2,0.7-0.4,1.7-0.4,2.1c0,0.1-0.1,0.5-0.1,0.8c-0.1,0.3-0.1,0.6-0.1,0.6c0,0,0.1,0,0.3-0.1C419.6,106,419.8,105.9,420,105.8z
	 M421.5,102.9c0.1-0.2,0.2-0.2,0.3-0.1C421.8,102.8,421.7,102.9,421.5,102.9C421.4,103,421.4,103,421.5,102.9z M420.6,105.6
	c0,0-0.1,0-0.1,0.1c-0.1,0.1,0,0.1,0.1,0C420.6,105.7,420.7,105.6,420.6,105.6z M421.4,105c-0.1-0.4-0.2-0.4-0.3-0.1
	c-0.1,0.1,0,0.2,0.2,0.3c0.1,0.1,0.2,0.2,0.2,0.2C421.5,105.4,421.5,105.2,421.4,105z M424.1,104.1c0.3-0.4,0.4-1.1,0.3-1.5
	c0-0.2-0.1-0.4-0.1-0.6c0-0.3,0-0.3-0.1-0.1c-0.1,0.2-0.5,1-0.8,1.6c-0.2,0.3-0.1,0.6,0.1,1C423.6,104.8,423.9,104.6,424.1,104.1z
	 M442.9,98.5C442.9,98.4,442.9,98.4,442.9,98.5c-0.1,0-0.1,0-0.1,0.1C442.9,98.7,442.9,98.6,442.9,98.5L442.9,98.5z M423,104.6
	c0-0.1-0.3-0.3-0.6-0.4c-0.3-0.1-0.5-0.3-0.5-0.4c0-0.1-0.1-0.1-0.1,0c-0.2,0.3,0.4,0.9,0.9,1C423,104.8,423.1,104.8,423,104.6z
	 M442.3,98.5c0-0.1-0.6-0.9-0.7-0.8c-0.1,0-0.3,0.1-0.5,0.2c-0.3,0.1-0.5,0.2-0.6,0.4c-0.1,0.2-0.1,0.2,0.1,0.5
	c0.2,0.2,0.3,0.2,0.6,0.2C441.6,98.9,442.2,98.6,442.3,98.5L442.3,98.5z M438.8,99.4c0.2-0.3,0.2-0.3,0.1-0.5
	c-0.1-0.2-0.1-0.2,0.1-0.1c0.2,0.1,0.2,0.1,0.6-0.2c0.4-0.3,1.3-1.2,1.4-1.5c0-0.1,0-0.1-0.5-0.1c-0.3,0.1-0.8,0.2-1.1,0.3
	c-0.7,0.2-0.9,0.5-1.3,1.4c-0.1,0.4-0.3,0.8-0.4,0.8c-0.2,0.2-0.2,0.3,0,0.3C438.2,99.9,438.5,99.7,438.8,99.4L438.8,99.4z
	 M439.1,97.9c-0.2-0.1-0.2-0.1,0.3-0.1c0.4,0,0.4,0,0.1,0.1C439.3,98,439.1,98,439.1,97.9z M445.3,97.5c0,0-0.1,0-0.1,0.1
	c-0.1,0.1,0,0.1,0.1,0C445.3,97.6,445.3,97.5,445.3,97.5z M453.4,94.9c-0.1-0.1-0.5-0.2-0.8-0.3c-0.3-0.1-0.6-0.2-0.6-0.2
	c-0.2-0.2-0.9-0.2-1.3-0.1c-0.3,0.1-0.6,0.1-0.6,0.1c-0.2-0.1-0.6,0-1.2,0.2c-0.3,0.1-0.6,0.2-0.6,0.1c0,0-0.5,0.1-1,0.3
	c-1.5,0.5-2,1-2.3,2.1c-0.1,0.4-0.1,0.7-0.1,0.7s0.1-0.1,0.3-0.2s0.3-0.2,0.4-0.3c0.1,0,0.3-0.2,0.4-0.5c0.3-0.7,1-1.5,1.4-1.7
	c0.4-0.2,0.4-0.2-0.4,0.5c-0.2,0.2-0.5,0.6-0.6,0.8l-0.2,0.5l0.8-0.3c0.9-0.4,1.5-0.7,1.7-1c0.5-0.6,1.4-1.2,1.5-1
	c0,0-0.1,0.1-0.3,0.2c-0.2,0.1-0.5,0.3-0.8,0.6l-0.5,0.5l1-0.2c0.8-0.2,1-0.3,1.4-0.6c0.3-0.2,0.6-0.4,0.8-0.4
	c0.5-0.1,0.6,0,0.1,0.1c-0.2,0-0.5,0.2-0.7,0.3l-0.3,0.2l0.4,0c0.2,0,0.8,0,1.3-0.1C453.6,95.1,453.7,95.1,453.4,94.9L453.4,94.9z
	 M442.8,97.8c0.2-0.8,0.2-0.9,0.1-1.1c-0.1-0.1-0.1-0.2-0.1-0.3c0-0.1-0.1-0.2-0.2-0.3c-0.1-0.1-0.2-0.2-0.3-0.3
	c-0.1-0.2-0.3-0.1-0.2,0.2c0,0.1,0,0.5,0,0.7c-0.1,0.5,0,0.9,0.1,0.9c0.1,0,0.2,0.2,0.3,0.4c0.1,0.2,0.2,0.3,0.2,0.3
	C442.6,98.3,442.7,98.1,442.8,97.8L442.8,97.8z M446.5,96.9c0.3-0.2,0.6-0.3,0.6-0.3c0.1-0.1-1,0.4-1.3,0.6
	c-0.2,0.1-0.2,0.2-0.1,0.1C445.8,97.3,446.2,97.1,446.5,96.9L446.5,96.9z M426.8,102.2c-0.1-0.2-0.1-0.3-0.1-0.6
	c0.1-0.3,0-0.4-0.1-0.7l-0.2-0.3l-0.6,0.2c-0.4,0.1-0.7,0.2-0.8,0.2c-0.3-0.1,0.2,0.4,0.5,0.6c0.3,0.1,0.3,0.1,0.5-0.1
	c0.2-0.2,0.5-0.4,0.5-0.2c0,0-0.1,0.2-0.2,0.4c-0.2,0.3-0.2,0.4,0.5,1.2l0.3,0.3l-0.1-0.4C427,102.6,426.9,102.3,426.8,102.2
	L426.8,102.2z M422.7,103.9c-0.1-0.1-0.2-0.5-0.2-0.8c-0.1-0.4-0.1-0.7-0.2-0.7c0,0-0.1,0.3-0.2,0.6l-0.2,0.6l0.4,0.2
	C422.8,104.2,422.9,104.2,422.7,103.9L422.7,103.9z M423.8,102.3c0.1-0.2,0.2-0.5,0.2-0.6c0-0.1,0-0.3,0-0.5
	c-0.1-0.3-0.1-0.3-0.3-0.2c-0.1,0.1-0.2,0.1-0.2,0.1c0,0-0.1,0.2-0.1,0.4c0,0.2-0.1,0.4-0.1,0.4c0,0-0.2,0.2-0.3,0.5
	c-0.2,0.4-0.2,0.5-0.1,0.8l0.1,0.4l0.3-0.4C423.5,102.9,423.8,102.5,423.8,102.3L423.8,102.3z M441.5,97.4c0-0.2-0.1-0.2-0.3,0
	l-0.2,0.3l0.2-0.1C441.4,97.6,441.5,97.5,441.5,97.4z M443.3,95.3c0.1-0.9,0.2-1.1,0.3-1.6c0.1-0.2,0.1-1.8,0-2
	c0-0.1-0.1-0.2-0.2-0.3c-0.2-0.2-0.2-0.2-0.3,0c-0.1,0.1-0.3,0.3-0.5,0.3l-0.3,0.1l0,0.5c0,0.3,0,0.7,0,1c0,0.3-0.1,0.7,0,1
	c0,0.2,0,0.6,0,0.8c-0.1,0.3-0.1,0.3,0.1,0.4c0.2,0.1,0.5,0.5,0.7,1l0.2,0.3l0-0.4C443.2,96.3,443.3,95.8,443.3,95.3L443.3,95.3z
	 M441.8,96.7c0,0-0.1,0-0.1,0.1c0,0.1-0.1,0.2,0,0.3c0,0,0.1,0,0.1-0.1C441.8,96.9,441.8,96.7,441.8,96.7z M423.1,101.8
	c0.2-0.3,0.3-0.6,0.1-0.7c-0.1,0-0.2,0.2-0.4,0.5c-0.2,0.4-0.3,0.6-0.2,0.7c0.1,0.2,0.1,0.2,0.2,0
	C422.8,102.2,423,101.9,423.1,101.8z M422.3,100.8c-0.2-0.1-0.4-0.2-0.4-0.3s-0.1-0.1-0.1-0.1s-0.2-0.1-0.3-0.3
	c-0.2-0.2-0.4-0.3-0.6-0.3c-0.2,0-0.4-0.1-0.5-0.2c-0.2-0.1-0.4-0.1-0.3,0c0,0,0.1,0.2,0.1,0.4c0.1,0.5,0.3,0.6,0.6,0.6
	c0.1,0,0.6,0.1,1,0.2c0.4,0.1,0.8,0.2,0.8,0.2C422.6,101,422.5,100.9,422.3,100.8L422.3,100.8z M424.2,100.3
	c0.1-0.2,0.3-0.4,0.5-0.5c0.1-0.1,0.4-0.5,0.6-0.8s0.6-0.7,0.8-0.8c0.5-0.3,1.1-1.4,0.9-1.5c-0.1,0-0.2-0.1-0.2-0.2
	c0-0.1,0-0.2,0.1-0.1c0.1,0.1,0.1,0.1,0.3-0.6c0.1-0.4,0.1-0.6,0.3-0.6c0.1,0,0.3-0.1,0.3-0.2c0.1-0.2,0.1-0.2,0,0
	c-0.1,0.1-0.2,0.1-0.4,0c-0.2-0.1-0.3-0.1-0.4,0c-0.2,0.1-0.2,0.1-0.2-0.1c0-0.2,0-0.1-0.1,0.1c-0.1,0.1-0.1,0.3-0.2,0.3
	c-0.1,0-0.1,0.1-0.1,0.1c0,0,0.1,0.1,0.1,0.1c0.1,0,0.1,0,0,0.1c-0.1,0.1-0.1,0.1-0.2,0.1c-0.2-0.1-0.2-0.4,0-0.5
	c0.1,0,0.1-0.1,0-0.1c0,0-0.1-0.2-0.2-0.2c-0.1-0.1-0.1-0.1-0.2-0.1c0,0-0.1,0-0.1-0.1s-0.1-0.1-0.1-0.1c0,0-0.1,0.1,0,0.2
	c0.1,0.2-0.2,0.2-0.3,0c0-0.1,0-0.2,0-0.4c0.1-0.1,0.1-0.2,0-0.3c-0.1,0-0.1-0.1-0.1-0.2c0-0.1-0.1-0.2-0.1-0.2
	c-0.1-0.1-0.1-0.1-0.1-0.3c0.1-0.3-0.2-0.4-0.6-0.3c-0.2,0.1-0.4,0.1-0.5,0c-0.1-0.1-0.1-0.1,0.1-0.1c0.1,0,0.4-0.1,0.6-0.2
	c0.4-0.2,0.5-0.2,0.6,0.2c0,0.2,0.1,0.2,0.3,0.1c0.2-0.1,0.3-0.1,0.4,0c0.2,0.2,0.2,0.2,0,0.3c-0.1,0-0.2,0-0.2,0
	c0,0-0.1-0.1-0.1-0.1c0,0-0.1,0.1,0,0.1c0,0,0,0.1-0.1,0.1c-0.1,0-0.1,0-0.1,0.1c0,0.1,0.1,0.1,0.2,0.1c0.1,0,0.2,0,0.3,0.1
	c0.1,0.1,0.2,0.1,0.2,0c0-0.1,0.1-0.1,0.2-0.1c0,0,0,0.1,0,0.2c-0.1,0.1,0,0.1,0.1,0c0.2-0.1,0.2-0.1,0.1,0.1
	c-0.1,0.1-0.2,0.2-0.2,0.1c-0.1,0-0.4,0.2-0.3,0.3c0,0,0.2,0,0.4,0c0.5-0.1,0.8,0,0.7,0.2c-0.1,0.1-0.1,0.1,0,0.2
	c0.1,0.1,0.1,0.1,0.1,0c0-0.2,0.3-0.1,0.3,0.1c0,0.1,0.1,0.1,0.2,0.1c0.1,0,0.2,0,0.3,0c0.1,0,0.2,0,0.3-0.1c0.1-0.1,0.1-0.1,0-0.1
	c-0.1,0-0.1,0-0.1-0.2c0-0.3-0.2-0.4-0.3-0.2c-0.1,0.2-0.3,0.1-0.3-0.1c0-0.2-0.2-0.3-0.4-0.2c-0.2,0.1-0.2-0.1-0.1-0.2
	c0.2-0.2,0.3-0.2,0.3-0.1c0,0.1,0,0.1,0.1,0.1c0.1,0,0.1-0.1,0-0.4c-0.2-0.4-0.2-0.4-0.4-0.3c-0.2,0.1-0.3,0.1-0.4,0
	c-0.1-0.1-0.1-0.2-0.1-0.2c0,0,0-0.1-0.1-0.2c-0.1-0.1-0.1-0.1-0.1,0c0,0.1-0.4,0.2-0.6,0.1c-0.4-0.1-0.1-0.4,0.3-0.3
	c0.2,0,0.2,0,0.2-0.1c0-0.1,0.1-0.1,0.2,0.1c0.1,0.1,0.2,0.2,0.2,0.2c0.1,0,0-0.2-0.2-0.4c-0.2-0.1-0.3-0.2-0.5-0.1
	c-0.4,0.1-0.5,0.1-0.6-0.2c-0.1-0.2,0-0.3,0.4-0.2c0.3,0.1,0.4,0,0.1-0.2c-0.2-0.2-0.2-0.2-0.1-0.3c0.1-0.1,0.2-0.1,0.3,0
	c0.1,0,0.2,0.1,0.2,0s0,0,0,0c0,0,0.1,0.1,0.2,0.1c0.1,0,0.2,0.1,0.2,0.2c0,0.1,0.1,0.2,0.3,0.4c0.3,0.3,0.3,0.4,0,0.3
	c-0.2,0-0.2,0-0.2,0.1c0,0.2,0.3,0.3,0.4,0.2c0,0,0.1,0,0.1,0.1c0,0.2,0,0.2,0.1,0c0.1-0.1,0.1-0.4,0-0.6c-0.1-0.4-0.1-0.5-0.4-0.7
	c-0.2-0.1-0.3-0.3-0.4-0.3c0,0-0.1,0-0.1,0c-0.1,0.1-0.5-0.1-0.5-0.2c0-0.1-0.1-0.1-0.2,0.1c-0.1,0.1-0.1,0.2-0.1,0.2
	c0.1,0.1-0.1,0.3-0.2,0.3c-0.1,0-0.1,0-0.1,0.1c0,0.1,0,0.1,0,0.1c-0.1-0.1-0.1-0.5,0-0.6c0.1,0-0.1-0.1-0.3-0.1
	c-0.3,0-0.7-0.2-1.3-0.5c-1.2-0.6-2.9-1.2-3.4-1c-0.2,0.1-0.7,0.7-0.7,1c0,0.1,0.1,0.3,0.3,0.5c0.2,0.2,0.3,0.4,0.4,0.6
	c0,0.2,0.1,0.2,0.2,0.2c0.1,0,0.1,0,0.2,0.1c0,0.1,0,0.1-0.1,0.1c-0.1,0-0.2,0.1-0.3,0.3c-0.1,0.2-0.3,0.4-0.5,0.6
	c-0.3,0.2-0.4,0.4-0.5,0.6c0,0.2-0.2,0.4-0.2,0.5s-0.2,0.2-0.3,0.3c-0.1,0.1-0.2,0.2-0.2,0.2c-0.2,0.2-0.3,0.7-0.2,1.3
	c0,0.6,0,0.7,0.2,0.6c0.1,0,0.2,0,0.3,0c0.2,0.1,0.2,0.1-0.1,0.1c-0.3,0-0.3,0.1-0.3,0.3c0.1,0.3,0.7,0.8,1.3,1
	c0.3,0.1,0.6,0.1,1.2,0c0.2,0,0.4,0,0.6,0.2c0.2,0.1,0.4,0.2,0.5,0.2c0.1,0,0.1,0,0,0.2c-0.1,0.2-0.1,0.3,0.1,1.1
	c0.3,0.8,0.3,0.9,0.7,1.3c0.4,0.4,0.5,0.5,1.1,0.3C423.9,100.6,424.1,100.5,424.2,100.3L424.2,100.3z M422.4,98.9c0,0,0-0.1,0.2-0.2
	c0.1,0,0.3,0,0.3,0s-0.1,0.1-0.2,0.2S422.5,98.9,422.4,98.9z M423.9,97.2c0-0.1,0.3-0.3,0.4-0.3c0.1,0,0,0.1-0.2,0.2
	C424,97.2,423.9,97.3,423.9,97.2L423.9,97.2z M426.5,96.1c-0.1-0.1-0.1-0.2-0.1-0.2c0-0.1,0.2,0,0.3,0.1
	C426.8,96.2,426.6,96.3,426.5,96.1z M426.8,95.8c-0.1-0.1-0.1-0.2,0-0.4c0.2-0.4,0.3-0.3,0.3,0.2C427.1,96,427,96,426.8,95.8z
	 M425.8,95.6c-0.2-0.2-0.3-0.2-0.5-0.2c-0.3,0.1-0.2-0.1,0.1-0.3c0.2-0.1,0.2-0.1,0.2,0.1c0,0.2,0.2,0.3,0.2,0.1
	c0-0.1-0.1-0.3-0.1-0.4c-0.1-0.2-0.1-0.2,0-0.3c0.3,0,0.4,0.2,0.3,0.4c-0.1,0.2-0.1,0.3,0.1,0.4c0.1,0.1,0.1,0.1,0.1,0.2
	C426.2,95.9,426.1,95.9,425.8,95.6L425.8,95.6z M424.4,95.8c0-0.1,0.1-0.3,0.2-0.2c0,0,0,0.1,0,0.2
	C424.5,95.9,424.5,95.9,424.4,95.8L424.4,95.8z M426.5,93.4c-0.1,0-0.2-0.2-0.2-0.3c-0.1-0.2-0.1-0.2,0.1-0.1c0.1,0.1,0.2,0.1,0.4,0
	c0.3-0.2,0.3-0.1,0.2,0.2C426.8,93.4,426.6,93.5,426.5,93.4L426.5,93.4z M426.7,93.2C426.8,93.2,426.7,93.1,426.7,93.2
	c-0.1-0.1-0.1,0-0.1,0c0,0,0,0.1,0.1,0.1C426.7,93.3,426.7,93.3,426.7,93.2z M423.6,94.1c-0.1,0-0.3,0-0.4-0.1
	c-0.1-0.1-0.1-0.1,0-0.1c0.1,0,0.3,0,0.5,0c0.2,0,0.3,0,0.3,0C424.1,94,424,94.1,423.6,94.1L423.6,94.1z M419.4,94.5
	c-0.2-0.1-0.3-0.1-0.3-0.2c0-0.1,0.1,0,0.2,0c0.1,0.1,0.3,0.1,0.4,0.1s0.2,0,0.2,0C420,94.6,419.7,94.6,419.4,94.5z M424.7,92
	c-0.2-0.1-0.2-0.1,0-0.1c0.1,0,0.3,0,0.3,0c0.1,0,0.1,0.3,0,0.3C425,92.1,424.9,92,424.7,92z M422.3,92.3c-0.1,0-0.1-0.1-0.1-0.1
	c0-0.1,0.5-0.1,0.5,0C422.7,92.3,422.5,92.3,422.3,92.3L422.3,92.3z M424.7,91.5c-0.1,0-0.1-0.1-0.2-0.1c0-0.1,0.2-0.2,0.3-0.1
	C425,91.4,424.8,91.6,424.7,91.5z M450.2,91c0.6-0.2,1.1-0.4,1.2-0.4c0.2-0.1,0-0.2-0.2-0.1c-0.3,0.1-1.5,0-1.7-0.2
	c-0.1-0.1-0.2-0.1-0.2-0.1s-0.2,0-0.4-0.1c-0.2-0.1-0.4-0.1-0.5-0.1c-0.1,0-0.2,0-0.2,0c0-0.1-0.4,0.1-1.3,0.5
	c-0.1,0.1-0.3,0.2-0.2,0.2s0.3,0.1,0.6,0.2c0.3,0.1,0.7,0.2,0.9,0.2c0.2,0.1,0.6,0,0.9,0c0.6-0.1,0.6-0.1,0.3,0
	c-0.3,0.2-1.1,0.2-1.5,0.1c-0.7-0.2-1.6-0.3-1.7-0.2c-0.2,0.1-0.1,0.1,0.4,0.4c0.5,0.3,0.6,0.3,0.6,0.2c0.1-0.1,0.1-0.1,0.4-0.1
	c0.9,0.2,1.3,0.2,1.5,0C449,91.5,449.6,91.2,450.2,91L450.2,91z M421.5,99c0-0.6-0.2-1.1-0.5-1.3c-0.2-0.1-0.7,0-1.3,0.3
	c-0.3,0.1-0.3,0.2-0.1,0.5c0.2,0.5,0.6,0.7,1.3,1c0.3,0.1,0.6,0.2,0.6,0.3c0,0.1,0,0,0-0.1C421.5,99.5,421.5,99.2,421.5,99L421.5,99
	z M452.1,89.9c0.4-0.3,0.6-0.6,0.6-0.9c0-0.1,0.1-0.3,0.2-0.4c0.3-0.2,0.2-0.3-0.5-0.1c-0.3,0.1-1,0.3-1.4,0.4
	c-0.5,0.1-0.8,0.2-0.8,0.3c0.1,0.2,1.6,0.3,2,0.1c0.1-0.1,0.2-0.1,0.3-0.2c0.2-0.1,0.2-0.1,0,0.1c-0.2,0.3-0.9,0.5-1.6,0.4
	c-0.4-0.1-0.7-0.2-0.8-0.2c-0.1-0.1-0.3-0.1-0.9,0.1l-0.8,0.2l0.4,0.1c0.2,0.1,0.5,0.2,0.6,0.3c0.3,0.2,0.9,0.2,1.4,0.2
	C451.6,90.3,451.6,90.3,452.1,89.9L452.1,89.9z M429.9,95.8c-0.1-0.2-0.1-0.5,0-0.7c0.1-0.2,0.1-0.4,0.1-0.5c0-0.3,0.2-0.3,0.4,0
	c0.1,0.1,0.1,0.2,0.1,0.1c0-0.1,0-0.1,0.1-0.1c0.1,0,0.1,0,0.1-0.1s-0.1-0.1-0.2-0.1c-0.2,0-0.2-0.2,0-0.2c0.3-0.1,0.4-0.1,0.1-0.2
	c-0.2,0-0.3,0-0.4,0.1c-0.1,0.2-0.3,0.3-0.3,0.1c0-0.1-0.1,0-0.2,0.2c-0.1,0.2-0.1,0.3-0.1,0.4c0.1,0.1,0,0.4-0.2,0.4
	c0,0-0.1,0.1,0,0.3c0.1,0.3,0.1,0.3-0.4,0.5c-0.3,0.1-0.2,0.2,0.3,0.1c0.3-0.1,0.5-0.1,0.5-0.2c0,0,0-0.1,0.1-0.1
	c0,0,0.1,0.1,0.1,0.2c0,0.1,0.1,0.2,0.1,0.2C430,96.2,430,96,429.9,95.8L429.9,95.8z M429.9,94.8C429.8,94.7,429.8,94.7,429.9,94.8
	c0.1-0.1,0.1-0.1,0.1,0s0,0.1,0,0.1C430,94.8,429.9,94.8,429.9,94.8z M445.2,91.2C445.3,91.2,445.3,91.1,445.2,91.2
	c0-0.1-0.1,0-0.2,0.1c-0.1,0.1-0.1,0.1,0,0.1C445.1,91.4,445.1,91.3,445.2,91.2z M427.8,96.5c0.2-0.1,0.1-0.3-0.2-0.3
	c-0.2,0-0.2,0-0.2,0.3C427.4,96.7,427.5,96.7,427.8,96.5L427.8,96.5z M428.3,96.2c-0.1-0.1,0-0.2,0-0.3c0.1-0.1,0.1-0.2,0-0.2
	c0,0,0-0.1,0-0.2c0.1-0.1,0.1-0.2-0.1-0.2c-0.2-0.1-0.2,0-0.3,0.1c-0.1,0.1-0.1,0.2-0.1,0.3c0,0.1,0,0.1,0,0s0.1-0.1,0.1-0.1
	c0,0,0.1,0,0,0.2c0,0.1,0,0.2,0,0.2c0,0,0,0.1,0,0.2c-0.1,0.1-0.1,0.1,0,0.1c0.1,0,0.1,0,0.1,0.1c0,0.1,0.1,0.1,0.1,0.1
	S428.4,96.3,428.3,96.2L428.3,96.2z M429.1,95.3l0.4-0.7l-0.3-0.2c-0.3-0.2-0.4-0.1-0.2,0.2c0.1,0.2,0.1,0.3,0,0.4
	c-0.1,0.1-0.2,0.3-0.2,0.3c0,0.1,0,0.2-0.1,0.2c0,0-0.1,0.1-0.1,0.3s0,0.2,0,0.2S428.9,95.7,429.1,95.3L429.1,95.3z M446.6,89.8
	c0.6-0.8,1.1-1.3,1.1-1.1c0,0-0.1,0.2-0.2,0.3c-0.1,0.1-0.3,0.3-0.3,0.3c0,0-0.2,0.2-0.3,0.5l-0.3,0.4l0.5-0.2
	c0.3-0.1,0.7-0.4,1-0.7c0.9-0.8,1.7-1.3,1.9-1.2c0,0,0,0.1-0.2,0.1c-0.3,0.1-0.8,0.5-1.3,0.9l-0.3,0.3l0.8-0.3
	c0.7-0.2,0.9-0.3,1.5-0.8c0.6-0.4,0.7-0.5,1-0.5c0.2,0,0.3,0,0.3-0.1c0.1-0.1-0.1-0.2-0.3-0.2c-0.1,0-0.2,0-0.3,0c0,0-0.2,0-0.3,0
	s-0.3,0-0.4,0c-0.5-0.2-3.5,0.7-3.9,1.2c-0.3,0.3-0.6,0.8-0.8,1.2c-0.2,0.4-0.2,0.5,0,0.4C445.9,90.5,446.3,90.2,446.6,89.8
	L446.6,89.8z M443.2,91.1c0.1-0.1-0.3-0.4-0.6-0.6c-0.1-0.1-0.3-0.1-0.5-0.1l-0.3,0l0.2,0.6c0.1,0.4,0.2,0.6,0.3,0.6
	C442.5,91.5,443.2,91.2,443.2,91.1z M452.6,88.1c-0.1-0.1-0.4-0.1-0.7-0.1c-0.7,0.1-0.8,0.1-1.2,0.4l-0.3,0.2l0.6-0.1
	c0.3-0.1,0.8-0.1,1-0.2c0.2,0,0.5-0.1,0.6-0.1l0.3-0.1L452.6,88.1z M427.6,95.8c0-0.1,0-0.2-0.1-0.2c-0.1-0.1-0.1-0.1-0.1,0.2
	C427.5,96,427.6,96,427.6,95.8L427.6,95.8z M441.6,90.6c-0.2-0.4-0.4-0.9-0.6-1.1c-0.2-0.2-0.3-0.4-0.4-0.5
	c-0.1-0.1-0.1-0.1-0.2,0.3c-0.1,0.3-0.1,0.5,0,0.8c0.1,0.4,0.2,0.4,0.7,0.7c0.3,0.2,0.6,0.4,0.6,0.4c0,0.1,0.1,0.1,0.1,0.1
	C441.9,91.4,441.8,91,441.6,90.6L441.6,90.6z M415.7,98.5c0-0.1,0.3-0.2,0.5-0.4s0.4-0.3,0.4-0.3c0,0,0-0.1,0.1-0.1
	c0.2-0.1,0.3-0.3,0.1-0.3c-0.3-0.1-0.4,0-0.4,0.2c0,0.1,0,0.2-0.1,0.2c-0.1,0-0.2,0-0.2-0.1c0-0.1,0-0.2,0.1-0.2
	c0.1,0,0.1-0.1,0.1-0.2c0-0.1,0.1-0.1,0.4-0.1c0.3,0,0.4,0,0.3-0.1c-0.1-0.1,0-0.2,0.3-0.3c0.2-0.1,0.4-0.1,0.4-0.1
	c0,0-0.1,0.1-0.2,0.2c-0.1,0-0.2,0.1-0.2,0.2s-0.1,0.2-0.1,0.2c-0.1,0,0,0.1,0.2,0.1c0.2,0,0.3-0.1,0.4-0.2c0.1-0.1,0.1-0.2,0.1-0.2
	c0,0,0-0.2-0.1-0.5l-0.1-0.5l-0.3,0.1c-0.2,0-0.3,0-0.4-0.1c-0.1-0.1-0.1-0.1,0.3-0.1c0.3,0,0.3,0,0.3-0.1c0-0.3-0.1-0.5-0.3-0.3
	c-0.2,0.1-0.3,0-0.2-0.1c0,0-0.1-0.2-0.2-0.3c-0.2-0.1-0.2-0.3-0.2-0.2c0.1,0,0.4,0.3,0.6,0.4c0,0,0.1,0,0.1-0.1
	c0.3-0.3,0.1-0.8-0.3-0.9c-0.3-0.1-0.4-0.2-0.2-0.3c0.1,0,0.1,0,0.1,0.1c0,0.1,0.1,0.2,0.2,0.1c0.1,0,0.2,0,0.3,0.1
	c0.1,0.1,0.2,0.1,0.2,0c0-0.1,0-0.2-0.1-0.2c-0.1,0-0.2-0.1-0.2-0.2c0-0.2-0.3-0.3-0.4-0.1c-0.1,0.1-0.4,0-0.4-0.1
	c0,0,0.1-0.1,0.2,0c0.2,0.1,0.2,0.1,0-0.1c-0.1-0.1-0.2-0.2-0.3-0.2c-0.2-0.1-0.2-0.2-0.1-0.5l0.1-0.2l0,0.2c0,0.2,0,0.2,0.1,0.1
	c0.1-0.1,0.1-0.1,0,0.1c-0.1,0.2-0.1,0.2,0.1,0.3c0.1,0.1,0.3,0.2,0.5,0.1c0.1,0,0.3,0,0.5,0.1c0.2,0.1,0.2,0.1,0.1,0.1
	c-0.2,0-0.2,0.2,0.1,0.3c0.2,0.1,0.2,0.1,0.2-0.2c0-0.4,0-0.4-0.2-0.4c-0.2-0.1-0.4-0.3-0.2-0.2c0.1,0,0.1,0,0.1-0.1
	c0,0-0.1-0.1-0.2-0.1c-0.1,0-0.2-0.1-0.2-0.3c-0.1-0.2-0.2-0.3-0.3-0.4S417,92,417,91.9c-0.1-0.2,0.2-0.2,0.3,0.1
	c0.1,0.1,0.2,0.3,0.3,0.3c0.2,0.1,0.2,0.1,0.2,0c0-0.1,0.1-0.1,0.1-0.1c0,0,0.1,0.1,0,0.2s0,0.3,0,0.3c0,0.1,0.1,0,0.1-0.2
	c0-0.2-0.1-0.7-0.2-1.1c-0.1-0.4-0.3-1.1-0.4-1.5c-0.1-0.6-0.2-0.8-0.3-0.7c-0.2,0.2-1.4-0.9-1.5-1.4c-0.1-0.4-0.6-1.1-1-1.3
	c-0.3-0.2-0.4-0.3-0.6-0.2c-0.2,0.1-0.3,0.1-0.5,0.5c-0.4,0.7-0.7,1.7-0.8,2.2c0,0.3-0.1,0.7-0.2,1c-0.3,0.8-0.3,1.1-0.1,1.3
	c0.1,0.1,0.2,0.2,0.4,0.1c0.3-0.1,0.7,0,1,0.1c0.2,0.2,0.1,0.2-0.2,0.1c-0.2-0.1-0.4-0.1-0.8,0.1c-0.5,0.2-0.5,0.2-0.6,0.6
	c-0.1,0.2-0.1,0.8-0.1,1.3c0,0.8,0,1,0.2,1.7c0.3,1,0.7,1.5,1.7,2.1c0.4,0.2,0.9,0.6,1,0.8c0.4,0.4,0.6,0.9,0.5,1c0,0-0.1,0.1,0,0.2
	s0.1-0.1,0.2-0.4C415.6,98.9,415.7,98.6,415.7,98.5L415.7,98.5z M416.5,97c0-0.1-0.1-0.1-0.3-0.1c-0.3,0-0.4-0.3-0.2-0.4
	c0.1,0,0.2,0,0.2,0.3c0,0.1,0.2,0,0.6-0.1c0.4-0.1,0.7-0.2,0.7-0.2c0.1,0.1,0.1,0.1-0.4,0.3c-0.1,0.1-0.3,0.2-0.3,0.2
	C416.8,97.1,416.6,97.1,416.5,97L416.5,97z M416.6,96.2c-0.3-0.1-0.4-0.1-0.3-0.3c0.1-0.3,0.2-0.3,0.5-0.1c0.2,0.1,0.2,0.1,0.1,0.1
	c-0.1,0-0.2,0-0.1,0.1c0,0,0.1,0.1,0.2,0.1c0.1,0,0.2,0,0.2,0.1C417.1,96.3,417,96.3,416.6,96.2L416.6,96.2z M415.9,95.7
	c-0.1-0.2,0-0.3,0.2-0.3c0.2,0,0.1,0.3,0,0.4C416,95.9,415.9,95.8,415.9,95.7z M416.9,95.4c-0.1,0-0.2,0-0.3,0
	c-0.1,0.1-0.3-0.1-0.4-0.4c-0.1-0.2,0.2-0.2,0.3,0c0.1,0.1,0.2,0.1,0.2,0.1c0.1,0,0.1,0,0.2,0.1C417.1,95.4,417.1,95.4,416.9,95.4z
	 M417.1,94.6c-0.1-0.1-0.1-0.1-0.1-0.1c0,0,0.2,0,0.2,0.1c0.1,0.1,0.1,0.1,0.1,0.1C417.3,94.7,417.2,94.7,417.1,94.6L417.1,94.6z
	 M415.8,94.8c-0.1-0.2,0-0.3,0.2-0.2c0.1,0.2,0.2,0.3,0,0.3C415.9,95,415.8,94.9,415.8,94.8z M416.4,94.7
	C416.2,94.6,416.2,94.6,416.4,94.7c0.1-0.1,0.2,0,0.2,0C416.6,94.8,416.5,94.8,416.4,94.7z M416.2,94.4c-0.1-0.1-0.2-0.3,0-0.3
	c0.1,0,0.2,0,0.3,0c0.1,0.1,0.1,0.1,0,0.2C416.3,94.5,416.3,94.5,416.2,94.4L416.2,94.4z M413,94.8c-0.1,0-0.3,0-0.4,0.1
	c-0.1,0.1-0.2,0.1-0.2,0c0-0.1,0.4-0.3,0.6-0.3c0.1,0,0.2,0.1,0.2,0.1c0,0,0,0.1,0,0.1S413.2,94.8,413,94.8L413,94.8z M415.9,93.9
	c0-0.2,0.3-0.3,0.5-0.2c0.2,0.1,0.1,0.2-0.1,0.1c-0.1-0.1-0.2,0-0.2,0.1C416,94,415.9,94.1,415.9,93.9z M416.1,93.5
	c-0.1-0.1,0-0.3,0.1-0.3c0.1,0,0.1,0.1,0.1,0.2C416.5,93.5,416.3,93.6,416.1,93.5L416.1,93.5z M417.2,92.9c0-0.1,0-0.1,0-0.1
	c0,0,0.1,0,0.1,0.1c0,0.1,0.1,0.1,0,0.1S417.2,93,417.2,92.9z M416.7,92.5c-0.1-0.1-0.1-0.2,0-0.2c0.1-0.2,0.3-0.1,0.4,0.1
	c0.1,0.1,0.1,0.2-0.1,0.2C416.9,92.6,416.7,92.6,416.7,92.5z M416.2,92.2c0-0.1,0-0.2,0.1-0.1c0.2,0,0.2,0.2,0,0.3
	C416.3,92.4,416.2,92.3,416.2,92.2z M417.6,91.8c0-0.1,0-0.1,0.1-0.1c0,0,0,0,0.1,0.1S417.7,91.9,417.6,91.8
	C417.6,91.9,417.6,91.9,417.6,91.8z M413.5,88.7c-0.1-0.1-0.2-0.1-0.2-0.1c0.1,0,0.6,0.1,0.7,0.1C414,88.8,413.7,88.8,413.5,88.7z
	 M443.6,90.3c0.1-0.2,0.2-0.4,0.2-0.6c0-0.4-0.4-1.6-0.5-1.6c-0.1,0-0.2-0.1-0.3-0.3s-0.2-0.2-0.3-0.2c-0.1,0-0.3-0.1-0.5-0.3
	c-0.4-0.4-0.7-0.6-0.5-0.3c0.2,0.2-0.1,1-0.5,1.3c-0.3,0.3-0.3,0.3-0.1,0.4c0.4,0.3,1,0.7,1.2,0.9l0.2,0.2l-0.1-0.3
	c0-0.2-0.1-0.5-0.1-0.8c0-0.2-0.1-0.6-0.2-0.9c-0.1-0.3-0.1-0.5,0-0.5c0.1,0,0.4,1.2,0.5,1.9c0,0.4,0.1,0.5,0.3,0.8
	c0.2,0.3,0.6,0.6,0.7,0.6C443.4,90.7,443.5,90.5,443.6,90.3L443.6,90.3z M428.2,94.9c0-0.1,0.1-0.2,0.2-0.3c0.1-0.1,0.2-0.2,0.1-0.3
	c0-0.1-0.1,0-0.3,0.3c-0.2,0.2-0.3,0.4-0.3,0.4s0,0,0.1,0S428.2,95,428.2,94.9L428.2,94.9z M431,93.5c-0.1,0-0.2-0.1-0.2-0.1
	c0-0.1-0.3,0-0.5,0.1c-0.1,0.2,0.1,0.2,0.5,0.2C431.2,93.7,431.3,93.6,431,93.5L431,93.5z M442.2,90.1c-0.1-0.1-0.4-0.4-0.8-0.7
	c-0.3-0.3-0.6-0.6-0.6-0.6c0,0,0.1,0.2,0.3,0.5c0.2,0.3,0.4,0.6,0.5,0.7c0.1,0.2,0.2,0.2,0.6,0.2C442.3,90.2,442.3,90.1,442.2,90.1z
	 M431.8,93.3c0-0.1,0-0.2,0.1-0.3c0.1-0.1,0.2-0.2,0.1-0.3c0-0.1-0.1-0.1-0.1,0.1c-0.1,0.1-0.1,0.2-0.2,0.2c-0.1,0-0.1,0-0.1,0.1
	c0,0-0.1,0.1-0.1,0.2c-0.3,0.1-0.2,0.3,0.1,0.2C431.7,93.4,431.8,93.4,431.8,93.3L431.8,93.3z M429.9,93.6c0-0.1-0.1-0.2-0.1-0.2
	c0,0-0.1-0.1-0.1-0.3c0-0.2-0.1-0.5-0.1-0.6c-0.1-0.2-0.1-0.3,0-0.2c0.1,0.1,0.1,0,0.1-0.2c0-0.1,0-0.3,0-0.4c0-0.3,0-0.4-0.2-0.5
	c-0.2-0.1-0.2,0,0,0.2c0.2,0.3,0.1,0.4-0.1,0.3c-0.1-0.1-0.2-0.1-0.3,0c-0.2,0.1-0.5-0.2-0.4-0.5c0-0.1,0-0.2-0.1-0.2
	c-0.1,0-0.1,0.1,0,0.2c0,0.1,0,0.2,0,0.2s-0.1,0.1-0.1,0.3c0,0.2,0,0.4,0,0.4s0.1-0.1,0-0.2c0-0.2,0.1-0.2,0.2,0
	c0,0.1,0,0.2-0.1,0.2c-0.1,0-0.1,0.1-0.1,0.1s0.1,0.1,0.2,0c0.1,0,0.1,0,0.2,0.1c0,0.1,0.1,0.1,0.1,0.1c0,0,0.1,0.1,0.2,0.2
	c0.1,0.3-0.1,0.3-0.3,0c-0.1-0.2-0.2-0.2-0.3-0.2c-0.1,0-0.1,0.1,0,0.4c0.1,0.2,0.1,0.4,0,0.3c-0.1,0-0.1,0.1,0,0.2
	c0.1,0.1,0.1,0.2,0.2,0.1c0.1,0,0.1-0.1,0.1-0.2c-0.1-0.2,0.1-0.3,0.3,0c0.1,0.2,0.2,0.2,0.3,0.1c0.3-0.2,0.5,0.3,0.1,0.5
	c-0.2,0.1-0.1,0.1,0.1,0.1C429.9,93.8,430,93.8,429.9,93.6L429.9,93.6z M429.2,92.7c-0.1-0.1-0.2-0.4-0.3-1c0,0,0,0,0.1,0.1
	C429.2,92,429.4,92.9,429.2,92.7L429.2,92.7z M432.9,92.6c0-0.1-0.1-0.1-0.2,0c-0.1,0.1-0.2,0-0.2,0c0-0.1,0-0.1-0.2,0
	c-0.2,0.1-0.2,0.1-0.1,0.2c0.1,0.1,0.2,0,0.4,0c0.2-0.1,0.2-0.1,0.2,0c-0.1,0.2-0.1,0.2,0,0.1C432.9,92.7,432.9,92.6,432.9,92.6
	L432.9,92.6z M431,92.4c0.1,0.1-0.1,0.6-0.2,0.6c-0.1,0-0.1,0.1,0,0.1c0.1,0,0.5-0.4,0.4-0.5c0-0.2,0.2-0.6,0.3-0.6
	c0.1,0,0.2-0.1,0.2-0.1c0.1-0.1,0.1-0.1-0.1-0.2c-0.2-0.1-0.2-0.1-0.3,0.2c-0.1,0.2-0.2,0.3-0.2,0.3c0,0-0.1-0.2-0.1-0.4
	c-0.1-0.3-0.2-0.5-0.3-0.5c-0.1,0-0.1,0-0.1,0c0,0,0,0.2,0,0.3c0,0.1,0,0.1,0.1,0.1c0.1-0.1,0.1,0.4,0,0.6c-0.1,0.1-0.1,0.2,0,0.2
	c0,0,0.1,0.1,0,0.2s-0.1,0-0.1,0c0-0.1,0,0-0.1,0.2c0,0.3-0.1,0.4-0.2,0.2c0-0.1,0-0.3,0.1-0.6c0.1-0.4,0.1-0.5-0.1-0.8l-0.2-0.3
	l0.1,0.4c0.1,0.4,0,0.6-0.1,0.2c-0.1-0.2-0.1-0.3-0.2-0.1c0,0.1,0,0.3,0.1,0.6c0.1,0.2,0.1,0.4,0.1,0.4c0,0-0.1-0.1-0.1-0.1
	s-0.1-0.1-0.1-0.1s0,0.2,0,0.3c0,0.1,0,0.3,0,0.3c0,0-0.1,0.1,0,0.2c0.1,0.2,0.1,0.2,0.4,0c0.3-0.2,0.3-0.2,0.3,0
	c-0.1,0.4,0,0.3,0.3-0.2C430.8,92.6,430.9,92.4,431,92.4L431,92.4z M430,92.9c0,0,0-0.1,0.1-0.1c0,0,0.1,0,0.1,0.1s0,0.1-0.1,0.1
	C430,92.9,430,92.9,430,92.9z M429,93.4c0-0.1-0.1-0.2-0.1-0.1c0,0.1,0,0.2,0,0.2C429,93.7,429.1,93.6,429,93.4z M431.5,92.6
	l0.1-0.2l0.1,0.2c0,0.1,0.1,0.2,0.1,0.1c0,0,0-0.1,0-0.2c-0.1-0.1,0-0.1,0-0.2c0.1,0,0.1-0.1,0.1-0.2c0-0.1,0.4-0.7,0.5-0.6
	c0,0.1-0.2,0.5-0.4,0.7c-0.1,0.1-0.1,0.1,0,0.1c0.1,0,0.2-0.1,0.2-0.1c0-0.1,0.1-0.2,0.3-0.3c0.2-0.2,0.3-0.2,0.4-0.1
	c0.1,0.1,0.2,0.1,0.3,0.1c0.1,0,0.2,0,0.2,0s0.1,0.1,0.1,0.1s0.1-0.1,0-0.2c0-0.1-0.1-0.2,0-0.3c0-0.1,0-0.1-0.1-0.1
	c0,0-0.1,0.1-0.1,0.1c0,0.1-0.1,0.1-0.2,0.2c-0.1,0-0.2,0-0.2-0.2c0-0.2,0-0.2-0.1-0.1c-0.1,0.2-0.2,0.1-0.2-0.2
	c0-0.2,0-0.2-0.1-0.2c-0.1,0-0.1,0,0-0.2c0.1-0.2,0.1-0.3,0-0.3c0,0-0.1,0.2-0.1,0.4s-0.1,0.4-0.2,0.4c-0.1,0-0.1,0.1-0.1,0.1
	c0,0-0.1,0.2-0.3,0.3c-0.3,0.3-0.6,0.7-0.4,0.7c0,0,0,0.1-0.1,0.2c-0.1,0.1-0.1,0.2,0,0.1C431.4,92.9,431.5,92.8,431.5,92.6
	L431.5,92.6z M428.3,93.2c0-0.1-0.1-0.1-0.2,0c-0.1,0.1-0.1,0.2-0.1,0.2c0,0,0.1,0,0.2,0C428.3,93.4,428.3,93.3,428.3,93.2z
	 M445.1,87.4c0-0.2,0-0.3,0-0.2c-0.1,0.1-0.1,0.5,0,0.5C445.1,87.7,445.1,87.6,445.1,87.4z M425.7,93.6c0,0-0.1-0.1-0.1-0.1
	c0,0-0.1,0.1,0,0.1C425.6,93.7,425.7,93.7,425.7,93.6C425.7,93.7,425.7,93.7,425.7,93.6z M427.5,93C427.5,92.9,427.5,92.9,427.5,93
	c0,0.2,0,0.2,0,0.2S427.6,93,427.5,93L427.5,93z M428.3,92.8c0-0.1-0.1-0.1-0.1-0.1c0,0-0.1,0.1,0,0.2c0,0.1,0.1,0.1,0.1,0.1
	C428.3,92.9,428.4,92.8,428.3,92.8z M433.3,91.3C433.3,91.2,433.2,91.2,433.3,91.3c-0.1-0.1-0.2,0-0.2,0.1c0,0.1,0,0.1,0.1,0.1
	C433.2,91.4,433.2,91.3,433.3,91.3z M433.8,91c0-0.1-0.1-0.1-0.1-0.1s0,0.1,0,0.1C433.8,91.1,433.8,91.1,433.8,91z M432,91.2
	c0-0.1,0-0.3,0.1-0.4c0.1-0.2,0.1-0.3,0-0.2c-0.1,0-0.2,0.1-0.2,0.2c0,0.1-0.1,0.2-0.1,0.1c0,0-0.1,0-0.1,0.1c0,0.1,0,0.1,0.1,0.1
	c0.1,0,0.1,0.1,0.1,0.2c0,0.2,0,0.2,0.1,0.2C432,91.4,432,91.3,432,91.2L432,91.2z M433.2,90.9C433.2,90.8,433.1,90.8,433.2,90.9
	c-0.1-0.1-0.2,0-0.2,0.2c0,0.2,0,0.2,0.1,0.1C433.1,91,433.1,90.9,433.2,90.9z M427.8,92.7c0-0.1-0.2-0.1-0.2,0c0,0.1,0,0.1,0.1,0.1
	C427.8,92.7,427.8,92.7,427.8,92.7z M434.6,90.4c0.1-0.1,0.1-0.1,0.2-0.1c0.2,0.1,0.3,0.1,0.1-0.2c-0.1-0.2-0.1-0.2,0.1-0.3
	c0.1-0.1,0.2-0.1,0.1-0.2c0,0-0.1,0-0.1,0c-0.1,0.1-0.1,0.1-0.1-0.1c0-0.1-0.1,0-0.2,0.2c-0.2,0.4-0.3,0.5-0.4,0.3
	c0-0.1,0-0.2,0.1-0.3c0.1-0.1,0.2-0.2,0.2-0.3c0-0.2,0-0.2-0.1,0c-0.1,0.2-0.1,0.2-0.2,0.1c0-0.2,0.2-0.5,0.3-0.5
	c0,0,0.1-0.1,0.2-0.3c0.1-0.2,0.1-0.3,0-0.2c-0.1,0.1-0.1,0-0.2-0.2c-0.1-0.4-0.1-0.8,0-0.7c0.1,0,0.1,0.1,0.1,0.2
	c0,0.1,0.1,0.2,0.2,0.3c0.1,0.1,0.2,0.2,0.1,0.2c0,0,0,0.1,0.1,0.2c0.2,0.1,0.4,0.8,0.2,0.9c-0.1,0.1-0.1,0.1,0,0.1
	c0.1,0,0.5-0.1,0.6-0.3c0-0.1,0.1-0.1,0.2-0.2c0.1,0,0.5-0.2,0.8-0.5c0.5-0.3,0.8-0.5,1.6-0.7c0.8-0.3,1-0.3,1.4-0.2
	c0.2,0,0.5,0.2,0.5,0.3l0.1,0.2l0-0.2c0-0.2-0.2-0.4-0.4-0.6c-0.2-0.2-0.4-0.4-0.4-0.5c-0.1-0.2,0-1,0.1-1.1c0,0,0.1-0.3,0.1-0.5
	c0.1-0.3,0-0.4,0-0.4c-0.1,0-0.2,0-0.3-0.1c-0.1-0.1-0.1-0.1,0-0.1c0.3,0,0.4-0.1,0.3-0.6c-0.1-0.2-0.1-0.6-0.1-0.7
	c0.1-0.4,0-0.4-0.4-0.6c-0.5-0.2-1-0.1-1.3,0.2c-0.3,0.4-0.6,0.4-1,0.2c-0.2-0.1-0.4-0.2-0.6-0.3c-0.5-0.1-0.6-0.3-0.7-0.7
	c0-0.3,0-0.3-0.2-0.2c-0.3,0.2-0.7,0.1-0.9-0.1c-0.1-0.1-0.1-0.3-0.1-0.6c0-0.2-0.1-0.5-0.1-0.6c-0.2-0.3-1.6-0.7-1.5-0.4
	c0,0.1,0,0.1-0.1,0.1c-0.1,0-0.1-0.1-0.2-0.1c-0.1-0.2-0.4-0.1-0.7,0.1c-0.3,0.2-0.3,0.3-0.4,0.9c-0.1,0.4-0.2,0.9-0.2,1.2
	c-0.2,0.6-0.2,0.8-0.3,1.2c0,0.2-0.1,0.3-0.1,0.4c-0.1,0.1-0.2,1.5-0.1,2c0,0.3,0,0.5,0,0.5c-0.1,0-0.1,0.1,0.3,0.4
	c0,0,0.1,0,0.1-0.1c0.1-0.1,0.1-0.1,0.2,0c0.1,0.1,0.4,0,0.3-0.2c0-0.1-0.1-0.1-0.1,0c-0.1,0.2-0.6,0.1-0.6-0.1
	c0-0.2,0.3-0.3,0.4-0.1c0,0.1,0.1,0.1,0.2-0.1c0.1-0.2,0.1-0.2,0.2-0.1c0.1,0.1,0.1,0.1,0.3,0.1c0.1-0.1,0.2,0,0.2,0.1
	c0.1,0.2,0.1,0.2,0.3-0.2c0.3-0.5,0.4-0.6,0.2-0.1c-0.2,0.4-0.1,0.6,0.1,0.5c0.1,0,0.3,0,0.3,0c0.2,0.1,0.3,0.4,0.1,0.5
	c-0.1,0.1-0.2,0.1-0.2,0.2c-0.1,0.1-0.2-0.2-0.1-0.3c0,0,0.1-0.1,0-0.2c0,0-0.1,0-0.1,0c0,0-0.1,0.1-0.2,0c-0.1,0-0.2-0.1-0.3-0.1
	c-0.1,0-0.2,0-0.3-0.1c0,0-0.1-0.1-0.1-0.1S432,87,432,87s0.1,0.2,0.1,0.5c0,0.5,0,0.6,0.1,0.1c0.1-0.4,0.4-0.6,0.4-0.3
	c0,0.1,0,0.3-0.1,0.4c-0.1,0.1-0.1,0.2-0.1,0.2c0,0,0,0.1,0,0.1c-0.1,0-0.1,0,0,0.1c0.1,0,0.2,0,0.2-0.1c0-0.2,0.2-0.2,0.3,0
	c0.1,0.2,0,0.2-0.2,0.2c-0.1,0-0.3,0-0.4-0.1c-0.2-0.1-0.2-0.1-0.2,0c0,0.1,0.1,0.2,0.2,0.2c0.1,0.1,0.1,0.1,0.1,0.3
	c0,0.2,0,0.2,0.1,0.2c0.1,0,0.1,0,0.2,0.1c0,0.1,0,0,0.1-0.1c0-0.3,0.2-0.5,0.4-0.4c0.1,0.1,0.1,0.4,0,0.4c-0.1,0-0.1,0.1,0,0.1
	c0.1,0.1,0.2,0.1,0.2-0.1c0-0.1,0.2-0.2,0.3-0.3c0.2-0.1,0.4,0,0.2,0.2c-0.1,0.1,0,0.2,0.1,0.2c0.1,0,0.1,0,0.1,0.1
	c0,0.2-0.2,0.2-0.4,0l-0.2-0.1l-0.1,0.4c-0.1,0.5-0.1,0.5,0.2,0.1c0.2-0.2,0.2-0.2,0.3-0.2c0.1,0.1,0.1,0.1-0.1,0.4
	c-0.2,0.3-0.2,0.3,0,0.6c0.2,0.2,0.2,0.3,0.4,0.2c0.3-0.2,0.4-0.1,0.2,0.1c-0.2,0.2-0.2,0.2,0,0.1C434.4,90.5,434.5,90.4,434.6,90.4
	L434.6,90.4z M433.9,89.9c-0.1,0,0-0.2,0.1-0.3c0.1-0.1,0.1-0.3,0.1-0.3s0-0.2,0-0.2c0.1,0,0.3,0.2,0.2,0.3c0,0,0,0.1,0,0.2
	c0.1,0.1,0.1,0.1-0.1,0.1c-0.1,0-0.1,0-0.1,0.1C434.1,90,434,90,433.9,89.9z M434.2,88.9c-0.1-0.2,0.1-0.4,0.3-0.3
	c0.1,0,0.1,0.1,0,0.2C434.3,89.1,434.2,89.1,434.2,88.9z M435.1,88.3c0-0.1,0-0.1,0.1-0.1c0.1,0,0.2-0.1,0.3-0.1
	c0.2-0.2,0.3,0,0.1,0.2C435.3,88.4,435.1,88.4,435.1,88.3L435.1,88.3z M433.9,88.5c0,0,0-0.1,0-0.2c0.1-0.2,0.1-0.4-0.1-0.4
	c-0.1,0-0.1,0,0-0.1c0.1,0,0.1-0.1,0.1-0.2c-0.1-0.1-0.1,0-0.2,0.2c-0.2,0.4-0.4,0.5-0.5,0.2c0-0.1,0-0.1,0.1-0.1
	c0.1,0,0.2,0,0.1-0.2c0-0.1,0-0.3,0.1-0.5c0.2-0.4,0.2-0.4,0.2-0.1c0,0.2,0.1,0.2,0.1,0.2c0.1,0,0.1,0.1,0.2,0.3
	c0.1,0.2,0.1,0.3,0.2,0.3c0.1,0,0.2,0.3,0.1,0.4C434.3,88.5,434,88.6,433.9,88.5z M436.9,87.3c0,0,0.1-0.1,0.2-0.2
	c0.3-0.2,0.4-0.1,0.1,0.1C437,87.4,437,87.4,436.9,87.3L436.9,87.3z M439.1,86.4c-0.1-0.1,0.1-0.2,0.3-0.2c0.2,0,0.2,0,0,0.1
	C439.3,86.4,439.2,86.4,439.1,86.4L439.1,86.4z M434.2,87.7c0-0.1,0-0.2,0-0.2c0,0,0-0.1,0-0.1c0-0.2,0.1-0.2,0.2-0.1
	c0.1,0.1,0.1,0.2,0,0.3c0,0.1-0.1,0.2,0,0.2c0,0,0,0.1,0,0.1C434.2,87.9,434.2,87.8,434.2,87.7L434.2,87.7z M435.6,87.1
	c0-0.1,0.3-0.4,0.4-0.4c0,0,0,0.1-0.1,0.2C435.7,87.1,435.7,87.2,435.6,87.1z M433.9,87.1c0-0.1,0-0.2,0-0.2c0.1,0,0.1,0.1,0.1,0.3
	C433.9,87.2,433.9,87.2,433.9,87.1z M433.7,86c0-0.1,0.5-0.7,0.6-0.6C434.4,85.4,433.9,86,433.7,86C433.7,86,433.7,86,433.7,86z
	 M434.4,85c0-0.1,0.1-0.2,0.1-0.1c0.1,0,0,0.2-0.1,0.3C434.4,85.2,434.4,85.1,434.4,85L434.4,85z M436.1,84.4c0,0,0-0.1,0.1-0.1
	c0.1,0,0.3-0.2,0.4-0.5c0.2-0.3,0.3-0.5,0.3-0.5c0.1,0-0.3,0.8-0.5,1C436.2,84.5,436.1,84.5,436.1,84.4z M432.9,84.8
	c0-0.1,0.2-0.7,0.2-0.5c0,0.1,0,0.6-0.1,0.6C433,84.9,433,84.8,432.9,84.8z M433.1,82.4c0,0,0.1-0.2,0.2-0.4
	c0.3-0.5,0.3-0.5,0.1,0.2C433.3,82.4,433.2,82.5,433.1,82.4z M431.1,91.2c0-0.1-0.1,0-0.1,0.1c0,0.2,0,0.2,0.1,0.1
	C431.1,91.3,431.1,91.2,431.1,91.2z M432.2,91C432.3,91,432.2,90.9,432.2,91c-0.1-0.1-0.1,0-0.1,0s0,0.1,0.1,0.1
	C432.2,91.1,432.2,91.1,432.2,91z M433.3,90.4c-0.1-0.1-0.1,0.1,0,0.2c0.1,0.1,0.1,0.1,0.1,0C433.4,90.5,433.3,90.5,433.3,90.4
	L433.3,90.4z M435.4,90c0-0.2,0-0.2-0.2,0c-0.1,0.1-0.1,0.2,0,0.1C435.3,90.1,435.4,90.1,435.4,90L435.4,90z M445.2,86.8
	C445.2,86.8,445.2,86.8,445.2,86.8c-0.1,0-0.2,0.1-0.1,0.2s0.1,0,0.1,0C445.2,86.9,445.2,86.9,445.2,86.8z M427.6,92.2
	c-0.1,0-0.2,0.1-0.2,0.2c0,0,0.1,0,0.1-0.1C427.6,92.3,427.7,92.2,427.6,92.2z M431.5,91c0-0.1,0-0.2,0-0.2c0,0,0,0.1-0.1,0.2
	c0,0.1,0,0.2,0,0.2C431.5,91.2,431.5,91.1,431.5,91z M426.8,92.5c0,0-0.1,0-0.1-0.1c-0.1,0-0.1,0-0.1,0.1S426.6,92.6,426.8,92.5
	C426.7,92.6,426.8,92.5,426.8,92.5z M432.9,90.3c-0.1-0.1-0.1,0.1,0,0.2c0.1,0.1,0.1,0.1,0.1,0C433,90.3,433,90.3,432.9,90.3
	L432.9,90.3z M441.1,87.8c0.1-0.1,0.1-0.2,0.1-0.3s0-0.2,0-0.3c0-0.1,0-0.2-0.2-0.5c-0.1-0.2-0.3-0.6-0.4-0.8l-0.2-0.4l-0.2,0.3
	c-0.4,0.6-0.3,1,0.3,1.7c0.2,0.2,0.3,0.3,0.3,0.4C440.9,88,441,88,441.1,87.8L441.1,87.8z M429.9,90.8c0-0.1-0.1-0.1-0.2,0.1
	c-0.1,0.1-0.1,0.3-0.1,0.4c0.1,0.2,0.1,0.2,0.2-0.1C429.9,91,429.9,90.8,429.9,90.8z M431.4,90.7c0.1-0.1,0.1-0.1,0-0.2
	c-0.1-0.1-0.1,0-0.1,0.1c0,0.1,0,0.2,0,0.2c-0.1,0-0.2-0.3-0.1-0.5c0-0.1,0-0.1-0.1-0.1c-0.2,0.1-0.2,0.6,0,0.6
	C431.2,90.9,431.2,90.9,431.4,90.7z M446.6,85.7c0.7-0.5,0.9-0.7,1.2-1.3c0.4-0.7,0.5-1.1,0.4-1.3c0-0.1,0-0.4,0-0.7
	c0.1-0.4,0-0.7-0.1-1.2c-0.2-0.6-0.2-0.7-0.2-0.4c0,0.3-0.6,1.5-0.7,1.5c0,0-0.2,0.1-0.3,0.3c-0.1,0.1-0.3,0.3-0.5,0.4
	c-0.2,0.1-0.3,0.3-0.4,0.3c-0.1,0.1-0.1,0.1-0.1,0c0-0.1,0.1-0.2,0.3-0.4c0.5-0.4,0.8-0.7,1.2-1.4c0.4-0.8,0.4-1.2,0.1-2
	c-0.2-0.3-0.3-0.6-0.4-0.6c0,0,0,0.1,0,0.2c0.1,0.2-0.1,0.7-0.4,1c-0.4,0.5-0.7,1.1-0.8,1.5c0,0.2-0.1,0.4,0,0.4c0,0.1,0,0.4-0.2,2
	c0,0.4-0.1,0.8-0.1,1l0,0.3l0.6-0.6c1.2-1.1,1.3-1.2,1.6-1.7c0.3-0.6,0.5-0.5,0.2,0.1c-0.2,0.4-0.5,0.7-1.5,1.7
	c-0.6,0.5-1,1.2-1,1.4c0,0.1,0.1,0.1,0.4,0C446.1,86.1,446.4,85.9,446.6,85.7L446.6,85.7z M428,91.4c-0.1,0-0.1,0,0,0.2
	c0.1,0.2,0.1,0.2,0.1,0.1C428.1,91.5,428.1,91.4,428,91.4z M432.9,89.9c0.3,0.1,0.2,0-0.2-0.2c-0.2-0.1-0.3-0.1-0.4,0
	c-0.1,0.1-0.1,0.1,0,0.1c0.1,0,0.1,0.1,0.1,0.2l0,0.2l0.1-0.3C432.7,89.8,432.8,89.8,432.9,89.9L432.9,89.9z M435.2,89.2
	c0.1-0.2,0-0.3-0.1-0.2c-0.2,0.2-0.2,0.2-0.1,0.3C435,89.4,435.1,89.4,435.2,89.2z M428.8,91.1c0.1-0.1,0.1-0.3,0.1-0.4
	c-0.1-0.2,0.1-0.2,0.2-0.1c0.1,0.1,0.1,0.1,0.2,0c0.2-0.3,0.1-0.4-0.3-0.3c-0.5,0.1-0.7,0.2-0.5,0.3c0.1,0,0.1,0.1,0.1,0.3
	C428.6,91.4,428.7,91.4,428.8,91.1L428.8,91.1z M429.6,90.9c0-0.2-0.1-0.2-0.1,0c0,0.1,0,0.2,0,0.1C429.5,91,429.6,91,429.6,90.9
	L429.6,90.9z M430.3,90.5c-0.2-0.4-0.2-0.4-0.3-0.4c-0.1,0-0.2,0-0.2-0.1c0-0.1-0.1-0.1-0.1,0c-0.1,0.1,0.1,0.3,0.2,0.2
	c0,0,0.1,0,0.1,0.1c0,0.1,0.1,0.2,0.1,0.3c0,0,0.1,0.1,0.1,0.1C430.3,90.9,430.3,90.7,430.3,90.5z M430.7,90.5c0-0.1-0.1-0.1-0.1,0
	c-0.1,0.1-0.1,0.2-0.1,0.2c0,0,0.1,0,0.1,0C430.7,90.7,430.7,90.6,430.7,90.5z M445,85.5c0-0.2-0.2-0.7-0.5-1.2
	c-0.5-1.1-0.7-1.5-0.7-1.9c0-0.4,0.1-0.4,0.2,0.1c0,0.3,0.2,0.7,0.6,1.6c0.6,1.3,0.6,1.3,0.8,0.1c0.1-0.7,0.1-0.7-0.2-1.4
	c-0.4-1-0.6-1.6-0.6-2c0-0.2,0.1-0.4,0.1-0.3c0,0,0.1,0.2,0,0.4c0,0.3,0.4,1.9,0.6,2.1c0.1,0.1,0.1,0.1,0.3-1.2
	c0.1-0.4,0-0.5-0.2-1.1c-0.2-0.5-0.3-0.7-0.2-1.1c0-0.2,0.1-0.5,0.1-0.5c0.1-0.1,0.1,0,0,0.3c-0.1,0.3,0.1,1.2,0.3,1.4
	c0.1,0.1,0.2-0.3,0.3-1.8c0-0.5,0-1,0-0.8c0,0.1-0.1,0.1-0.2,0.1c-0.1,0-0.2,0.1-0.3,0.4c-0.1,0.2-0.2,0.4-0.3,0.4
	c-0.1,0-0.2,0.1-0.2,0.3c-0.1,0.2-0.2,0.3-0.3,0.4c-0.1,0-0.2,0.2-0.2,0.4c0,0.2-0.1,0.3-0.2,0.3c-0.1,0-0.2,0.2-0.3,0.5
	c-0.1,0.3-0.2,0.6-0.2,0.6s-0.2,0.4-0.2,0.9c-0.2,1.1,0,2.3,0.7,3.1c0.2,0.3,0.4,0.5,0.4,0.6C445,86.3,445.1,85.8,445,85.5L445,85.5
	z M431.4,90.2C431.3,90.1,431.3,90.1,431.4,90.2c-0.1-0.1-0.1,0-0.1,0c0,0.1,0,0.1,0.1,0.1C431.3,90.3,431.4,90.2,431.4,90.2z
	 M431.9,89.9c0-0.1,0-0.2-0.1-0.3c-0.1-0.1-0.1-0.1-0.1,0c0,0.1,0,0.2-0.1,0.2c-0.1,0.1-0.1,0.1,0,0.1
	C431.8,90.1,431.9,90,431.9,89.9z M426.4,91.5c-0.1-0.1-0.2-0.2-0.2-0.2c0-0.1-0.1-0.1-0.2-0.1c-0.2,0-0.2,0.1,0.1,0.3
	c0.1,0.1,0.2,0.2,0.3,0.1C426.6,91.6,426.6,91.6,426.4,91.5L426.4,91.5z M430.7,90.1c0-0.1-0.2-0.2-0.3-0.1c-0.1,0.1,0,0.3,0.1,0.3
	C430.7,90.3,430.7,90.2,430.7,90.1L430.7,90.1z M427.4,90.9c-0.2-0.1-0.4-0.2-0.4-0.3c0-0.1-0.1-0.1-0.1,0c0,0.1-0.3,0.1-0.5-0.1
	c-0.1-0.1-0.1-0.1-0.2-0.1s0,0.2,0.2,0.3s0.3,0.3,0.4,0.2c0.2-0.1,0.3-0.1,0.3,0.1c0,0.2,0,0.2,0.3,0.1l0.3-0.1L427.4,90.9
	L427.4,90.9z M431.2,89.6c-0.1,0-0.3,0.2-0.3,0.3c0.1,0.2,0.4,0.1,0.4-0.1C431.2,89.7,431.2,89.6,431.2,89.6z M432.7,89.2
	c-0.1,0-0.1-0.1-0.1-0.1c0-0.1,0-0.1-0.1,0c-0.1,0.1-0.2,0.1-0.3-0.1c-0.1-0.1-0.1-0.1-0.1,0c0,0.2,0.2,0.4,0.5,0.3
	C432.8,89.3,432.9,89.2,432.7,89.2L432.7,89.2z M430.5,89.8c0,0,0.1-0.2,0.1-0.4l0.1-0.3l-0.2,0.1c-0.3,0.2-0.5,0.4-0.4,0.4
	c0,0,0.1,0,0.2-0.1c0.1-0.2,0.3-0.1,0.1,0.1C430.2,90,430.3,90,430.5,89.8L430.5,89.8z M428,90.1c0-0.1,0-0.2,0.1-0.1
	c0,0.1,0.1,0.1,0.1,0c0,0,0.2,0,0.3,0c0.2,0.1,0.2,0.1,0.1,0c-0.1-0.2,0-0.2,0.2-0.1c0.1,0,0.2,0,0.2,0c0,0,0-0.1-0.1-0.1
	c-0.2-0.1-0.2-0.4,0-0.5c0.1-0.1,0.2,0,0.2,0.1c0,0.1,0,0.3,0,0.3c-0.1,0.2,0.1,0.1,0.2-0.1c0.1-0.1,0.2-0.3,0.4-0.4
	c0.2-0.2,0.2-0.2,0-0.1c-0.2,0.1-0.2,0.1-0.3,0c0-0.1-0.1-0.1-0.1-0.1s0,0.2,0,0.2c0,0.1,0,0.2,0,0.2c-0.1,0-0.1,0-0.1-0.2
	c0-0.4,0-0.5-0.2-0.4c-0.1,0.1-0.2-0.3-0.1-0.5c0.1-0.1,0.2-0.2,0.3-0.2c0.2,0,0.3,0.3,0.1,0.4c-0.1,0-0.1,0.1-0.1,0.1
	c0,0.2,0.7-0.1,0.7-0.3c0-0.1,0-0.1-0.1,0c-0.1,0-0.1,0-0.2,0s0-0.2,0-0.2c0.1-0.1,0.1-0.2,0-0.4c0-0.2-0.1-0.3,0-0.3
	c0,0,0-0.1-0.1-0.2c-0.2-0.1-0.2-0.1-0.2,0.1c0,0.1,0,0.3,0,0.4c0,0.2,0,0.2-0.2,0.3c-0.2,0.1-0.2,0.1-0.3-0.2
	c-0.1-0.3-0.2-0.3-0.4-0.2c-0.1,0-0.1,0-0.1-0.1c0-0.1,0.1-0.2,0.3-0.2c0.3-0.1,0.3-0.1,0.2-0.4c-0.1-0.4,0-0.6,0.1-0.2
	c0.1,0.3,0.1,0.3,0.3,0.2c0.4-0.2,0.5-0.2,0.5,0c0.1,0.3,0.1,0.5,0,0.6c0,0,0,0.2,0.1,0.4c0.1,0.2,0.1,0.3,0.2,0.2
	c0-0.1,0.1-0.1,0.1-0.1c0.1,0,0.1,0.8,0,0.9c-0.1,0.1,0.1,0.3,0.3,0.2c0.1-0.1,0.1-0.1,0.1-0.2c0-0.1-0.1-0.2,0-0.4
	c0-0.2,0-0.3-0.1-0.4c-0.2-0.1-0.2-0.5-0.1-0.5c0.1,0,0.1-0.1,0.1-0.1s0-0.2,0.1-0.3c0.1-0.2,0.1-0.2-0.1-0.3
	c-0.2-0.1-0.2-0.1-0.1,0.1c0.1,0.2,0,0.3-0.2,0.2c-0.3-0.1-0.3-0.3,0.1-0.4c0.4-0.1,0.4-0.2,0.4-0.7c-0.1-0.5,0-1.2,0.1-1.4
	c0.1-0.2,0.5-1.9,0.7-2.7c0.1-0.8,0-1.3-0.5-1.4c-0.4-0.1-0.6,0-0.9,0.4c-0.5,0.6-1.2,0.7-1.6,0.2c-0.1-0.1-0.5-0.3-0.9-0.5
	c-0.4-0.2-0.8-0.3-0.9-0.3c-0.4-0.2-1.5,0.3-1.9,0.7c-0.1,0.2-0.3,0.4-0.4,0.4c-0.2,0.1-0.2,0.2-0.1,0.3c0.1,0.2,0,0.3-0.2,0.1
	c-0.1-0.1-0.1-0.1-0.1-0.1s-0.1,0-0.2,0c-0.1,0-0.3,0.1-0.6,0.2c-0.5,0.2-0.5,0.3-0.5,0.5c0,0.1-0.1,0.3-0.1,0.3
	c-0.3,0.1-0.4,0.5-0.5,1.2c0,0.4-0.2,0.8-0.3,1.1l-0.3,0.5l0.4,0.2c0.3,0.1,0.4,0.2,0.3,0.3c-0.1,0-0.3,0-0.4-0.2l-0.3-0.2l-0.7,0.5
	c-1,0.8-1.5,1.5-1.3,2.1c0.1,0.3,0.5,0.7,0.7,0.7c0.2-0.1,1.6,0.2,2.2,0.4c0.3,0.1,1,0.4,1.4,0.7c0.8,0.5,0.9,0.5,1.3,0.4
	c0.3-0.1,0.5-0.1,0.5-0.2c0-0.1,0-0.1-0.1-0.2c-0.1,0-0.1-0.1,0.1-0.1c0.1-0.1,0.2-0.1,0.2,0c0,0,0.1,0.1,0.1,0c0.1,0,0-0.3-0.1-0.3
	c-0.1,0,0.1-0.5,0.3-0.5c0,0,0.1-0.1,0.1-0.2c0-0.1,0.1-0.2,0.1-0.2c0.2,0,0.1-0.1-0.1-0.2c-0.2-0.1-0.4-0.6-0.3-0.6
	c0,0,0.1,0,0.1,0.1c0.1,0.2,0.4,0.5,0.5,0.3c0.1-0.1,0.2-0.1,0.4-0.1c0.3,0,0.3,0,0.2-0.2c-0.1-0.2,0.1-0.4,0.3-0.3
	c0.2,0.1,0.5-0.1,0.5-0.3c0-0.2,0.1-0.3,0.3-0.2c0,0,0,0.1-0.1,0.1c-0.1,0-0.1,0.1-0.1,0.2c0,0.1,0.1,0.1,0.2,0
	c0.1-0.1,0.1-0.1,0.1,0c0,0.1-0.1,0.2-0.7,0.4c-0.1,0-0.2,0.1-0.2,0.2c0,0.1,0,0.1,0.1,0c0.1-0.1,0.1,0,0.2,0.1
	c0.1,0.3,0,0.3-0.2,0.1c-0.1-0.1-0.2-0.1-0.2,0c0,0.1-0.1,0.1-0.2,0c-0.1-0.1-0.1-0.1-0.2,0c-0.1,0.1,0,0.3,0.1,0.3
	c0,0,0.1,0.1,0.2,0.2c0.1,0.3-0.2,0.4-0.4,0.1c-0.2-0.3-0.3-0.3-0.2,0c0,0.1,0,0.2,0,0.3c-0.1,0.1,0.2,0.4,0.5,0.5
	c0.2,0.1,0.5,0.6,0.3,0.6c-0.1,0-0.6-0.4-0.6-0.6c-0.1-0.2-0.2-0.2-0.3-0.1c0,0.1-0.1,0.1-0.2,0c-0.1,0-0.2,0-0.2,0
	c-0.1,0.1,0.3,0.3,0.5,0.3c0.1,0,0.4,0.1,0.6,0.3l0.4,0.3l0-0.2c0-0.1,0-0.3,0.1-0.3c0.1,0,0.2,0.3,0.1,0.4c-0.1,0.1,0,0.1,0.2-0.1
	C427.9,90.4,428,90.2,428,90.1L428,90.1z M427.8,89.8c-0.1,0-0.2,0-0.2,0c0,0-0.1-0.1-0.2-0.2c-0.1-0.2-0.1-0.3,0-0.4
	c0.1,0,0.1-0.2,0.1-0.3c-0.1-0.2,0.1-0.4,0.3-0.2c0.1,0.1,0.2,0.1,0.2,0c0,0,0.2-0.1,0.3-0.1c0.3-0.1,0.3,0,0.4,0.3
	c0,0.2,0,0.4,0,0.5c-0.1,0.1-0.1,0.2-0.1,0.2c0.1,0.2-0.2,0.2-0.3,0c-0.1-0.2,0-0.4,0.1-0.4c0.1,0,0.1-0.3-0.1-0.4
	c-0.1,0-0.1,0-0.1,0.1c0,0.1,0,0.1,0,0.2c-0.1,0-0.4-0.1-0.5-0.2c-0.1-0.1-0.1,0,0,0.1c0.1,0.1,0,0.2,0,0.4c-0.1,0.1-0.1,0.2,0,0.3
	c0.1,0.1,0.1,0,0.1,0c0-0.1,0-0.1,0.1-0.1c0.1,0,0.2,0,0.2,0.2C428.1,89.8,428,89.9,427.8,89.8L427.8,89.8z M427.9,88.3
	c-0.1-0.2-0.1-0.5,0.1-0.4c0.1,0,0.1,0.1,0.2,0.3C428.3,88.5,428.1,88.6,427.9,88.3z M429.9,87.7c-0.1-0.2,0.1-0.5,0.2-0.5
	c0.2,0,0.2,0.2,0,0.2c-0.1,0-0.1,0-0.1,0.2c0,0.1,0,0.2,0,0.2C430,87.9,430,87.8,429.9,87.7L429.9,87.7z M428.4,88.2
	c-0.1-0.1-0.1-0.4,0-0.5c0.2-0.1,0.3,0.2,0.2,0.4C428.6,88.2,428.5,88.3,428.4,88.2z M424.2,87.1c-0.3-0.1-0.3-0.3,0-0.2
	c0.1,0,0.3,0.1,0.3,0.1C424.5,87.1,424.4,87.1,424.2,87.1z M425.2,86.7c-0.1,0-0.1-0.1-0.1-0.2c0.1-0.1,0.2,0,0.2,0.1
	C425.4,86.7,425.3,86.7,425.2,86.7L425.2,86.7z M427.1,85.7c-0.1-0.1-0.1-0.2-0.1-0.3c0-0.1,0-0.1,0.1,0c0.1,0.1,0.2,0.2,0.2,0.2
	C427.4,85.8,427.2,85.8,427.1,85.7z M428.1,84.2c0-0.3,0.1-0.5,0.1-0.5c0.1,0.1,0,0.9-0.1,1C428,84.8,428,84.6,428.1,84.2z
	 M429.9,82.4c0,0,0.1-0.3,0.2-0.6c0.3-0.6,0.3-0.6,0.1,0.1C430.2,82.3,430,82.6,429.9,82.4z M423.7,83.6c-0.1-0.1-0.3-0.6-0.2-0.7
	c0,0,0.1,0,0.1,0.2c0,0.1,0.1,0.3,0.2,0.4C424,83.6,423.9,83.7,423.7,83.6L423.7,83.6z M427.8,81.9c0-0.3,0-0.4,0.1-0.3
	c0.1,0,0.1,0.5,0,0.5C427.8,82.1,427.8,82,427.8,81.9z M426.3,82.2c-0.1-0.1-0.2-0.7-0.1-0.8c0.1-0.1,0.3,0.8,0.2,0.9
	C426.4,82.3,426.3,82.3,426.3,82.2L426.3,82.2z M431.6,89.2c-0.1,0-0.2,0-0.2,0c0,0,0.1,0.1,0.2,0.1c0.1,0,0.2,0,0.2,0
	C431.8,89.3,431.7,89.2,431.6,89.2z M418.6,93.1c0.1-0.1,0.4-0.5,0.7-0.7c0.3-0.2,0.4-0.4,0.4-0.6c0-0.2,0.1-0.3,0.1-0.3
	c0.1,0,0-0.3-0.3-0.6c-0.3-0.3-0.5-0.8-0.4-1.2l0.1-0.2l-0.2,0.2c-0.2,0.3-0.5,1.2-0.6,1.7c0,0.2,0,0.8,0,1.2
	C418.4,93.4,418.4,93.5,418.6,93.1z M429.6,89.5c-0.1-0.1-0.1,0.1,0,0.2c0.1,0.1,0.1,0.1,0.1,0C429.7,89.6,429.7,89.5,429.6,89.5
	L429.6,89.5z M431.9,88.6c0-0.4-0.1-0.5-0.1-0.2c0,0.1-0.1,0.2-0.1,0.2c-0.1,0-0.2-0.3-0.1-0.4c0.1-0.1-0.1-0.6-0.2-0.8
	c-0.1-0.1-0.1-0.1-0.1,0.1c0,0.1,0,0.2-0.1,0.3c-0.1,0.1-0.1,0.1-0.1,0.2s0,0.1,0,0.2c-0.1,0.3-0.1,0.8,0,0.7c0.1,0,0.1-0.2,0.1-0.3
	c-0.1-0.3,0-0.5,0.2-0.3c0.1,0.1,0.1,0.2,0.1,0.2c0,0.1,0.1,0.2,0.1,0.2c0.1,0,0.1,0.1,0.1,0.2c0,0.1,0,0.1,0.1,0.1
	C431.8,89,431.9,88.8,431.9,88.6L431.9,88.6z M430.2,89.2c0,0-0.1,0-0.1,0s-0.1,0.1-0.1,0.1c0,0,0.1,0,0.1,0
	C430.2,89.2,430.2,89.2,430.2,89.2z M432.2,88.6C432.2,88.6,432.1,88.5,432.2,88.6c-0.1-0.1-0.1,0-0.1,0c0,0.1,0,0.1,0.1,0.1
	C432.2,88.7,432.2,88.6,432.2,88.6z M426.2,89.5c-0.1,0-0.1,0-0.1,0c0,0.1,0.2,0.2,0.2,0.1C426.3,89.6,426.3,89.6,426.2,89.5z
	 M431.7,87.5c-0.1,0-0.1,0-0.1,0.1c0.1,0.2,0.2,0.3,0.2,0.1C431.9,87.6,431.8,87.5,431.7,87.5z M432.5,87.6c0-0.2-0.1-0.2-0.1,0
	c0,0.1,0,0.2,0,0.1C432.4,87.7,432.4,87.6,432.5,87.6L432.5,87.6z M430.8,87.8c0-0.2,0-0.3-0.1-0.4s-0.1,0-0.1,0.2
	c0,0.1,0,0.3,0,0.4C430.6,88.3,430.7,88.1,430.8,87.8L430.8,87.8z M426.3,89.2c0,0-0.1-0.1-0.2,0c-0.1,0-0.1,0.1-0.1,0.1
	c0,0,0.1,0.1,0.2,0C426.3,89.3,426.3,89.3,426.3,89.2z M418.3,90.8c0.1-0.7,0.6-1.6,1-1.7c0.1,0-0.1-0.5-0.4-0.9
	c-0.1-0.1-0.3-0.5-0.5-0.9c-0.2-0.4-0.4-0.8-0.5-1c-0.1-0.1-0.3-0.4-0.5-0.7c-0.3-0.4-0.7-0.8-0.9-0.8c-0.1,0,0,0.3,0.1,0.9
	c0.1,0.5,0.3,1.2,0.4,1.6c0.1,0.7,0.2,0.7,0.4,0.7c0.3,0.1,0.4,0.2,0.1,0.3c-0.2,0-0.2,0,0,0.9c0.1,0.5,0.3,1.2,0.4,1.5
	c0.1,0.3,0.2,0.6,0.2,0.6C418.2,91.3,418.3,91.1,418.3,90.8L418.3,90.8z M429.1,87.2c0-0.1-0.1,0-0.1,0.1c0,0.1-0.1,0.2-0.1,0.1
	c0,0,0,0,0,0.1c0.1,0.2,0.1,0.2,0.2,0C429.1,87.4,429.1,87.3,429.1,87.2z M446.6,80.1c0.2-0.2,0.3-0.4,0.3-0.9
	c0.1-0.7,0.1-0.7-0.2-1c-0.3-0.4-0.4-0.4-0.4,0c0,0.2-0.1,0.8-0.1,1.4c-0.1,0.9-0.1,1.1,0,0.9C446.3,80.4,446.5,80.2,446.6,80.1
	L446.6,80.1z M438,83c0.2-0.3,0.2-0.4-0.2-0.4c-0.3,0-0.3,0-0.5-0.4c-0.3-0.6-1.1-1.3-1.5-1.2c-0.1,0-0.2,0-0.2-0.1
	c0-0.1-0.3-0.3-0.6-0.4c-0.5-0.2-0.6-0.2-0.4,0c0.1,0.1,0.2,0.3,0.2,0.8c0.1,0.6,0.1,0.7,0.3,0.7c0.2,0.1,0.3,0.1,0.5-0.1
	c0.3-0.2,0.4-0.2,0.5,0.4c0.1,0.4,0.2,0.4,0.5,0.5c0.4,0.1,0.6,0.2,0.8,0.4C437.7,83.3,437.7,83.3,438,83L438,83z M417.2,88.7
	c-0.1-0.2-0.2-0.6-0.3-0.9c-0.1-0.3-0.2-0.7-0.2-1c0-0.2-0.1-0.7-0.2-1.1c-0.1-0.6-0.2-0.7-0.4-0.8c-0.4-0.3-1.3,0.1-1.7,0.7
	l-0.2,0.4l0.3,0.1c0.4,0.2,0.7,0.5,1.1,1.2c0.2,0.3,0.4,0.7,0.5,0.8c0.2,0.3,0.9,1,1.1,1C417.3,89.1,417.3,88.9,417.2,88.7z
	 M419.7,86.5c0.1-0.1,0.3-0.3,0.5-0.4c0.5-0.3,1.1-1.1,1.3-1.5c0.1-0.2,0.2-0.6,0.2-0.9s0-0.6,0-0.7c0-0.2,0-0.2-0.1,0
	c-0.1,0.1-0.3,0.2-0.5,0.3c-0.8,0.4-1.5,1.6-1.8,3.1C419.2,87,419.2,87,419.7,86.5z M430,80.5l0.5-0.6l-0.5-0.2
	c-0.4-0.1-0.6-0.1-1,0c-0.4,0.1-0.4,0.2-0.4,0.4c0,0.3-0.2,0.4-0.2,0.1c0-0.1-0.1-0.1-0.3-0.1c-0.2,0-0.2,0-0.1,0.1
	c0.1,0,0.2,0.2,0.3,0.4c0.3,0.4,0.7,0.7,1,0.6C429.4,81.1,429.7,80.8,430,80.5L430,80.5z M421.2,82.8c0,0-0.1-0.2-0.2-0.3
	c-1-1.2-1.9-4.1-2-6.9c-0.1-1-0.1-1.4-0.2-0.8c-0.1,1.1,0.2,2.8,0.6,4.5c0.3,1.2,0.3,1.5,0,1.3c-0.2-0.1-0.2-0.1-0.1,0.1
	c0,0.3-0.3,0.4-0.5,0.2c-0.1-0.1-0.1-0.1,0,0.1c0.1,0.2,0.3,0.5,0.5,0.7c0.2,0.2,0.5,0.6,0.6,0.8c0.6,0.8,0.5,0.8,0.9,0.5
	C421.1,82.9,421.2,82.8,421.2,82.8L421.2,82.8z M422.3,82.1c0.8-0.4,0.8-0.5,0.7-0.7c-0.3-0.3-0.4-0.3-0.5-0.2
	c-0.2,0.3-0.7,0.6-1.1,0.7c-0.4,0.1-0.4,0.1-0.1,0.5l0.2,0.3l0.3-0.2C421.9,82.3,422.2,82.2,422.3,82.1L422.3,82.1z M424.6,80.6
	c0.3-0.3,0.5-0.5,0.8-0.6c0.3-0.1,0.4-0.2,0.4-0.3c0-0.1,0.1-0.4,0.2-0.7c0.1-0.4,0.1-0.5,0-0.9c-0.1-0.2-0.2-0.5-0.3-0.7l-0.2-0.2
	l-0.6,0.2c-0.4,0.2-0.8,0.3-1.1,0.3c-0.5,0-1.3-0.1-1.4-0.3c0,0-0.2-0.2-0.4-0.2c-0.2-0.1-0.4-0.3-0.4-0.4c0-0.1-0.1-0.2-0.1-0.2
	c-0.1,0-0.6-0.4-0.7-0.5c0,0-0.1-0.1-0.2-0.2c-0.2-0.2-0.7-0.9-0.7-1.1c-0.1-0.2,0-0.5,0.1-0.4c0,0,0.1,0.1,0.1,0.3
	c0,0.1,0.1,0.3,0.1,0.3c0.1,0,0.1,0.1,0.2,0.2c0.1,0.3,0.7,1,0.9,1.1c0.1,0,0.3,0.2,0.5,0.4S422,77,422,77c0,0,0.1,0,0.1,0.1
	c0,0.1,0.2,0.2,0.5,0.3c0.5,0.2,1.1,0.2,1.8,0c0.6-0.2,0.6-0.3,0.3-0.5c-0.3-0.2-0.3-0.2-1,0c-0.8,0.3-1.2,0.3-1.5,0
	c-0.3-0.2-0.3-0.3,0-0.2c0.5,0.2,0.7,0.2,1.4,0c0.6-0.2,0.6-0.2,0.5-0.3c-0.1-0.1-0.4-0.3-0.6-0.5c-0.6-0.5-1-0.7-1.7-0.6
	c-0.6,0.1-0.9,0.1-1.2-0.1c-0.4-0.1-0.3-0.3,0.1-0.2c0.3,0.1,1.7,0,1.7-0.1c0,0-0.2-0.2-0.4-0.3c-0.2-0.2-0.4-0.3-0.4-0.3
	c-0.1-0.2-0.7-0.5-1-0.5c-0.2,0-0.4,0-0.5-0.1c-0.1-0.1-0.1,0-0.3,0.2c-0.1,0.2-0.3,0.4-0.5,0.4c-0.3,0.1-0.3,0.3-0.2,1.2
	c0.1,0.7,0.1,0.9,0.3,0.8c0.3-0.1,1.9,1,2.4,1.6c0.2,0.2,0.4,0.5,0.5,0.7c0.3,0.4,0.7,1.4,0.6,1.8c-0.1,0.3,0,0.3,0.4,0.6
	C423.8,81.4,424,81.3,424.6,80.6L424.6,80.6z M435.7,77.3c0.4-0.1,0.7-0.3,0.7-0.4c0-0.1,0.2-0.2,0.4-0.3c0.2-0.1,0.3-0.2,0.3-0.2
	c0,0,0.1-0.1,0.2-0.2c0.5-0.3,1.1-0.9,1.1-1c0-0.1,0-0.1,0.1-0.2s0.2-0.1,0.3-0.3c0.1-0.1,0.2-0.3,0.3-0.3c0.1,0,0-0.1-0.2,0
	c-0.4,0.1-0.5-0.1-0.1-0.2l0.3,0l-0.3-0.2c-0.2-0.1-0.5-0.2-0.7-0.3c-0.2-0.1-0.6-0.2-0.7-0.3c-0.2-0.1-0.4-0.1-0.4-0.1
	c-0.1,0-0.3,0-0.5,0c-0.2,0-0.5,0-0.6,0c-0.1,0-0.2,0-0.3,0c0-0.1-0.5,0-1.8,0.3c-2.8,0.8-3.3,0.9-4,1.7c-0.5,0.6-0.9,1.4-0.8,1.7
	c0,0,0.3-0.1,0.6-0.2c0.6-0.3,0.7-0.4,1.7-1.6c0.6-0.7,1-1.1,1.1-0.9c0,0-0.1,0.1-0.2,0.2s-0.4,0.4-0.7,0.7c-0.2,0.3-0.6,0.8-0.8,1
	l-0.4,0.4l1.1-0.3c1.6-0.5,2.3-1,3.2-2.2c0.2-0.3,0.4-0.5,0.6-0.5c0.3-0.1,0.3-0.1,0,0.2c-0.2,0.2-0.5,0.5-0.6,0.7s-0.4,0.5-0.5,0.6
	c-0.1,0.1-0.2,0.2-0.3,0.3c-0.1,0-0.2,0.1-0.2,0.2c-0.1,0.2,0,0.1,1-0.2c1.1-0.4,1.1-0.4,1.7-0.9c0.5-0.5,1.1-0.8,1.2-0.6
	c0,0-0.1,0.1-0.2,0.2c-0.2,0.1-1,0.7-1.1,0.9c0,0,0.2,0,0.4,0c1.3-0.3,2-0.5,2-0.4c0,0.1-0.1,0.1-1.4,0.5l-0.9,0.2l0.5,0.3
	c0.5,0.3,0.5,0.3,1,0.1c0.5-0.2,0.7-0.1,0.3,0.1c-0.4,0.3-0.9,0.3-1.4,0c-0.3-0.1-0.6-0.3-0.7-0.3c-0.2-0.1-0.4,0-1.4,0.3L433,76
	l0.9,0.5c0.9,0.5,1.2,0.6,1.8,0.5c0.3,0,0.4,0,0.2,0.1c-0.2,0.1-0.7,0.2-1.1,0.1c-0.2,0-0.6-0.3-0.9-0.5c-0.4-0.2-0.8-0.4-0.9-0.4
	c-0.2,0-0.6,0.1-1.4,0.3c-1.4,0.4-1.3,0.3-0.2,0.8c0.8,0.3,1.3,0.4,1.7,0.3c0.2-0.1,0.3-0.1,0.2,0c-0.1,0.1-0.2,0.2-0.3,0.2
	c-0.3,0.1-1.3-0.1-1.6-0.3c-0.1-0.1-0.5-0.2-0.7-0.3c-0.4-0.1-0.6-0.2-1.1,0c-0.5,0.1-0.5,0.2-0.5,0.3c0.2,0.7,2.1,1.1,3.4,0.8
	c0.3-0.1,0.8-0.2,1-0.2C433.6,78.1,434.6,77.8,435.7,77.3L435.7,77.3z M421.4,81.7c0-0.1,0-0.1,0.1,0c0.1,0.1,0.6-0.2,0.7-0.4
	c0.1-0.2,0.1-0.2-0.1-0.4c-0.2-0.1-0.3-0.1-0.9,0.1l-0.7,0.2l0.1,0.2C420.7,81.8,421.4,82,421.4,81.7L421.4,81.7z M426.4,79.7
	c0-0.1,0-0.3,0-0.6c0.1-0.5,0.6-1.2,1.1-1.5c0.2-0.1,0.3-0.2,0.2-0.2c-0.1,0-0.3,0.1-0.5,0.2c-0.2,0.2-0.4,0.3-0.5,0.3
	c0,0,0-0.2,0-0.4c0.1-0.4,0.1-0.6,0.5-2.2c0.1-0.5,0.2-0.9,0.2-1c0,0,0-0.2,0.1-0.3c0.1-0.1,0.1-0.2,0.1-0.3c0,0,0-0.4,0.1-0.8
	c0.1-0.8,0.4-1.3,0.6-1.4c0.1,0,0.1-0.1,0-0.1c-0.1,0-0.1-0.1-0.1-0.6c0-0.3,0-0.5,0-0.5s-0.1,0.1-0.1,0.1c0,0,0,0.2-0.1,0.4
	c-0.1,0.3-0.2,0.3-0.3,0.2c-0.1-0.1-0.1-0.1-0.1,0.1c0.1,0.2,0,0.6-0.2,1.4c0,0.1-0.1,0.3-0.1,0.5c0,0.3-0.1,0.8-0.4,2
	c0,0.1-0.1,0.3-0.1,0.4s-0.1,0.5-0.2,1c-0.1,0.5-0.2,1-0.3,1.1c-0.1,0.2-0.1,0.3-0.1,0.4c0.1,0.2-0.1,0.2-0.3,0
	c-0.1-0.1-0.1-0.1,0,0.2c0.1,0.3,0.1,0.6,0,1c-0.1,0.3-0.1,0.6,0,0.6C426.3,79.9,426.4,79.8,426.4,79.7L426.4,79.7z M418.5,81.1
	c-0.7-0.8-1.8-2-2-2c-0.1,0-0.1,0,0,0.1c0.1,0.1,0.2,0.3,0.4,0.5c0.3,0.5,1.6,1.9,1.9,1.9C419,81.8,419,81.7,418.5,81.1L418.5,81.1z
	 M422.7,80.3c0.1-0.3-0.3-1.4-0.5-1.5c-0.1-0.1-0.2-0.2-0.2-0.2c0-0.1-0.1-0.1-0.1-0.2c-0.1,0-0.1-0.1-0.1-0.2
	c-0.1-0.2-0.5-0.7-0.6-0.7c0,0-0.1,0-0.1-0.1c0-0.1-0.5-0.4-1.3-0.7l-0.3-0.1l0,0.2c0,0.1,0,0.3,0.1,0.3c0.1,0.1,0.3,0.5,0.4,0.9
	c0.3,0.8,0.3,0.8,0.8,1.1c0.2,0.2,0.6,0.4,0.8,0.5c0.4,0.3,0.6,0.4,0.5,0.3c-0.1-0.1-0.2-0.3-0.3-0.6c-0.1-0.3-0.3-0.7-0.4-0.9
	c-0.1-0.2-0.1-0.4-0.1-0.4c0,0,0.3,0.4,0.5,0.9s0.5,1,0.6,1.1c0.1,0.1,0.2,0.2,0.1,0.2c0,0.1,0,0.1,0.1,0.2
	C422.6,80.6,422.6,80.6,422.7,80.3L422.7,80.3z M421.7,80.5c0,0-1.9-1.4-1.9-1.4c-0.1,0,0.4,1.5,0.6,1.8c0.1,0.1,0.2,0.1,0.7-0.1
	C421.4,80.7,421.7,80.5,421.7,80.5L421.7,80.5z M418.9,79.7c-0.3-0.3-0.6-0.9-0.8-1.2c-0.4-0.7-0.7-1.1-0.5-0.6
	c0.3,0.7,1.5,2.5,1.7,2.4C419.3,80.4,419.1,80.1,418.9,79.7z M417.9,79.8c-0.3-0.3-1.4-1.2-1.4-1.2c0,0-0.1,0-0.1-0.1
	c0-0.1-0.8-0.7-1.1-0.9c-0.4-0.3-0.3,0,0.1,0.3c0.2,0.2,0.9,0.7,1.5,1.2C418,79.9,418.3,80.1,417.9,79.8L417.9,79.8z M418,79.2
	c-0.2-0.3-0.4-0.6-0.4-0.7c0-0.1-0.2-0.2-0.4-0.2c-0.2,0-0.4-0.1-0.4-0.1c0,0,0-0.1-0.1,0c0,0.1,0.5,0.5,0.7,0.7
	c0.1,0.1,0.5,0.5,0.8,0.8c0.1,0.1,0.1,0.1,0.1,0.1C418.4,79.7,418.2,79.5,418,79.2L418,79.2z M419.1,78.8c-0.1-0.3-0.2-0.4-0.5-0.5
	l-0.4-0.2l0.3,0.5c0.3,0.5,0.5,0.6,0.7,0.6C419.1,79.2,419.1,79,419.1,78.8L419.1,78.8z M419.7,78.2l-0.2-0.5l0.1,0.4
	c0,0.2,0.1,0.5,0.2,0.6C420,78.9,420,78.8,419.7,78.2L419.7,78.2z M425.1,76.7c-0.1-0.1-0.3-0.2-0.3-0.1
	C424.8,76.6,424.8,76.7,425.1,76.7c0.1,0.2,0.2,0.2,0.2,0.2C425.3,76.9,425.2,76.8,425.1,76.7L425.1,76.7z M425.3,75.7
	c-0.2-0.7-1.4-2.4-1.6-2.3c0,0-0.1-0.1-0.2-0.2c-0.1-0.1-0.3-0.2-0.5-0.3c-0.2-0.1-0.5-0.2-0.6-0.4c-0.1-0.1-0.4-0.4-0.6-0.5
	c-0.4-0.2-0.4-0.2-0.8-0.1c-0.2,0.1-0.5,0.2-0.5,0.2c0,0-0.2,0.1-0.3,0.2c-0.3,0.1-0.3,0.1-0.1,0.2c0.1,0,0.4,0.2,0.6,0.4
	c0.4,0.4,0.4,0.4,0.4,0.1c0-0.1-0.1-0.4-0.2-0.5c-0.1-0.2-0.1-0.3-0.1-0.3c0.1,0,0.4,0.5,0.5,1c0.1,0.4,0.1,0.4,0.4,0.7
	c0.2,0.1,0.5,0.4,0.7,0.6l0.4,0.3l-0.1-0.7c-0.1-0.4-0.2-0.8-0.3-1c-0.1-0.3-0.1-0.3,0-0.3c0.1,0.1,0.2,0.2,0.5,1.2
	c0.2,0.9,0.3,1.1,0.5,1.2c0.1,0.1,0.3,0.2,0.4,0.3c0.1,0.1,0.4,0.3,0.6,0.5l0.4,0.3l-0.2-0.9c-0.1-0.5-0.3-1.1-0.4-1.3
	c-0.1-0.2-0.1-0.4-0.1-0.4c0.1,0,0.4,0.6,0.6,1.6c0.2,1,0.3,1,0.6,1.3l0.3,0.3l0-0.3C425.4,76.3,425.4,76,425.3,75.7z M418.7,76.8
	c0-0.3,0-0.3-0.6-0.4c-0.7-0.1-0.9-0.1-0.8,0.1c0.1,0.2,0.5,0.8,0.6,1c0.1,0.1,0.1,0-0.2-0.6c-0.1-0.1-0.1-0.3,0-0.3
	c0,0,0.1,0,0.1,0c0.1,0.3,0.5,0.9,0.9,1.2l0.4,0.3l-0.1-0.5C418.8,77.4,418.7,77,418.7,76.8L418.7,76.8z M417.2,77.7
	c-0.1-0.2-0.2-0.4-0.2-0.4s-0.2-0.1-0.3-0.2l-0.3-0.2l0,0.4c0,0.5,0.1,0.6,0.4,0.7C417.3,78.2,417.4,78.1,417.2,77.7z M416.1,77
	c0-0.1,0-0.2,0-0.3c0-0.1,0-0.2,0-0.3c0.1-0.2,0.1-0.3-0.2-0.3c-0.3,0-0.4-0.2-0.7-0.7c-0.2-0.3-0.2-0.3-0.4-0.2
	c-0.1,0.1-0.2,0.1-0.2,0c0,0,0-0.1,0.1-0.2c0.1,0,0-0.1-0.1-0.1c-0.2,0-0.2,0-0.2,0.2c0,0.1,0.1,0.3,0.1,0.4c0,0.1,0.1,0.2,0.3,0.3
	c0.2,0.1,0.3,0.2,0.4,0.5c0.1,0.2,0.1,0.4,0.1,0.5c0,0.1,0.1,0.3,0.4,0.5l0.4,0.3l0-0.3C416.1,77.3,416.1,77.1,416.1,77z
	 M417.1,76.7c-0.3-0.7-0.3-0.8-0.1-1c0.3-0.5,0-1.5-0.4-1.4c-0.2,0-0.2,0.1-0.1,0.3l0.1,0.3l-0.2-0.2c-0.2-0.4-0.6-0.1-0.5,0.4
	c0,0.2,0,0.2-0.1,0c-0.2-0.2-0.3-0.1-0.2,0.2c0.2,0.4,0.4,0.6,0.9,0.7c0.4,0.1,0.4,0.1,0.6,0.5c0.1,0.4,0.4,1,0.4,0.9
	C417.4,77.4,417.3,77.1,417.1,76.7L417.1,76.7z M416.3,75.8c-0.1,0-0.2-0.1-0.2-0.2c0,0,0.2,0,0.3,0
	C416.7,75.8,416.6,75.9,416.3,75.8z M415,77.3c0.2-0.3,0.2-0.5,0.1-0.9c-0.1-0.2-0.4-0.4-0.5-0.3c0,0.1-0.2,0.1-0.3,0.2l-0.2,0.1
	l0.2,0.1c0.1,0,0.2,0.1,0.3,0.2c0,0.1,0,0.1-0.2,0c-0.2-0.1-0.3-0.1-0.3-0.1c0,0-0.1,0.2-0.1,0.4c0,0.2,0,0.3-0.1,0.3
	c0-0.1-0.1-0.1-0.1-0.1c-0.1,0.1,0.1,0.3,0.4,0.5C414.3,77.9,414.6,77.7,415,77.3L415,77.3z M436.1,70.7c0.2-0.2,1.2-0.8,1.4-0.9
	c0.2-0.1,0.8-0.6,0.8-0.7c0,0,0-0.1,0.1-0.1c0.1,0,0.2-0.2,0.4-0.4c0.2-0.3,0.2-0.3,0-0.2c-0.2,0.1-0.9,0.1-1.3,0
	c-0.7-0.2-0.8-0.2-1.9,0.2c-0.6,0.2-1.2,0.4-1.3,0.5l-0.3,0.1l0.3,0.1c0.1,0,0.3,0.1,0.4,0.2c0.1,0.1,0.5,0.2,1.4,0.4
	c0.2,0.1,0.5,0,0.8-0.1c0.3-0.1,0.4-0.1,0.4,0c0,0.1-0.2,0.2-0.4,0.2c-0.3,0.1-0.6,0.1-1.1,0c-0.6-0.1-0.9-0.2-1.8-0.6
	c-0.2-0.1-0.6,0-2.1,0.6l-1,0.4l1,0.4c1.1,0.4,1.5,0.5,2.2,0.4c0.4-0.1,0.4-0.1,0.3,0c-0.3,0.3-1.2,0.3-2.3-0.1
	c-0.4-0.2-0.9-0.3-1-0.4c-0.3-0.1-0.9,0-1,0.1c-0.1,0.1,0.4,0.5,1,0.6c0.3,0.1,0.6,0.2,0.6,0.3c0.1,0.1,0.3,0.1,0.5,0.1
	c0,0,0.2,0,0.4,0s0.6-0.1,0.9-0.2c0.3-0.1,0.6-0.2,0.7-0.2C434.6,71.3,436,70.9,436.1,70.7L436.1,70.7z M416.6,76.4
	c-0.1-0.2-0.1-0.2-0.1-0.1c0,0.1,0,0.2,0.1,0.3C416.7,76.8,416.7,76.7,416.6,76.4z M413.5,76.8c0.1-0.2-0.1-0.3-0.6-0.4
	c-0.3,0-0.6-0.2-0.8-0.3c-0.3-0.3-0.3-0.2,0,0.2c0.2,0.3,0.7,0.7,0.9,0.6c0,0,0-0.1,0-0.1c0,0,0-0.1,0.1-0.1c0.1,0,0.2,0,0.2,0.1
	C413.2,77,413.4,76.9,413.5,76.8L413.5,76.8z M412,76.6c-0.1-0.2-0.2-0.3-0.3-0.2c0,0.1-0.1-0.3-0.3-0.7c-0.2-0.5-0.2-0.9-0.2-0.9
	c0,0,0.1,0.1,0.2,0.2c0.3,0.6,0.5,0.8,0.9,1c0.4,0.3,0.5,0.1,0.2-0.3c-0.1-0.2-0.3-0.4-0.3-0.5c0-0.1-0.2-0.3-0.4-0.5
	c-0.5-0.5-0.4-0.6,0.2-0.3c0.2,0.2,0.6,0.3,0.7,0.3c0.2,0,0.4,0.1,0.5,0.2c0.2,0.1,0.2,0.1,0.2,0c-0.1-0.2-0.6-0.7-1-0.9
	c-0.5-0.2-0.5-0.2-0.3-0.3c0.1-0.1,0.1-0.1-0.2-0.1c-0.2,0-0.4,0-0.4,0c-0.1,0-0.2,0-0.3-0.1c-0.3-0.2-0.3-0.1-0.1,0.2
	c0.2,0.2,0.2,0.4,0.3,0.7l0,0.4l-0.1-0.3c-0.2-0.6-0.4-0.8-0.8-1c-0.7-0.4-0.7-0.3-0.2,1.2c0.5,1.5,0.8,1.9,1.3,2.2
	c0.2,0.1,0.4,0.2,0.4,0.2S412.2,76.8,412,76.6L412,76.6z M411.7,76.7c0,0,0-0.1,0.1-0.1c0,0,0.1,0,0.1,0.1c0,0,0,0.1-0.1,0.1
	C411.8,76.8,411.7,76.7,411.7,76.7z M411,75.9c-0.1-0.1-0.2-0.7-0.1-0.8c0,0,0.1,0.1,0.1,0.4C411.2,75.9,411.2,76,411,75.9z
	 M411.6,73.7C411.6,73.6,411.6,73.6,411.6,73.7C411.7,73.7,411.7,73.8,411.6,73.7C411.7,73.9,411.7,73.8,411.6,73.7z M413.8,76
	c-0.1-0.4-0.5-0.8-1-1c-0.3-0.1-0.5-0.1-0.4-0.1c0.1,0.3,0.8,1.1,1.1,1.3C413.9,76.5,414,76.4,413.8,76z M413.5,76
	c0,0,0-0.1,0.1-0.1c0,0,0.1,0,0.1,0.1s0,0.1-0.1,0.1C413.6,76.1,413.5,76.1,413.5,76z M439.4,67.8c0.5-0.3,0.4-0.4-0.2-0.2
	c-0.3,0.1-0.5,0.1-0.5,0.1c-0.1-0.1-1.5,0.3-1.4,0.4c0,0.1,0.6,0.2,1,0.2C438.7,68.3,438.8,68.2,439.4,67.8L439.4,67.8z M414.2,75.4
	c-0.1-0.3-0.2-0.6-0.3-0.7c-0.1-0.1-0.2-0.2-0.2-0.2c0,0,0.4,1.2,0.5,1.3C414.3,76,414.3,75.8,414.2,75.4z M419.7,73.8
	c0.2-0.4,0.1-0.9-0.2-1.2c-0.2-0.3-0.5-0.2-0.3,0.1c0.1,0.1,0.1,0.2,0,0.2c-0.2,0.1-0.3-0.3-0.2-0.5c0.1-0.2,0.1-0.5,0-0.9l-0.1-0.6
	l-0.1,0.4c0,0.2,0,0.5,0,0.8c0.1,0.3,0.1,0.4,0,0.4c-0.1,0-0.1,0.1-0.1,0.1c0,0-0.1,0.2-0.2,0.4c-0.3,0.4-0.4,0.3-0.1-0.2
	c0.2-0.3,0.2-0.4,0-0.6c-0.1-0.2-0.2-0.5-0.3-0.8c-0.2-0.5-0.2-0.5-0.2-0.3c-0.1,0.3,0,0.9,0.2,0.9c0.1,0,0.1,0.1,0.1,0.1
	c0,0.1,0.1,0.2,0.2,0.3c0.2,0.2,0.2,0.2,0,0.5c-0.2,0.4-0.2,0.7,0,1.1c0.3,0.5,0.4,0.6,0.8,0.4C419.5,74.1,419.6,74,419.7,73.8
	L419.7,73.8z M419.1,74.1c0-0.1,0-0.3,0.1-0.4c0.2-0.4,0.3-0.3,0.1,0.2C419.2,74.1,419.1,74.2,419.1,74.1L419.1,74.1z M418.6,73.6
	C418.5,73.5,418.5,73.5,418.6,73.6C418.6,73.6,418.6,73.7,418.6,73.6C418.6,73.8,418.6,73.7,418.6,73.6z M420.4,73.3l-0.4-0.4
	l0.1,0.3c0.1,0.4,0.3,0.5,0.5,0.5C420.8,73.6,420.8,73.6,420.4,73.3L420.4,73.3z M430.8,69.9c0.6-0.4,0.9-0.7,1.4-1.4
	c0.6-0.8,0.9-1.1,1.2-1.2c0.2-0.1,0.2,0-0.1,0.2c-0.2,0.2-0.6,0.6-1,1.1c-0.4,0.5-0.8,0.9-0.9,1s-0.2,0.2-0.2,0.3
	c0,0.1,1.8-0.5,2.4-0.8c0.2-0.1,0.7-0.5,1.1-1c0.4-0.4,0.9-0.9,1.1-1c0.3-0.3,0.9-0.4,0.9-0.3c0,0-0.1,0.1-0.3,0.2
	c-0.2,0.1-0.4,0.2-0.6,0.3c-0.2,0.2-1.5,1.5-1.5,1.6c0,0,0.6-0.2,1.3-0.4c1-0.4,1.4-0.5,1.6-0.7c0.5-0.5,1-0.8,1.2-0.8
	c0.3,0-0.5-0.3-1-0.4c-0.5-0.1-0.8-0.1-1.9,0.1c-1.1,0.2-3.2,0.9-3.8,1.3c-0.4,0.3-1,0.9-1.2,1.2c-0.2,0.3-0.5,1.2-0.5,1.2
	C430,70.4,430.4,70.2,430.8,69.9L430.8,69.9z M439.3,67.3c-0.1-0.4-0.9-0.3-1.6,0c-0.7,0.4-0.7,0.6-0.1,0.4c0.3-0.1,0.8-0.2,1-0.2
	C439.3,67.4,439.4,67.4,439.3,67.3L439.3,67.3z M414.6,74.5c-0.1-0.1-0.2-0.4-0.3-0.5c-0.2-0.2-0.2-0.2-0.2,0c0,0.4,0.4,0.8,0.6,0.7
	C414.8,74.8,414.7,74.7,414.6,74.5z M415.3,74.3c-0.1-0.2-0.3-0.4-0.4-0.4c-0.1-0.1-0.4-0.3-0.5-0.5c-0.3-0.4-0.3-0.4-0.2-0.1
	c0.1,0.4,0.6,1,0.9,1.3C415.4,74.7,415.5,74.6,415.3,74.3z M415.9,73.9c0-0.2-0.1-0.4-0.3-0.6c-0.2-0.2-0.4-0.5-0.5-0.6
	c-0.1-0.1-0.2-0.2-0.2-0.1c0,0.1,0.1,0.3,0.1,0.6c0.1,0.4,0.3,0.8,0.6,1.2C415.7,74.4,415.9,74.2,415.9,73.9z M416.6,73.8
	c0-0.1,0-0.2-0.1-0.2c-0.1,0-0.1-0.1-0.1-0.1s0-0.1,0.1-0.1c0.3,0.1,0-0.5-0.4-0.9c-0.1-0.1-0.1,0,0.1,0.7c0.2,0.7,0.3,0.8,0.4,0.8
	C416.5,74,416.6,73.9,416.6,73.8z M428.5,70C428.5,69.8,428.5,69.8,428.5,70c-0.1,0.1-0.2,0.2-0.1,0.2
	C428.4,70.2,428.4,70.1,428.5,70z M426.3,70.1c0.1-0.1,0.1-0.3,0-0.4c-0.1,0-0.4,0-0.9,0.1c-0.9,0.2-1,0.2-1.6,0
	c-0.7-0.3-0.6-0.4,0.1-0.1c0.6,0.2,0.7,0.2,1.4,0l0.7-0.2l-0.5-0.5c-0.3-0.3-0.7-0.6-0.9-0.7l-0.4-0.3l-0.8,0.2
	c-0.9,0.3-1.2,0.3-1.7-0.1c-0.3-0.3-0.4-0.3-0.3-0.4c0,0,0.2,0.1,0.3,0.2c0.4,0.4,0.8,0.4,1.6,0.2c0.4-0.1,0.7-0.3,0.7-0.3
	c0-0.1-0.4-0.4-1.3-0.9c-0.7-0.4-0.8-0.4-1.1-0.3c-0.4,0.1-1,0.1-1-0.1c0-0.1,0-0.1,0.3,0c0.4,0.1,0.8,0.1,0.8,0
	c0-0.1-0.2-0.2-0.5-0.4c-0.7-0.4-0.8-0.5-1-0.6c-0.2-0.2-0.2-0.1,0.1,0.9c0.3,0.8,0.5,1.2,0.7,1.5c0.5,0.6,0.7,0.9,1,1
	c0.1,0,0.2,0.1,0.2,0.2s0.1,0.1,0.2,0.2s0.2,0.1,0.2,0.2c0,0.1,0.2,0.2,0.4,0.4c0.2,0.1,0.4,0.3,0.4,0.4c0,0.1,0.4,0.4,0.7,0.5
	C424.9,70.7,425.9,70.5,426.3,70.1L426.3,70.1z M414,73.8c0-0.1,0-0.3-0.1-0.4c0-0.1,0-0.1,0-0.1s0-0.1,0-0.2c-0.1-0.6-0.2-1,0-1
	c0.1,0,0.1,0,0.2,0.1c0,0.1,0-0.1,0-0.4c0-0.6-0.2-1.1-0.4-1.4l-0.2-0.2l0,0.2c0,0.1,0,0.6-0.1,0.9c-0.2,1.2-0.1,1.9,0.3,2.5
	C413.9,74.2,414,74.2,414,73.8z M413.6,73c-0.1-0.2,0-0.6,0.1-0.6c0,0,0.1,0.1,0.1,0.3C413.7,73,413.6,73.2,413.6,73z M420.1,71.8
	c0.1-0.2,0.2-0.7,0-1.1l-0.1-0.3l0,0.3c0,0.2-0.1,0.5-0.3,0.8c-0.1,0.3-0.2,0.5-0.2,0.6C419.7,72.2,420,72,420.1,71.8L420.1,71.8z
	 M426.7,69.8c-0.1-0.1-0.2-0.1-0.2-0.1C426.5,69.7,426.5,69.7,426.7,69.8c0,0.1,0.1,0.2,0.1,0.2C426.8,69.9,426.8,69.9,426.7,69.8z
	 M416.4,72.1c-0.3-0.5-0.7-0.9-1.2-1.2l-0.4-0.2l0.1,0.4c0.1,0.2,0.1,0.3,0.2,0.3c0.1-0.1,0.4,0.2,0.5,0.4c0,0.1,0.1,0.1,0.2,0.2
	c0.1,0,0.1,0,0-0.1c-0.1-0.1-0.1-0.2,0-0.2c0.1,0,0.1,0.1,0.1,0.2c0,0.2,0.1,0.4,0.4,0.6c0.2,0.2,0.4,0.4,0.4,0.5c0,0.1,0,0,0-0.1
	C416.6,72.6,416.5,72.3,416.4,72.1L416.4,72.1z M415.4,72c-0.1-0.2-0.3-0.4-0.3-0.3c0,0-0.1,0.1-0.1,0.2c0,0.2,0,0.3,0.4,0.7
	l0.4,0.5l0-0.4C415.7,72.5,415.6,72.3,415.4,72z M420.6,71.1c0-0.3,0-0.6-0.1-0.7c-0.1-0.2-0.1-0.1-0.1,0.5
	C420.4,71.7,420.6,71.8,420.6,71.1z M427,68.7c0.1-0.7-0.4-1.7-1.3-2.5c-0.3-0.3-0.7-0.6-0.8-0.7c-0.1,0-0.3-0.2-0.5-0.3
	c-0.2-0.1-0.4-0.2-0.4-0.2c-0.1,0-0.3-0.1-0.6-0.2c-0.4-0.2-0.6-0.2-0.9-0.2c-0.2,0-0.6,0-0.8,0s-0.6,0-0.9,0s-0.7,0.1-0.8,0
	s-0.3,0-0.4,0c-0.1,0,0.2,0.3,0.9,0.7c0.9,0.5,1.1,0.6,1.1,0.4c0-0.2-0.2-0.5-0.5-0.7c-0.2-0.1-0.3-0.2-0.2-0.3c0,0,0.2,0.1,0.4,0.2
	c0.3,0.2,0.4,0.2,0.5,0.7c0.1,0.5,0.2,0.5,0.6,0.8c0.3,0.2,0.6,0.4,0.8,0.5c0.2,0.1,0.4,0.3,0.5,0.4c0.1,0.1,0.2,0.2,0.2,0.2
	c0,0-0.1-0.5-0.3-1.2c-0.3-1-0.4-1.2-0.5-1.3c-0.2-0.1-0.3-0.3-0.1-0.3c0.4,0.1,0.5,0.4,0.9,1.6c0.3,1.2,0.4,1.5,0.9,1.7
	c0.1,0.1,0.5,0.3,0.8,0.5l0.5,0.4l-0.4-1.4c-0.2-0.8-0.5-1.5-0.6-1.6c-0.2-0.2-0.2-0.4,0-0.3c0.1,0.1,0.3,0.6,0.8,1.9
	c0.3,1,0.6,1.8,0.6,1.8C426.7,69.7,427,69,427,68.7L427,68.7z M414.7,72.5c0-0.3-0.1-0.6-0.1-0.7c0-0.2,0-0.2,0.1-0.1
	c0.1,0.1,0.2,0.1,0.1-0.1c0-0.3-0.4-1.1-0.6-1.2c-0.1,0-0.2-0.1-0.2-0.2s-0.1-0.1-0.2-0.2c-0.1-0.1-0.1,0,0,0.2
	c0.3,0.4,0.5,1.1,0.4,1.6c0,0.2-0.1,0.4-0.1,0.4c-0.1,0,0.3,0.7,0.4,0.9C414.8,73.4,414.8,73.1,414.7,72.5z M419.8,70.8
	c0-0.3,0-0.7,0-0.9c-0.1-0.7,0.1-0.6,0.3,0.1c0.1,0.4,0.2,0.3,0.2-0.2c0-0.4-0.1-0.5-0.3-0.7l-0.2-0.3l-0.1,0.5
	c-0.1,0.5-0.3,1-0.4,1.1c0,0,0,0.2,0,0.4c0.1,0.2,0.1,0.5,0.1,0.6c0,0.2,0,0.2,0.1,0C419.6,71.4,419.7,71.1,419.8,70.8L419.8,70.8z
	 M417.8,71c0-0.3,0-0.3-0.1-0.2c-0.2,0.3-0.2,0.5,0,0.8l0.2,0.3l0-0.3C417.8,71.5,417.8,71.2,417.8,71L417.8,71z M418.6,71
	c0,0,0-0.3,0.1-0.6c0.1-0.3,0.2-0.6,0.2-0.7c0-0.3,0.2-0.4,0.2-0.2c0,0,0,0.2,0,0.4c0,0.3,0,0.3,0.1,0.2c0.2-0.3,0.3-1,0.2-1.5
	l-0.1-0.5l-0.2,0.5c-0.2,0.5-0.6,1.4-0.7,1.4c-0.1,0,0,1.1,0,1.3c0.1,0.2,0.1,0.2,0.1,0C418.6,71.2,418.7,71,418.6,71z M417.8,70.4
	c0.1,0,0.1-0.1,0.1-0.1s0.1-0.3,0.2-0.5c0.2-0.4,0.2-0.4,0.4-0.3c0.1,0.1,0.2,0.1,0.2-0.1c0.3-0.6,0.5-1.4,0.4-1.7l-0.1-0.3
	l-0.1,0.3c-0.1,0.3-0.7,1.1-0.8,1.1c-0.2,0.1-0.8,1.2-0.8,1.6c-0.1,0.7,0,0.8,0.2,0.4C417.5,70.5,417.7,70.4,417.8,70.4L417.8,70.4z
	 M417.7,69.8c0-0.2,0.3-0.7,0.4-0.6c0,0,0,0.2-0.2,0.4C417.8,69.9,417.7,69.9,417.7,69.8z M430.8,65.8c0.7-0.3,1.3-0.8,1.9-1.6
	c0.4-0.6,0.8-1.3,0.7-1.4c0-0.1,0.1-1.5,0.1-1.8c0-0.1,0-0.2,0-0.3c0-0.1,0-0.2,0.1-0.2c0.1,0,0.1-0.2,0-0.3s-0.1-0.4-0.1-0.6
	c0-0.2-0.1-0.7-0.2-1c-0.2-0.6-0.2-0.6-0.2-0.3c0,0.6-0.1,0.9-0.7,1.5c-0.3,0.3-0.5,0.7-0.6,0.8c-0.1,0.1-0.1,0.3-0.2,0.3
	c-0.1,0-0.2,0.2-0.6,1.3c-0.2,0.5-0.3,0.9-0.3,0.8c0,0,0.2-0.2,0.4-0.4c0.2-0.2,0.6-0.6,0.9-0.8c0.6-0.5,1.1-1.3,1-1.5
	c0-0.1,0-0.1,0-0.2c0.2-0.1,0.2,0.3,0,0.7c-0.1,0.3-0.4,0.6-0.8,0.9c-0.6,0.5-1.2,1-1.5,1.4c-0.1,0.1-0.3,0.5-0.4,0.9
	c-0.4,1.2-0.4,1.1,0.1,0.8c0.2-0.2,0.6-0.4,0.9-0.6c0.4-0.2,1-0.7,1.2-1.1c0.1-0.1,0.2-0.4,0.2-0.6c0.1-0.3,0.1-0.4,0.2-0.3
	c0.1,0.4-0.4,1.3-1,1.8c-1.7,1.1-2.1,1.5-2.2,1.9c0,0.2,0,0.2,0.1,0.1C430.1,66.1,430.5,66,430.8,65.8L430.8,65.8z M429.7,65.3
	c0-0.4-0.1-0.8-0.3-1.8c-0.3-1.2-0.4-1.6-0.2-1.7c0,0,0.1,0.1,0,0.3c0,0.2,0.1,0.7,0.4,1.5l0.4,1.2l0.2-0.5c0.3-0.8,0.3-1.4,0-2.6
	c-0.1-0.6-0.2-1.1-0.2-1.3c0-0.2,0-0.4,0-0.5c0-0.1,0-0.2,0.1-0.2s0.1,0.3,0.1,0.7c0,0.4,0.1,0.9,0.2,1.2c0.1,0.3,0.2,0.7,0.2,1
	c0,0.2,0.1,0.4,0.1,0.4c0,0,0.1-0.2,0.1-0.4c0-0.2,0.2-0.7,0.3-1c0.2-0.6,0.2-0.7,0.1-1.2c-0.2-0.8-0.2-1.5,0.1-2
	c0.3-0.5,0.4-0.4,0.1,0.1c-0.2,0.5-0.2,1.1-0.1,1.7l0.1,0.4l0.2-0.8c0.4-1.4,0.5-1.8,0.6-1.9c0,0,0.1-0.2,0.2-0.4
	c0.1-0.3,0.1-0.3,0-0.2c-0.1,0.1-0.3,0.2-0.5,0.3c-0.7,0.4-0.9,0.5-1.3,1c-0.2,0.3-0.5,0.5-0.5,0.5c-0.1,0-0.1,0.1-0.2,0.3
	c0,0.2-0.1,0.3-0.1,0.3c-0.1,0-0.6,1-0.7,1.5c-0.1,0.2-0.2,0.6-0.4,0.9c-0.2,0.4-0.3,0.6-0.2,1.3c0,0.8,0,0.8,0.4,1.4
	c0.2,0.3,0.4,0.7,0.5,0.9C429.6,66.2,429.6,66.1,429.7,65.3L429.7,65.3z M432.8,59.3c0.2-0.4,0.3-1.5,0.1-1.8
	c-0.1-0.2-0.1-0.2-0.4,0.9c-0.2,0.6-0.4,1.3-0.5,1.6l-0.2,0.5l0.4-0.4C432.4,59.8,432.7,59.4,432.8,59.3z M432,59.2
	c0.1-0.3,0.2-0.5,0.1-0.5c0,0-0.3,0.8-0.4,1.1C431.7,60,431.8,59.8,432,59.2z M443.8,114.4c-0.1-0.1-0.1-0.2-0.1-0.3
	c-0.1-0.2,0.1-0.1,0.3,0.1C444,114.5,443.9,114.6,443.8,114.4L443.8,114.4z M443.3,114.5c-0.1-0.1-0.1-0.2-0.1-0.2
	c0.1-0.1,0.2,0,0.2,0.2C443.4,114.6,443.4,114.6,443.3,114.5L443.3,114.5z M439.5,108.9c-0.1-0.1-0.1-0.2,0-0.2
	c0.1,0,0.3,0.3,0.2,0.3C439.6,109,439.5,109,439.5,108.9z M437.5,106c-0.1-0.1-0.1-0.2-0.1-0.2c0-0.1,0.3,0.1,0.3,0.2
	C437.8,106.2,437.7,106.2,437.5,106L437.5,106z M437.8,105.6c0-0.1,0-0.2,0-0.2c0.1,0,0.1,0.1,0.2,0.2c0,0.1,0,0.2,0,0.2
	S437.9,105.7,437.8,105.6z"/>
<rect x="35.9" y="-59.4" class="st0" width="223.5" height="395.4"/>
<text transform="matrix(4.489659e-11 -1 1 4.489659e-11 165.1045 336.0332)" class="st7 st2 st3">THE</text>
<rect x="420.8" y="196.6" class="st0" width="486.5" height="157.8"/>
<text transform="matrix(1 0 0 1 420.8367 318.2051)" class="st7 st2 st4 st5">SHOP</text>
</svg>
