<svg width="98" height="105" viewBox="0 0 98 105" fill="none" xmlns="http://www.w3.org/2000/svg">
<path d="M50.4375 0H46.6875V8.1001H50.4375V0Z" fill="#F23D7E"/>
<path d="M50.5687 14.344C46.3295 14.1695 42.0987 14.8543 38.1309 16.3571C34.1631 17.86 30.5402 20.1498 27.4803 23.089C24.4203 26.0281 21.9864 29.5558 20.325 33.4598C18.6635 37.3639 17.8089 41.5637 17.8125 45.8065C17.8292 51.5198 19.393 57.1218 22.3378 62.0177C25.2826 66.9136 29.4984 70.9205 34.5375 73.6128V79.5191C34.5474 82.3456 35.6746 85.0535 37.6732 87.0521C39.6719 89.0508 42.3798 90.178 45.2062 90.1879H53.3812C56.2092 90.1829 58.92 89.0573 60.9197 87.0576C62.9194 85.0579 64.045 82.3471 64.05 79.5191V73.6128C69.2285 70.8628 73.5372 66.7228 76.4918 61.6583C79.4464 56.5937 80.9297 50.8054 80.775 44.944C80.4673 36.9938 77.1976 29.4461 71.6083 23.7839C66.019 18.1218 58.5143 14.7546 50.5687 14.344ZM61.3687 70.7816C61.0497 70.9336 60.78 71.1726 60.5909 71.4712C60.4018 71.7697 60.301 72.1157 60.3 72.4691V79.5191C60.3 81.3541 59.571 83.1139 58.2735 84.4114C56.976 85.7089 55.2162 86.4379 53.3812 86.4379H51.1687V56.1566L55.5937 54.6378C56.1768 56.2192 57.3113 57.5369 58.7886 58.3483C60.2658 59.1598 61.9864 59.4105 63.6338 59.0543C65.2812 58.6981 66.7445 57.7589 67.7546 56.4096C68.7646 55.0603 69.2534 53.3916 69.131 51.7106C69.0086 50.0296 68.2832 48.4493 67.0884 47.2606C65.8936 46.0718 64.3096 45.3545 62.628 45.2407C60.9464 45.1269 59.2802 45.6242 57.9361 46.6411C56.592 47.658 55.6603 49.1261 55.3125 50.7753L49.2937 52.8378L43.2937 50.7753C42.9788 49.0944 42.0668 47.5841 40.7258 46.5229C39.3849 45.4616 37.7054 44.921 35.9972 45.0007C34.2889 45.0803 32.6671 45.775 31.4308 46.9565C30.1944 48.138 29.427 49.7266 29.2699 51.4295C29.1129 53.1324 29.5768 54.8346 30.5762 56.2223C31.5755 57.61 33.0429 58.5896 34.7078 58.9804C36.3726 59.3712 38.1226 59.1469 39.6351 58.3488C41.1476 57.5507 42.3204 56.2327 42.9375 54.6378L47.3625 56.1566V86.4379H45.2062C43.3728 86.4329 41.6159 85.7024 40.3194 84.4059C39.023 83.1095 38.2924 81.3525 38.2875 79.5191V72.4691C38.2882 72.1177 38.1901 71.7731 38.0045 71.4748C37.8188 71.1764 37.5531 70.9362 37.2375 70.7816C32.5515 68.4998 28.599 64.9503 25.8283 60.5358C23.0576 56.1213 21.5798 51.0185 21.5625 45.8065C21.56 42.1632 22.2755 38.5552 23.668 35.1885C25.0606 31.8218 27.1028 28.7625 29.6782 26.1854C32.2535 23.6084 35.3114 21.564 38.6771 20.1692C42.0429 18.7744 45.6504 18.0565 49.2937 18.0565H50.4187C57.4182 18.4296 64.0261 21.4029 68.9477 26.3939C73.8693 31.3849 76.7499 38.0338 77.025 45.0378C77.1695 50.3805 75.7692 55.6513 72.9921 60.2178C70.215 64.7843 66.1791 68.4523 61.3687 70.7816ZM58.8937 52.2378C58.8937 51.5888 59.0862 50.9544 59.4467 50.4148C59.8073 49.8752 60.3197 49.4547 60.9193 49.2063C61.5189 48.958 62.1786 48.893 62.8151 49.0196C63.4516 49.1462 64.0363 49.4587 64.4952 49.9176C64.9541 50.3765 65.2666 50.9612 65.3932 51.5977C65.5198 52.2342 65.4548 52.8939 65.2065 53.4935C64.9581 54.0931 64.5375 54.6055 63.9979 54.9661C63.4583 55.3266 62.824 55.5191 62.175 55.5191C61.3047 55.5191 60.4701 55.1734 59.8548 54.558C59.2394 53.9426 58.8937 53.1081 58.8937 52.2378ZM39.6937 52.2378C39.6975 52.8876 39.5082 53.5238 39.1499 54.0659C38.7916 54.6079 38.2805 55.0314 37.6812 55.2826C37.082 55.5339 36.4217 55.6015 35.7839 55.477C35.1462 55.3526 34.5598 55.0415 34.099 54.5834C33.6382 54.1253 33.3239 53.5406 33.1957 52.9036C33.0676 52.2666 33.1315 51.6059 33.3793 51.0052C33.6271 50.4046 34.0476 49.891 34.5876 49.5296C35.1276 49.1682 35.7627 48.9753 36.4125 48.9753C37.2795 48.9753 38.1113 49.3184 38.7261 49.9297C39.3409 50.541 39.6888 51.3708 39.6937 52.2378Z" fill="white"/>
<path d="M97.1249 44.6626H89.0249V48.4126H97.1249V44.6626Z" fill="#F23D7E"/>
<path d="M8.09991 44.6626H0V48.4126H8.09991V44.6626Z" fill="#F23D7E"/>
<path d="M15.0955 9.84817L12.1853 12.2131L17.2938 18.4989L20.2039 16.134L15.0955 9.84817Z" fill="#F23D7E"/>
<path d="M77.294 71.6488L74.3838 74.0139L79.4923 80.3001L82.4025 77.935L77.294 71.6488Z" fill="#F23D7E"/>
<path d="M14.5143 67.5536L7.26978 71.1768L8.9471 74.5308L16.1916 70.9077L14.5143 67.5536Z" fill="#F23D7E"/>
<path d="M86.1857 18.5406L78.9412 22.1636L80.6185 25.5175L87.863 21.8945L86.1857 18.5406Z" fill="#F23D7E"/>
<path d="M58.4436 93.5815H41.5686C41.0713 93.5815 40.5944 93.7791 40.2428 94.1307C39.8911 94.4824 39.6936 94.9593 39.6936 95.4566V99.0004C39.6936 100.592 40.3257 102.118 41.451 103.243C42.5762 104.368 44.1023 105 45.6936 105H54.3186C55.1065 105 55.8867 104.845 56.6147 104.544C57.3427 104.242 58.0041 103.8 58.5612 103.243C59.1184 102.686 59.5603 102.024 59.8619 101.297C60.1634 100.569 60.3186 99.7883 60.3186 99.0004V95.4566C60.3186 94.9593 60.1211 94.4824 59.7694 94.1307C59.4178 93.7791 58.9409 93.5815 58.4436 93.5815ZM56.5686 99.0004C56.5686 99.5971 56.3316 100.169 55.9096 100.591C55.4876 101.013 54.9153 101.25 54.3186 101.25H45.6936C45.0969 101.25 44.5246 101.013 44.1026 100.591C43.6807 100.169 43.4436 99.5971 43.4436 99.0004V97.3316H56.5686V99.0004Z" fill="white"/>
</svg>
