<svg width="98" height="105" viewBox="0 0 98 105" fill="none" xmlns="http://www.w3.org/2000/svg">
<path d="M10.4552 0H6.97021V104.552H10.4552V0Z" fill="white"/>
<path d="M67.9586 0H64.4736V5.2276H0V8.71267H6.97012V95.8393H0V99.3244H64.4736V104.552H67.9586V99.3244H76.6713V95.8393H67.9586V8.71267H76.6713V5.2276H67.9586V0ZM64.4736 95.8393H10.4552V8.71267H64.4736V95.8393Z" fill="white"/>
<path d="M17.4255 43.5634H20.9106V40.0783H54.0186V43.5634H57.5037V40.0783H60.9888V36.5932H57.5037V17.4252H60.9888V13.9402H57.5037V10.4551H54.0186V13.9402H20.9106V10.4551H17.4255V13.9402H13.9404V17.4252H17.4255V36.5932H13.9404V40.0783H17.4255V43.5634ZM22.6531 36.5932L54.0186 18.6799V36.5932H22.6531ZM49.1918 17.4252L20.9106 33.596V17.4252H49.1918Z" fill="#F23D7E"/>
<path d="M29.6232 64.4739C32.5808 64.5384 35.5102 63.8867 38.1616 62.5746C40.3754 61.4637 42.8301 60.9189 45.306 60.9889C47.7765 60.9167 50.2261 61.4617 52.4329 62.5746C55.0914 63.8843 58.0258 64.5357 60.9888 64.4739V60.9889C58.5182 61.0611 56.0687 60.5161 53.8618 59.4032C51.2033 58.0935 48.2689 57.4421 45.306 57.5039C42.343 57.4421 39.4087 58.0935 36.7502 59.4032C34.5426 60.514 32.0935 61.0589 29.6232 60.9889C27.1473 61.0589 24.6926 60.5141 22.4788 59.4032C19.8274 58.091 16.8981 57.4394 13.9404 57.5039V60.9889C16.411 60.9167 18.8605 61.4617 21.0674 62.5746C23.7259 63.8843 26.6603 64.5357 29.6232 64.4739Z" fill="#F23D7E"/>
<path d="M29.6232 73.1866C32.5808 73.251 35.5102 72.5994 38.1616 71.2872C40.3754 70.1763 42.8301 69.6314 45.306 69.7014C47.7765 69.6292 50.2261 70.1742 52.4329 71.2872C55.0914 72.5969 58.0258 73.2483 60.9888 73.1866V69.7014C58.5182 69.7736 56.0687 69.2286 53.8618 68.1157C51.2033 66.8059 48.2689 66.1545 45.306 66.2163C42.343 66.1545 39.4087 66.8059 36.7502 68.1157C34.5426 69.2265 32.0935 69.7714 29.6232 69.7014C27.1473 69.7714 24.6926 69.2266 22.4788 68.1157C19.8274 66.8035 16.8981 66.1518 13.9404 66.2163V69.7014C16.411 69.6292 18.8605 70.1742 21.0674 71.2872C23.7259 72.5969 26.6603 73.2483 29.6232 73.1866Z" fill="#F23D7E"/>
<path d="M29.6232 81.8988C32.5808 81.9633 35.5102 81.3117 38.1616 79.9995C40.3754 78.8887 42.8301 78.3439 45.306 78.4139C47.7765 78.3417 50.2261 78.8867 52.4329 79.9995C55.0914 81.3092 58.0258 81.9606 60.9888 81.8988V78.4139C58.5182 78.4861 56.0687 77.9411 53.8618 76.8282C51.2033 75.5186 48.2689 74.8672 45.306 74.9289C42.343 74.8672 39.4087 75.5186 36.7502 76.8282C34.5426 77.939 32.0935 78.4839 29.6232 78.4139C27.1473 78.4839 24.6926 77.9391 22.4788 76.8282C19.8274 75.5161 16.8981 74.8645 13.9404 74.9289V78.4139C16.411 78.3417 18.8605 78.8867 21.0674 79.9995C23.7259 81.3092 26.6603 81.9606 29.6232 81.8988Z" fill="#F23D7E"/>
<path d="M35.2864 87.1265H13.9404V90.6116H35.2864V87.1265Z" fill="#F23D7E"/>
<path d="M27.8806 48.791H13.9404V52.2759H27.8806V48.791Z" fill="#F23D7E"/>
<path d="M97.5817 41.9428C97.5759 41.7397 97.5346 41.5392 97.4597 41.3503V41.2109V41.089L90.0191 28.1071C89.8656 27.8412 89.6445 27.6206 89.3783 27.4676C89.1121 27.3146 88.8102 27.2346 88.5031 27.2359C88.199 27.2377 87.9007 27.3191 87.6378 27.4719C87.3749 27.6248 87.1566 27.8438 87.0045 28.1071L79.5988 41.1064C79.5916 41.1526 79.5916 41.1996 79.5988 41.2458C79.5894 41.2918 79.5894 41.3392 79.5988 41.3852C79.5239 41.5741 79.4826 41.7746 79.4768 41.9777L79.5639 96.7628C79.6899 99.0684 80.7261 101.23 82.4447 102.772C84.1633 104.314 86.4238 105.111 88.7296 104.988C90.9908 105.027 93.1786 104.185 94.8304 102.64C96.4823 101.096 97.4689 98.9692 97.5817 96.7105V41.9428ZM82.7528 46.6128L83.3104 46.7522L83.6589 46.8393C84.0028 46.9103 84.3532 46.9453 84.7044 46.9439C86.0619 46.953 87.3781 46.4772 88.416 45.6021C89.4525 46.4657 90.761 46.9348 92.1101 46.9264C92.4545 46.9234 92.7982 46.8942 93.1382 46.8393H93.417L94.0792 46.6651L94.0966 90.6116H82.7353L82.7528 46.6128ZM88.416 32.4634L94.0443 42.2913C94.0006 42.4032 93.9419 42.5087 93.8701 42.605L93.6784 42.8141C93.2621 43.158 92.7373 43.3433 92.1973 43.3368C91.6627 43.3422 91.1438 43.1568 90.7335 42.8141C90.5844 42.6971 90.4621 42.5494 90.3749 42.381C90.2877 42.2127 90.2377 42.0276 90.2282 41.8383C90.2282 41.3761 90.0446 40.9329 89.7178 40.6061C89.391 40.2793 88.9478 40.0957 88.4857 40.0957C88.0235 40.0957 87.5803 40.2793 87.2535 40.6061C86.9267 40.9329 86.7431 41.3761 86.7431 41.8383C86.7153 42.0679 86.6419 42.2896 86.5275 42.4906C86.413 42.6916 86.2596 42.8678 86.0763 43.0089C85.8931 43.1501 85.6835 43.2533 85.4599 43.3125C85.2364 43.3718 85.0032 43.386 84.7741 43.3542C84.5368 43.3506 84.3015 43.3095 84.0771 43.2323H83.868L83.4846 43.0232L83.3104 42.8663C83.2101 42.7867 83.122 42.6928 83.049 42.5875L82.9444 42.4133V42.239L88.416 32.4634ZM88.416 101.485C87.7317 101.547 87.0418 101.474 86.3858 101.27C85.7298 101.065 85.1206 100.733 84.593 100.293C84.0654 99.8527 83.6298 99.3128 83.311 98.7041C82.9923 98.0953 82.7966 97.4297 82.7353 96.7454V94.0967H94.0966V96.6931C94.0417 97.3804 93.8514 98.0502 93.5366 98.6637C93.2218 99.2771 92.7887 99.8223 92.2623 100.268C91.7359 100.713 91.1266 101.05 90.4695 101.259C89.8123 101.468 89.1204 101.545 88.4334 101.485H88.416Z" fill="white"/>
<path d="M90.1127 51.2217L86.6277 51.2266L86.6826 90.5381L90.1676 90.5332L90.1127 51.2217Z" fill="white"/>
</svg>
