<?xml version="1.0" encoding="utf-8"?>
<!-- Generator: Adobe Illustrator 24.1.0, SVG Export Plug-In . SVG Version: 6.00 Build 0)  -->
<svg version="1.1" id="Layer_1" xmlns="http://www.w3.org/2000/svg" xmlns:xlink="http://www.w3.org/1999/xlink" x="0px" y="0px"
	 viewBox="0 0 680 163" style="enable-background:new 0 0 680 163;" xml:space="preserve">
<style type="text/css">
	.st0{fill:none;}
	.st1{fill:#EE6C4D;}
	.st2{font-family:'OpenSans-Bold';}
	.st3{font-size:100px;}
	.st4{letter-spacing:5;}
	.st5{fill:#ACD85A;}
	.st6{fill:none;stroke:#000000;stroke-miterlimit:10;}
</style>
<rect x="22" y="45.2" class="st0" width="544" height="91.8"/>
<text transform="matrix(1 0 0 1 22 121.21)" class="st1 st2 st3 st4">WellSCAN</text>
<path id="leaf-solid" class="st5" d="M647.1,48.2c-0.5-1.3-2-1.9-3.2-1.4c-0.6,0.2-1,0.6-1.3,1.2c-4.9,8.6-14,14-23.9,14h-12.8
	c-16.9,0-30.6,13.7-30.6,30.6c0,1.1,0.1,2.2,0.2,3.3c10.2-7.3,24.9-13.5,45.7-13.5c1.4,0,2.6,1.1,2.6,2.6c0,1.4-1.1,2.5-2.6,2.6
	c-40.1,0-57.1,24.6-60.9,33.8c-1,2.6,0.3,5.6,2.9,6.6c2.6,1,5.5-0.2,6.5-2.7c0.2-0.6,3.3-7.6,11.5-14.5c6.4,8.8,17.1,13.5,27.9,12.3
	c25-1.8,42.7-24.3,42.7-51.8C651.9,63.4,650.2,55.5,647.1,48.2L647.1,48.2z"/>
<rect x="29.2" y="50.4" class="st0" width="536.8" height="91.8"/>
<text transform="matrix(1 0 0 1 29.2124 126.3603)" class="st6 st2 st3 st4">WellSCAN</text>
</svg>
